/* XPM */
static char * Blue_bush_xpm[] = {
"47 43 9 1",
" 	c None",
".	c #000833",
"+	c #00C6BF",
"@	c #00808D",
"#	c #00385B",
"$	c #54F7E1",
"%	c #54353F",
"&	c #7A4E42",
"*	c #0C0017",
"             ...    ...                        ",
"             .++.  .@+.        ...             ",
"        ....  .+@. .#@.  ...  .@+.             ",
"        .@+#. .@@..#@.. .@+.  .+$.  ....       ",
"         .@+@....++##@$.####..#@+#..@#.        ",
"    ..  ...#.##..+@@#++$#+$+.##....#@+@.....   ",
"    .@..##@@.#++#.+@.@#@.@+$##+$$@#.#@.#@$+.   ",
"    .+#.@+$$@.+@+@#..##.#@@#.@++$#.@..#@@+#.   ",
"    .+@.#@$++.@+@@#..#..##..#@@##.#++@.#+@.    ",
"    .@@#..@+@#.##@.....#.%%%.###.&@$+$@...     ",
".....@#@+@#.....##.%%.#..&%....##..#$$$@#....  ",
".+$+@.@$+$+.%&%...#.++..%%.##++..#++#@..#+$+.  ",
".#@++.@$$+@#.%&++#.$+$@.&...@$+$.@$+$##@+$@#.  ",
" .#@@#.#@@++#.$+$@#$$@#&%#..#@$$.#@$$%.#@@#.   ",
"  ..##..#$+$@.$$@#%$@###@@#%.#@$..#@$.#.%%.    ",
"..##..#.#$$#.%$@#..%...$++$##.#....#.#@.##..   ",
".$+@@#.@##.%%......###.+$$+.#..%%%..@@+.#@@#.  ",
".@++@#%+@+@.%@.###.@+@.#@@#...@#..%.+@$.@@++#. ",
" ...#.%$+@.#.##@+@..@#.%...##.@@#.&.@+$#@##... ",
"...#.#%##.#@@.@+$+.##.@++.##@.++@.%.#..##..    ",
".@++@#....+@@.+$$@#@@.+$$.#@+.+$#%...#@@+#.    ",
" .@@+@#..#@++#@+@.++$.#@#..+$.#+#....#@+@##..  ",
" *....@@#@#......#+$$..#...#+.#..###..###.#@+. ",
"   ...####.##..##.@+@.%.%.#.@....#@#@.....##@+.",
"    ...##.@##.##@......%......%&..#@#@.%.#.....",
"  ..##....+#@.@@+..#..#.#.##.%.%%..#@++..#@@.  ",
" .#@@#.##.+@.##+#..@##@..#.@............#..++. ",
" .....###...##...%.@#@+..@@+..##.###.##..##... ",
" *.##.+@@@..@###....++..%.+#..#@.+@+.@@#.#+@.  ",
" .@@#.#++#.#+@@@.##.........##.@.#+#.#@+..#++. ",
" ....@##....#++.####.##.##..##.#..#.@.++.#.... ",
"  **.+@#.%...##.@#@#.@###@..@#@....@+.#+...*   ",
"   *......%&%....@@...@@@...@@+..#.#.....##.   ",
"  *.#..#.#...##..@..%.#+#.%.#++....#.###.@#@.  ",
"  .#.#.##..%.@#.....&%.#.%&...##@.#@.@##.#@+.  ",
"  .@#........#@.#.#.%&...&..#..@+.@+.#@#.....  ",
"  ...*.#..#.%...@#@..%%.%%.##@....#+.....*     ",
"   ***.@.##..%..+@#.#.%%%..@++..#....#.#.      ",
"     *.#@#.*.%........%&%...@..@@#.**.#@.      ",
"     .....**..*.#.#....%..#..#*...*  *...      ",
"      ***  *** .##..**.....##@                 ",
"               .#@.**  ****#@.                 ",
"               *..*       *..*                 "};
