/* XPM */
static char * Bush_flowery_xpm[] = {
"31 29 11 1",
" 	c None",
".	c #001616",
"+	c #01594C",
"@	c #01E329",
"#	c #019F3E",
"$	c #01783F",
"%	c #002728",
"&	c #004042",
"*	c #C4507C",
"=	c #FF9FB4",
"-	c #020514",
"            ..                 ",
"       .... .+.. .......       ",
"      .@@#$.%%&%.&#@@%.   .... ",
"      .%#$$&.$$+&#$#%.   .%&+. ",
"      .%%%&&%%++&$$%*=....%%.  ",
"  .....%=*%@#$&%$#&%**&$#@@.   ",
"   .@@#%**..$$+.$$#%%%%#$#@... ",
"   ..#$#%%.%&%.*.#@&$$%$$#&%%..",
"    .&#$&%@@#+%$$.@&$#%++.%**%.",
"     .&&%..#$$&$#%.&&#..&$#&=. ",
"  ...&%%.$$.#$%+#+$#&%&*.$$#*. ",
"...%**%&.#$%.&#&%&$$#&$&..#@%. ",
".#$%=&++%@%&%#$$%%&#@++$&..@%&.",
" .+%*&$+%+++&@$%**%+@+$$#&.%&+.",
"  ..%%$%&$+$&@%%=*=%&&#$#&++%..",
"   ....++&$&%%.%==%&&+&##&+$. .",
"  .+.*%$+%%&++..%%+$&%&$#%%#.  ",
"  .$+.%$&%%&+$.%&$+#%...%**%.. ",
"   .$&%%%**%&$.*%&$#..&%=*=%&+.",
"    .+&+%=*=%&%%++&%.*+$%==%%..",
"   -..%$%==%%%..$+%++%$+$%%&.- ",
"   ..*.##%%&%%+.$%%%$.%$#+&%&. ",
"   .%%&%%%&.%++%%%**%&%%#&+%.. ",
"   -..%&+..%.$+&%=*=%+&%%+$%-. ",
"     -.$&%&&%$.++%==%++*.%$%   ",
"     -.$%%+&%..+$%%%%+$%..%    ",
"      .+%%$+%..%$%&+$.$.-      ",
"      ..-.$.-...%.+$.-..       ",
"         ..  -..--..           "};
