/* XPM */
static char * Collectible_xpm[] = {
"128 128 13 1",
" 	c #447788",
".	c #5A240D",
"+	c #FFE94F",
"@	c #FFFFA8",
"#	c #AE5046",
"$	c #EE9C2C",
"%	c #5BA697",
"&	c #74E89F",
"*	c #47837C",
"=	c #46837C",
"-	c #5AB882",
";	c #5BB882",
">	c #345E70",
"                                 ..............                            ..............                                       ",
"                                 ..............                            ..............                                       ",
"                                 ..............                            ..............                                       ",
"                             ....++++@@@@++++++....                    ....++++++@@@@++++....                                   ",
"                             ....++++@@@@++++++....                    ....++++++@@@@++++....                                   ",
"                             ....++++@@@@++++++....                    ....++++++@@@@++++....                                   ",
"                             ....++++@@@@++++++....                    ....++++++@@@@++++....                                   ",
"                             ....@@@@##########$$$$....            ....$$$$##########@@@@....                                   ",
"        %%%%%%%%%%%%%%%%%%%%%....@@@@##########$$$$....%%%%%%%%%%%%....$$$$##########@@@@....%%%%%%%%%%%%%%%%%%%%%%%%%%%        ",
"        %%%%%%%%%%%%%%%%%%%%%....@@@@##########$$$$....%%%%%%%%%%%%....$$$$##########@@@@....%%%%%%%%%%%%%%%%%%%%%%%%%%%        ",
"        %%%%%%%%%%%%%%%%%%%%%....@@@@##########$$$$....%%%%%%%%%%%%....$$$$##########@@@@....%%%%%%%%%%%%%%%%%%%%%%%%%%%        ",
"        %%%%%%%%%%%%%%%%%%%%%....++++####..........####............####..........####++++....%%%%%%%%%%%%%%%%%%%%%%%%%%%        ",
"        %%%%%%%%%%%%%%%%%%%%%....++++####..........####............####..........####++++....%%%%%%%%%%%%%%%%%%%%%%%%%%%        ",
"        %%%%%%%%%%%%%%%%%%%%%....++++####..........####............####..........####++++....%%%%%%%%%%%%%%%%%%%%%%%%%%%        ",
"        %%%%%%%%%%%%%%%%%%%%%....++++####..........####............####..........####++++....%%%%%%%%%%%%%%%%%%%%%%%%%%%        ",
"        %%%%%%%%%%%%%%%%%%%%%....++++####..........####............####..........####++++....%%%%%%%%%%%%%%%%%%%%&&&&&&&        ",
"        %%%%%%%%%%%%%%%%%%%%%....++++####..........####............####..........####++++....%%%%%%%%%%%%%%%%%%%%&&&&&&&        ",
"        %%%%%%%%%%%%%%%%%%%%%....$$$$####......####$$$$$$$$$$$$$$$$$$$$####......####$$$$....%%%%%%%%%%%%%%%%%%%%&&&&&&&        ",
"        %%%%%%%%%%%%%%%%%%%%%....$$$$####......####$$$$$$$$$$$$$$$$$$$$####......####$$$$....%%%%%%%%%%%%%%%%%%%%&&&&&&&        ",
"        %%%%%%%%%%%%%%%%%%%%%....$$$$####......####$$$$$$$$$$$$$$$$$$$$####......####$$$$....%%%%%%%%%%%%%%%%%%%%&&&&&&&        ",
"        %%%%%%%%%%%%%%%%%%%%%....$$$$####......####$$$$$$$$$$$$$$$$$$$$####......####$$$$....%%%%%%%%%%%%%%%%%%%%&&&&&&&        ",
"        %%%%%%%%%%%%%%%%%%%%%%%%%....$$$$$$$$$$$$$$$$$$$$$$$$$$$$$$$$$$$$$$$$$$$$$$$$....%%%%%%%%%%%%%%%%%%%%%%%%&&&&&&&        ",
"        %%%%%%%%%%%%%%%%%%%%%%%%%....$$$$$$$$$$$$$$$$$$$$$$$$$$$$$$$$$$$$$$$$$$$$$$$$....%%%%%%%%%%%%%%%%%%%%%%%%&&&&&&&        ",
"        %%%%%%%%%%%%%%%%%%%%%%%%%....$$$$$$$$$$$$$$$$$$$$$$$$$$$$$$$$$$$$$$$$$$$$$$$$....%%%%%%%%%%%%%%%%%%%%%%%%&&&&&&&        ",
"        %%%%%%%%%%%%%%%%%%%%%%%%%....$$$$$$$$$$$$$$$$$$$$$$$$$$$$$$$$$$$$$$$$$$$$$$$$....%%%%%%%%%%%%%%%%%%%%%%%%&&&&&&&        ",
"        %%%%%%%%%%%%%%%%%%%%%....####$$$$######........$$$$$$$$$$$$........######$$$$####....%%%%%%%%%%%%%%%%%%%%&&&&&&&        ",
"        %%%%%%%%%%%%%%%%%%%%%....####$$$$######........$$$$$$$$$$$$........######$$$$####....%%%%%%%%%%%%%%%%%%%%&&&&&&&        ",
"        %%%%%%%%%%%%%%%%%%%%%....####$$$$######........$$$$$$$$$$$$........######$$$$####....%%%%%%%%%%%%%%%%%%%%&&&&&&&        ",
"        %%%%%%%%%%%%%%%%%%%%%....####$$$$######........$$$$$$$$$$$$........######$$$$####....%%%%%%%%%%%%%%%%%%%%&&&&&&&        ",
"        %%%%%%%%%%%%%%%%%%%%%....####$$$$......$$$$$$$$####....####$$$$$$$$......$$$$####....%%%%%%%%%%%%%%%%%%%%&&&&&&&        ",
"        %%%%%%%%%%%%%%%%%%%%%....####$$$$......$$$$$$$$####....####$$$$$$$$......$$$$####....%%%%%%%%%%%%%%%%%%%%&&&&&&&        ",
"        %%%%%%%%%%%%%%%%%%%%%....####$$$$......$$$$$$$$####....####$$$$$$$$......$$$$####....%%%%%%%%%%%%%%%%%%%%&&&&&&&        ",
"        %%%%%%%%%%%%%%%%%%%%%....####$$$$......$$$$$$$$####....####$$$$$$$$......$$$$####....%%%%%%%%%%%%%%%%%%%%&&&&&&&        ",
"        %%%%%%%%%%%%%%%%%%%%%....####$$$$$$$$$$$$$$$$$$$$$$####$$$$$$$$$$$$$$$$$$$$$$####....%%%%%%%%%%%%%%%%%%%%&&&&&&&        ",
"        %%%%%%%%%%%%%%%%%%%%%....####$$$$$$$$$$$$$$$$$$$$$$####$$$$$$$$$$$$$$$$$$$$$$####....%%%%%%%%%%%%%%%%%%%%&&&&&&&        ",
"        %%%%%%%%%%%%%%%%%%%%%....####$$$$$$$$$$$$$$$$$$$$$$####$$$$$$$$$$$$$$$$$$$$$$####....%%%%%%%%%%%%%%%%%%%%&&&&&&&        ",
"        %%%%%%%%%%%%%%%%%%%%%....####$$$$$$$$$$$$$$$$$$$$$$####$$$$$$$$$$$$$$$$$$$$$$####....%%%%%%%%%%%%%%%%%%%%&&&&&&&        ",
"        %%%%%%%%%%%%%%%%%%%%%%%%%....$$$$$$$$$$$$$$####$$$$....$$$$####$$$$$$$$$$$$$$....%%%%%%%%%%%%%%%%%%%%%%%%&&&&&&&        ",
"        %%%%%%%%%%%%%%%%%%%%%%%%%....$$$$$$$$$$$$$$####$$$$....$$$$####$$$$$$$$$$$$$$....%%%%%%%%%%%%%%%%%%%%%%%%&&&&&&&        ",
"        %%%%%%%%%%%%%%%%%%%%%%%%%....$$$$$$$$$$$$$$####$$$$....$$$$####$$$$$$$$$$$$$$....%%%%%%%%%%%%%%%%%%%%%%%%&&&&&&&        ",
"        %%%%%%%%%%%%%%%%%%%%%%%%%....$$$$$$$$$$$$$$####$$$$....$$$$####$$$$$$$$$$$$$$....%%%%%%%%%%%%%%%%%%%%%%%%&&&&&&&        ",
"        %%%%%%%%%%%%%%%%%%%%%%%%%%%%%....######$$$$$$$$....####....$$$$$$$$######....%%%%%%%%%%%%%%%%%%%%%%%%%%%%&&&&&&&        ",
"        %%%%%%%%%%%%%%%%%%%%%%%%%%%%%....######$$$$$$$$....####....$$$$$$$$######....%%%%%%%%%%%%%%%%%%%%%%%%%%%%&&&&&&&        ",
"        %%%%%%%%%%%%%%%%%%%%%%%%%%%%%....######$$$$$$$$....####....$$$$$$$$######....%%%%%%%%%%%%%%%%%%%%%%%%%%%%&&&&&&&        ",
"        %%%%%%%%%%%%%%%%%%%%%%%%%%%%%....######$$$$$$$$....####....$$$$$$$$######....%%%%%%%%%%%%%%%%%%%%%%%%%%%%&&&&&&&        ",
"        %%%%%%%%%%%%%%%%%%%%%%%%%....####......############################......####....%%%%%%%%%%%%%%%%%%%%%%%%&&&&&&&        ",
"        %%%%%%%%%%%%%%%%%%%%%%%%%....####......############################......####....%%%%%%%%%%%%%%%%%%%%%%%%&&&&&&&        ",
"        %%%%%%%%%%%%%%%%%%%%%%%%%....####......############################......####....%%%%%%%%%%%%%%%%%%%%%%%%&&&&&&&        ",
"        %%%%%%%%%%%%%%%%%%%%%%%%%....####......############################......####....%%%%%%%%%%%%%%%%%%%%%%%%&&&&&&&        ",
"        %%%%%%%%%%%%%%%%%%%%%%%%%....####......############################......####....%%%%%%%%%%%%%%%%%%%%%%%%&&&&&&&        ",
"        %%%%%%%%%%%%%%%%%%%%%%%%%....####......############################......####....%%%%%%%%%%%%%%%%%%%%%%%%&&&&&&&        ",
"        %%%%%%%%%%%%%%%%%%%%%....####$$$$$$$$$$########............########$$$$$$$$$$####....%%%%%%%%%%%%%%%%%%%%&&&&&&&        ",
"        %%%%%%%%%%%%%%%%%%%%%....####$$$$$$$$$$########............########$$$$$$$$$$####....%%%%%%%%%%%%%%%%%%%%&&&&&&&        ",
"        %%%%%%%%%%%%%%%%%%%%%....####$$$$$$$$$$########............########$$$$$$$$$$####....%%%%%%%%%%%%%%%%%%%%&&&&&&&        ",
"        %%%%%%%%%%%%%%%%%%%%%....####$$$$$$$$$$########............########$$$$$$$$$$####....%%%%%%%%%%%%%%%%%%%%&&&&&&&        ",
"        %%%%%%%%%%%%%%%%%%%%%....++++++++##########....++++@@@@++++....##########++++++++....%%%%%%%%%%%%%%%%%%%%&&&&&&&        ",
"        %%%%%%%%%%%%%%%%%%%%%....++++++++##########....++++@@@@++++....##########++++++++....%%%%%%%%%%%%%%%%%%%%&&&&&&&        ",
"        %%%%%%%%%%%%%%%%%%%%%....++++++++##########....++++@@@@++++....##########++++++++....%%%%%%%%%%%%%%%%%%%%&&&&&&&        ",
"        %%%%%%%%%%%%%%%%%%%%%....++++++++##########....++++@@@@++++....##########++++++++....%%%%%%%%%%%%%%%%%%%%&&&&&&&        ",
"        %%%%%%%%%%%%%%%%%%%%%....@@@@++++++++++....++++$$$$$$$$$$$$++++....++++++++++@@@@....%%%%%%%%%%%%%%%%%%%%&&&&&&&        ",
"        %%%%%%%%%%%%%%%%%%%%%....@@@@++++++++++....++++$$$$$$$$$$$$++++....++++++++++@@@@....%%%%%%%%%%%%%%%%%%%%&&&&&&&        ",
"        %%%%%%%%%%%%%%%%%%%%%....@@@@++++++++++....++++$$$$$$$$$$$$++++....++++++++++@@@@....%%%%%%%%%%%%%%%%%%%%&&&&&&&        ",
"        %%%%%%%%%%%%%%%%%%%%%....@@@@++++++++++....++++$$$$$$$$$$$$++++....++++++++++@@@@....%%%%%%%%%%%%%%%%%%%%&&&&&&&        ",
"        %%%%%%%%%%%%%%%%%%%%%....$$$$@@@@++++++....$$$$$$$$$$$$$$$$$$$$....++++++@@@@$$$$....%%%%%%%%%%%%%%%%%%%%&&&&&&&        ",
"        %%%%%%%%%%%%%%%%%%%%%....$$$$@@@@++++++....$$$$$$$$$$$$$$$$$$$$....++++++@@@@$$$$....%%%%%%%%%%%%%%%%%%%%&&&&&&&        ",
"        %%%%%%%%%%%%%%%%%%%%%....$$$$@@@@++++++....$$$$$$$$$$$$$$$$$$$$....++++++@@@@$$$$....%%%%%%%%%%%%%%%%%%%%&&&&&&&        ",
"        %%%%%%%%%%%%%%%%%%%%%....$$$$@@@@++++++....$$$$$$$$$$$$$$$$$$$$....++++++@@@@$$$$....%%%%%%%%%%%%%%%%%%%%&&&&&&&        ",
"        %%%%%%%%%%%%%%%%%%%%%........$$$$$$$$$$....$$$$############$$$$....$$$$$$$$$$........%%%%%%%%%%%%%%%%%%%%&&&&&&&        ",
"        %%%%%%%%%%%%%%%%%%%%%........$$$$$$$$$$....$$$$############$$$$....$$$$$$$$$$........%%%%%%%%%%%%%%%%%%%%&&&&&&&        ",
"        %%%%%%%%%%%%%%%%%%%%%........$$$$$$$$$$....$$$$############$$$$....$$$$$$$$$$........%%%%%%%%%%%%%%%%%%%%&&&&&&&        ",
"        %%%%%%%%%%%%%%%%%%%%%........$$$$$$$$$$....$$$$############$$$$....$$$$$$$$$$........%%%%%%%%%%%%%%%%%%%%&&&&&&&        ",
"        %%%%%%%%%%%%%%%%%%%%%....$$$$..............$$$$####++++####$$$$..............$$$$....%%%%%%%%%%%%%%%%%%%%&&&&&&&        ",
"        %%%%%%%%%%%%%%%%%%%%%....$$$$..............$$$$####++++####$$$$..............$$$$....%%%%%%%%%%%%%%%%%%%%&&&&&&&        ",
"        %%%%%%%%%%%%%%%%%%%%%....$$$$..............$$$$####++++####$$$$..............$$$$....%%%%%%%%%%%%%%%%%%%%&&&&&&&        ",
"        %%%%%%%%%%%%%%%%%%%%%....$$$$..............$$$$####++++####$$$$..............$$$$....%%%%%%%%%%%%%%%%%%%%&&&&&&&        ",
"        %%%%%%%%%%%%%%%%%%%%%....####$$$$######....$$$$####$$$$####$$$$....$$$$$$####$$$$....%%%%%%%%%%%%%%%%%%%%&&&&&&&        ",
"        %%%%%%%%%%%%%%%%%%%%%....####$$$$######....$$$$####$$$$####$$$$....$$$$$$####$$$$....%%%%%%%%%%%%%%%%%%%%&&&&&&&        ",
"        %%%%%%%%%%%%%%%%%%%%%....####$$$$######....$$$$####$$$$####$$$$....$$$$$$####$$$$....%%%%%%%%%%%%%%%%%%%%&&&&&&&        ",
"        %%%%%%%%%%%%%%%%%%%%%....####$$$$######....$$$$####$$$$####$$$$....$$$$$$####$$$$....%%%%%%%%%%%%%%%%%%%%&&&&&&&        ",
"        %%%%%%%%%%%%%%%%%%%%%....####$$$$######....$$$$####$$$$####$$$$....$$$$$$####$$$$....%%%%%%%%%%%%%%%%%%%%&&&&&&&        ",
"        %%%%%%%%%%%%%%%%%%%%%....####$$$$######....$$$$####$$$$####$$$$....$$$$$$####$$$$....%%%%%%%%%%%%%%%%%%%%&&&&&&&        ",
"        %%%%%%%%%%%%%%%%%%%%%....########$$$$$$....$$$$############$$$$....######$$$$####....%%%%%%%%%%%%%%%%%%%%&&&&&&&        ",
"        %%%%%%%%%%%%%%%%%%%%%....########$$$$$$....$$$$############$$$$....######$$$$####....%%%%%%%%%%%%%%%%%%%%&&&&&&&        ",
"        %%%%%%%%%%%%%%%%%%%%%....########$$$$$$....$$$$############$$$$....######$$$$####....%%%%%%%%%%%%%%%%%%%%&&&&&&&        ",
"        %%%%%%%%%%%%%%%%%%%%%....########$$$$$$....$$$$############$$$$....######$$$$####....%%%%%%%%%%%%%%%%%%%%&&&&&&&        ",
"        %%%%%%%%%%%%%%%%%%%%%%%%%....##########....$$$$$$$$$$$$$$$$$$$$....##########....%%%%%%%%%%%%%%%%%%%%%%%%&&&&&&&        ",
"        %%%%%%%%%%%%%%%%%%%%%%%%%....##########....$$$$$$$$$$$$$$$$$$$$....##########....%%%%%%%%%%%%%%%%%%%%%%%%&&&&&&&        ",
"        %%%%%%%%%%%%%%%%%%%%%%%%%....##########....$$$$$$$$$$$$$$$$$$$$....##########....%%%%%%%%%%%%%%%%%%%%%%%%&&&&&&&        ",
"        %%%%%%%%%%%%%%%%%%%%%%%%%....##########....$$$$$$$$$$$$$$$$$$$$....##########....%%%%%%%%%%%%%%%%%%%%%%%%&&&&&&&        ",
"        %%%%%%%%%%%%%%%%%%%%%********..............$$$$############$$$$..............********%%%%%%%%%%%%%%%%%%%%&&&&&&&        ",
"        %%%%%%%%%%%%%%%%%%%%%********..............$$$$############$$$$..............********%%%%%%%%%%%%%%%%%%%%&&&&&&&        ",
"        %%%%%%%%%%%%%%%%%%%%%********..............$$$$############$$$$..............********%%%%%%%%%%%%%%%%%%%%&&&&&&&        ",
"        %%%%%%%%%%%%%%%%%%%%%********..............$$$$############$$$$..............********%%%%%%%%%%%%%%%%%%%%&&&&&&&        ",
"        %%%%%%%%%%%%%%%%%====****....$$$$######....$$$$####++++####$$$$....######$$$$....****%%%%%%%%%%%%%%%%%%%%&&&&&&&        ",
"        %%%%%%%%%%%%%%%%%====****....$$$$######....$$$$####++++####$$$$....######$$$$....****%%%%%%%%%%%%%%%%%%%%&&&&&&&        ",
"        %%%%%%%%%%%%%%%%%====****....$$$$######....$$$$####++++####$$$$....######$$$$....****%%%%%%%%%%%%%%%%%%%%&&&&&&&        ",
"        %%%%%%%%%%%%%%%%%====****....$$$$######....$$$$####++++####$$$$....######$$$$....****%%%%%%%%%%%%%%%%%%%%&&&&&&&        ",
"        %%%%%%%%%%%%%%%%%====....@@@@++++$$$$$$....$$$$####++++####$$$$....$$$$$$++++@@@@....%%%%%%%%%%%%%%%%%%%%&&&&&&&        ",
"        %%%%%%%%%%%%%%%%%====....@@@@++++$$$$$$....$$$$####++++####$$$$....$$$$$$++++@@@@....%%%%%%%%%%%%%%%%%%%%&&&&&&&        ",
"        %%%%%%%%%%%%%%%%%====....@@@@++++$$$$$$....$$$$####++++####$$$$....$$$$$$++++@@@@....%%%%%%%%%%%%%%%%%%%%&&&&&&&        ",
"        %%%%%%%%%%%%%%%%%====....@@@@++++$$$$$$....$$$$####++++####$$$$....$$$$$$++++@@@@....%%%%%%%%%%%%%%%%%%%%&&&&&&&        ",
"        %%%%%%%%%%%%%%%%%====....++++@@@@++++++....$$$$####$$$$####$$$$....++++++@@@@++++....%%%%%%%%%%%%%%%%%%%%&&&&&&&        ",
"        %%%%%%%%%%%%%%%%%====....++++@@@@++++++....$$$$####$$$$####$$$$....++++++@@@@++++....%%%%%%%%%%%%%%%%%%%%&&&&&&&        ",
"        %%%%%%%%%%%%%%%%%====....++++@@@@++++++....$$$$####$$$$####$$$$....++++++@@@@++++....%%%%%%%%%%%%%%%%%%%%&&&&&&&        ",
"        %%%%%%%%%%%%%%%%%====....++++@@@@++++++....$$$$####$$$$####$$$$....++++++@@@@++++....%%%%%%%%%%%%%%%%%%%%&&&&&&&        ",
"        %%%%%%%%%%%%%%%%%====....##############....$$$$############$$$$....##############....%%%%%%%%%%%%%%%%%%%%&&&&&&&        ",
"        %%%%%%%%%%%%%%%%%====....##############....$$$$############$$$$....##############....%%%%%%%%%%%%%%%%%%%%&&&&&&&        ",
"        %%%%%%%%%%%%%%%%%====....##############....$$$$############$$$$....##############....%%%%%%%%%%%%%%%%%%%%&&&&&&&        ",
"        %%%%%%%%%%%%%%%%%====....##############....$$$$############$$$$....##############....%%%%%%%%%%%%%%%%%%%%&&&&&&&        ",
"        %%%%%%%%%%%%%%%%%====****..................$$$$$$$$$$$$$$$$$$$$..................****%%%%%%%%%%%%%%%%%%%%&&&&&&&        ",
"        %%%%%%%%%%%%%%%%%====****..................$$$$$$$$$$$$$$$$$$$$..................****%%%%%%%%%%%%%%%%%%%%&&&&&&&        ",
"        %%%%%%%%%%%%%%%%%====****..................$$$$$$$$$$$$$$$$$$$$..................****%%%%%%%%%%%%%%%%%%%%&&&&&&&        ",
"        %%%%%%%%%%%%%%%%%====****..................$$$$$$$$$$$$$$$$$$$$..................****%%%%%%%%%%%%%%%%%%%%&&&&&&&        ",
"        %%%%%%%&&&&&&&&&&----;;;;..................$$$$$$$$$$$$$$$$$$$$..................;;;;&&&&&&&&&&&&&&&&&&&&%%%%%%%        ",
"        %%%%%%%&&&&&&&&&&----;;;;..................$$$$$$$$$$$$$$$$$$$$..................;;;;&&&&&&&&&&&&&&&&&&&&%%%%%%%        ",
"        %%%%%%%&&&&&&&&&&&&&&;;;;;;;;;;;;;;;;;;....####$$$$$$$$$$$$####....;;;;;;;;;;;;;;;;;;&&&&&&&&&&&&&&&&&&&&%%%%%%%        ",
"        %%%%%%%&&&&&&&&&&&&&&;;;;;;;;;;;;;;;;;;....####$$$$$$$$$$$$####....;;;;;;;;;;;;;;;;;;&&&&&&&&&&&&&&&&&&&&%%%%%%%        ",
"        %%%%%%%&&&&&&&&&&&&&&;;;;;;;;;;;;;;;;;;....####$$$$$$$$$$$$####....;;;;;;;;;;;;;;;;;;&&&&&&&&&&&&&&&&&&&&%%%%%%%        ",
"        %%%%%%%&&&&&&&&&&&&&&;;;;;;;;;;;;;;;;;;....####$$$$$$$$$$$$####....;;;;;;;;;;;;;;;;;;&&&&&&&&&&&&&&&&&&&&%%%%%%%        ",
"        %%%%%%%&&&&&&&&&&&&&&&&&&------------------....................------------------&&&&&&&&&&&&&&&&&&&&&&&&%%%%%%%        ",
"                                 >>>>>>>>>>>>>>>>>>....................>>>>>>>>>>>>>>>>>>                                       ",
"                                 >>>>>>>>>>>>>>>>>>....................>>>>>>>>>>>>>>>>>>                                       ",
"                                 >>>>>>>>>>>>>>>>>>....................>>>>>>>>>>>>>>>>>>                                       ",
"                                         >>>>>>>>>>>>>>>>>>>>>>>>>>>>>>>>>>>>>>>>                                               ",
"                                         >>>>>>>>>>>>>>>>>>>>>>>>>>>>>>>>>>>>>>>>                                               ",
"                                         >>>>>>>>>>>>>>>>>>>>>>>>>>>>>>>>>>>>>>>>                                               ",
"                                         >>>>>>>>>>>>>>>>>>>>>>>>>>>>>>>>>>>>>>>>                                               ",
"                                                                                                                                "};
