/* XPM */
static char * Chest_xpm[] = {
"16 23 19 1",
" 	c None",
".	c #453A37",
"+	c #47372B",
"@	c #915200",
"#	c #332620",
"$	c #807A73",
"%	c #F1B435",
"&	c #B1A8A2",
"*	c #CFBFB3",
"=	c #A5968E",
"-	c #FFE987",
";	c #5C554E",
">	c #E7D7C7",
",	c #D08405",
"'	c #A86900",
")	c #23150C",
"!	c #3B2F2B",
"~	c #7A7A7A",
"{	c #351528",
"..+@+......+@+..",
"#$+%+&*&*&=+%+$#",
"#&.-;*&*&*=;-.&#",
"#*;-;&****=;-;*#",
"#*;-;*****=;-;*#",
"#*;-;*****=;-;*#",
"#*;-;**>**=;-;*#",
"#*.%.*>>>*=.%.*#",
"#>.,.>>>>>*.,.>#",
"#;#'#;;;;;;#'#;#",
"#;#@#;.##.;#@#;#",
"#.###.#,,#.###.#",
"))))))'))'))))))",
").#@##@))@##@#.)",
");#@#!#@@#!#@#;)",
")~#'#..##..#'#~)",
")~#'#.;..;.#'#~)",
")~#'#.;;;;.#'#~)",
")~#'#.;;;;.#'#~)",
");#'#))))))#'#;)",
"{)))){{{{{{)))){",
" {{{{{{{{{{{{{{ ",
"                "};
