/* XPM */
static char *collect[] = {
/* columns rows colors chars-per-pixel */
"128 128 5 1 ",
"  c #09020E",
". c #1E122D",
"X c #51487A",
"o c #7A80A5",
"O c #A6ADC3",
/* pixels */
"                                              OOOOOOOOOOOOOOOOOOOOOOOOOOOOOOOOOOOOOOO                                           ",
"                                              OOOOOOOOOOOOOOOOOOOOOOOOOOOOOOOOOOOOOOO                                           ",
"                                              OOOOOOOOOOOOOOOOOOOOOOOOOOOOOOOOOOOOOOO                                           ",
"                                              OOOOOOOOOOOOOOOOOOOOOOOOOOOOOOOOOOOOOOO                                           ",
"                                              OOOOOOOOOOOOOOOOOOOOOOOOOOOOOOOOOOOOOOO                                           ",
"                                              OOOOOOOOOOOOOOOOOOOOOOOOOOOOOOOOOOOOOOO                                           ",
"                                              OOOOOOOOOOOOOOOOOOOOOOOOOOOOOOOOOOOOOOO                                           ",
"                                              OOOOOOOOOOOOOOOOOOOOOOOOOOOOOOOOOOOOOOO                                           ",
"                                              OOOOOOOOOOOOOOOOOOOOOOOOOOOOOOOOOOOOOOO                                           ",
"                                              OOOOOOOOOOOOOOOOOOOOOOOOOOOOOOOOOOOOOOO                                           ",
"                                    OOOOOOOOOOoooooooooooooooooooooooooooooooooooooooOOOOOOOOOO                                 ",
"                                    OOOOOOOOOOoooooooooooooooooooooooooooooooooooooooOOOOOOOOOO                                 ",
"                                    OOOOOOOOOOoooooooooooooooooooooooooooooooooooooooOOOOOOOOOO                                 ",
"                                    OOOOOOOOOOoooooooooooooooooooooooooooooooooooooooOOOOOOOOOO                                 ",
"                                    OOOOOOOOOOoooooooooooooooooooooooooooooooooooooooOOOOOOOOOO                                 ",
"                                    OOOOOOOOOOoooooooooooooooooooooooooooooooooooooooOOOOOOOOOO                                 ",
"                                    OOOOOOOOOOoooooooooooooooooooooooooooooooooooooooOOOOOOOOOO                                 ",
"                                    OOOOOOOOOOoooooooooooooooooooooooooooooooooooooooOOOOOOOOOO                                 ",
"                                    OOOOOOOOOOoooooooooooooooooooooooooooooooooooooooOOOOOOOOOO                                 ",
"                                    OOOOOOOOOOoooooooooooooooooooooooooooooooooooooooOOOOOOOOOO                                 ",
"                          OOOOOOOOOOoooooooooooooooooooo                    oooooooooooooooooooOOOOOOOOOO                       ",
"                          OOOOOOOOOOoooooooooooooooooooo                    oooooooooooooooooooOOOOOOOOOO                       ",
"                          OOOOOOOOOOoooooooooooooooooooo                    oooooooooooooooooooOOOOOOOOOO                       ",
"                          OOOOOOOOOOoooooooooooooooooooo                    oooooooooooooooooooOOOOOOOOOO                       ",
"                          OOOOOOOOOOoooooooooooooooooooo                    oooooooooooooooooooOOOOOOOOOO                       ",
"                          OOOOOOOOOOoooooooooooooooooooo                    oooooooooooooooooooOOOOOOOOOO                       ",
"                          OOOOOOOOOOoooooooooooooooooooo                    oooooooooooooooooooOOOOOOOOOO                       ",
"                          OOOOOOOOOOoooooooooooooooooooo                    oooooooooooooooooooOOOOOOOOOO                       ",
"                          OOOOOOOOOOoooooooooooooooooooo                    oooooooooooooooooooOOOOOOOOOO                       ",
"                          OOOOOOOOOOoooooooooooooooooooo                    oooooooooooooooooooOOOOOOOOOO                       ",
"                          XXXXXXXXXXoooooooooo                                       ooooooooooXXXXXXXXXX                       ",
"                          XXXXXXXXXXoooooooooo                                       ooooooooooXXXXXXXXXX                       ",
"                          XXXXXXXXXXoooooooooo                                       ooooooooooXXXXXXXXXX                       ",
"                          XXXXXXXXXXoooooooooo                                       ooooooooooXXXXXXXXXX                       ",
"                          XXXXXXXXXXoooooooooo                                       ooooooooooXXXXXXXXXX                       ",
"                          XXXXXXXXXXoooooooooo                                       ooooooooooXXXXXXXXXX                       ",
"                          XXXXXXXXXXoooooooooo                                       ooooooooooXXXXXXXXXX                       ",
"                          XXXXXXXXXXoooooooooo                                       ooooooooooXXXXXXXXXX                       ",
"                          XXXXXXXXXXoooooooooo                                       ooooooooooXXXXXXXXXX                       ",
"                          XXXXXXXXXXooooooooooXXXXXXXXXX                    XXXXXXXXXooooooooooXXXXXXXXXX                       ",
"                          XXXXXXXXXXooooooooooXXXXXXXXXX                    XXXXXXXXXooooooooooXXXXXXXXXX                       ",
"                          XXXXXXXXXXooooooooooXXXXXXXXXX                    XXXXXXXXXooooooooooXXXXXXXXXX                       ",
"                          XXXXXXXXXXooooooooooXXXXXXXXXX                    XXXXXXXXXooooooooooXXXXXXXXXX                       ",
"                          XXXXXXXXXXooooooooooXXXXXXXXXX                    XXXXXXXXXooooooooooXXXXXXXXXX                       ",
"                          XXXXXXXXXXooooooooooXXXXXXXXXX                    XXXXXXXXXooooooooooXXXXXXXXXX                       ",
"                          XXXXXXXXXXooooooooooXXXXXXXXXX                    XXXXXXXXXooooooooooXXXXXXXXXX                       ",
"                          XXXXXXXXXXooooooooooXXXXXXXXXX                    XXXXXXXXXooooooooooXXXXXXXXXX                       ",
"                          XXXXXXXXXXooooooooooXXXXXXXXXX                    XXXXXXXXXooooooooooXXXXXXXXXX                       ",
"                          XXXXXXXXXXooooooooooXXXXXXXXXX                    XXXXXXXXXooooooooooXXXXXXXXXX                       ",
"                                    ooooooooooooooooooooXXXXXXXXXXXXXXXXXXXXooooooooooooooooooo                                 ",
"                                    ooooooooooooooooooooXXXXXXXXXXXXXXXXXXXXooooooooooooooooooo                                 ",
"                                    ooooooooooooooooooooXXXXXXXXXXXXXXXXXXXXooooooooooooooooooo                                 ",
"                                    ooooooooooooooooooooXXXXXXXXXXXXXXXXXXXXooooooooooooooooooo                                 ",
"                                    ooooooooooooooooooooXXXXXXXXXXXXXXXXXXXXooooooooooooooooooo                                 ",
"                                    ooooooooooooooooooooXXXXXXXXXXXXXXXXXXXXooooooooooooooooooo                                 ",
"                                    ooooooooooooooooooooXXXXXXXXXXXXXXXXXXXXooooooooooooooooooo                                 ",
"                                    ooooooooooooooooooooXXXXXXXXXXXXXXXXXXXXooooooooooooooooooo                                 ",
"                                    ooooooooooooooooooooXXXXXXXXXXXXXXXXXXXXooooooooooooooooooo                                 ",
"                                    ooooooooooooooooooooXXXXXXXXXXXXXXXXXXXXooooooooooooooooooo                                 ",
"                                              ooooooooooooooooooooooooooooooooooooooo                                           ",
"                                              ooooooooooooooooooooooooooooooooooooooo                                           ",
"                                              ooooooooooooooooooooooooooooooooooooooo                                           ",
"                                              ooooooooooooooooooooooooooooooooooooooo                                           ",
"                                              ooooooooooooooooooooooooooooooooooooooo                                           ",
"                                              ooooooooooooooooooooooooooooooooooooooo                                           ",
"                                              ooooooooooooooooooooooooooooooooooooooo                                           ",
"                                              ooooooooooooooooooooooooooooooooooooooo                                           ",
"                                              ooooooooooooooooooooooooooooooooooooooo                                           ",
"                                              ooooooooooooooooooooooooooooooooooooooo                                           ",
"                                                        XXXXXXXXXXXXXXXXXXXX                                                    ",
"                                                        XXXXXXXXXXXXXXXXXXXX                                                    ",
"                                                        XXXXXXXXXXXXXXXXXXXX                                                    ",
"                                                        XXXXXXXXXXXXXXXXXXXX                                                    ",
"                                                        XXXXXXXXXXXXXXXXXXXX                                                    ",
"                                                        XXXXXXXXXXXXXXXXXXXX                                                    ",
"                                                        XXXXXXXXXXXXXXXXXXXX                                                    ",
"                                                        XXXXXXXXXXXXXXXXXXXX                                                    ",
"                                                        XXXXXXXXXXXXXXXXXXXX                                                    ",
"                                                        XXXXXXXXXXXXXXXXXXXX                                                    ",
"                                    ....................XXXXXXXXXXXXXXXXXXXXOOOOOOOOOOOOOOOOOOO                                 ",
"                                    ....................XXXXXXXXXXXXXXXXXXXXOOOOOOOOOOOOOOOOOOO                                 ",
"                                    ....................XXXXXXXXXXXXXXXXXXXXOOOOOOOOOOOOOOOOOOO                                 ",
"                                    ....................XXXXXXXXXXXXXXXXXXXXOOOOOOOOOOOOOOOOOOO                                 ",
"                                    ....................XXXXXXXXXXXXXXXXXXXXOOOOOOOOOOOOOOOOOOO                                 ",
"                                    ....................XXXXXXXXXXXXXXXXXXXXOOOOOOOOOOOOOOOOOOO                                 ",
"                                    ....................XXXXXXXXXXXXXXXXXXXXOOOOOOOOOOOOOOOOOOO                                 ",
"                                    ....................XXXXXXXXXXXXXXXXXXXXOOOOOOOOOOOOOOOOOOO                                 ",
"                                    ....................XXXXXXXXXXXXXXXXXXXXOOOOOOOOOOOOOOOOOOO                                 ",
"                                    ....................XXXXXXXXXXXXXXXXXXXXOOOOOOOOOOOOOOOOOOO                                 ",
"                          ..............................XXXXXXXXXXooooooooooooooooooooooooooooo..........                       ",
"                          ..............................XXXXXXXXXXooooooooooooooooooooooooooooo..........                       ",
"                          ..............................XXXXXXXXXXooooooooooooooooooooooooooooo..........                       ",
"                          ..............................XXXXXXXXXXooooooooooooooooooooooooooooo..........                       ",
"                          ..............................XXXXXXXXXXooooooooooooooooooooooooooooo..........                       ",
"                          ..............................XXXXXXXXXXooooooooooooooooooooooooooooo..........                       ",
"                          ..............................XXXXXXXXXXooooooooooooooooooooooooooooo..........                       ",
"                          ..............................XXXXXXXXXXooooooooooooooooooooooooooooo..........                       ",
"                          ..............................XXXXXXXXXXooooooooooooooooooooooooooooo..........                       ",
"                ........................................XXXXXXXXXXooooooooooOOOOOOOOOOOOOOOOOOO....................             ",
"                ........................................XXXXXXXXXXooooooooooOOOOOOOOOOOOOOOOOOO....................             ",
"                ........................................XXXXXXXXXXooooooooooOOOOOOOOOOOOOOOOOOO....................             ",
"                ........................................XXXXXXXXXXooooooooooOOOOOOOOOOOOOOOOOOO....................             ",
"                ........................................XXXXXXXXXXooooooooooOOOOOOOOOOOOOOOOOOO....................             ",
"                ........................................XXXXXXXXXXooooooooooOOOOOOOOOOOOOOOOOOO....................             ",
"                ........................................XXXXXXXXXXooooooooooOOOOOOOOOOOOOOOOOOO....................             ",
"                ........................................XXXXXXXXXXooooooooooOOOOOOOOOOOOOOOOOOO....................             ",
"                ........................................XXXXXXXXXXooooooooooOOOOOOOOOOOOOOOOOOO....................             ",
"                ........................................XXXXXXXXXXooooooooooOOOOOOOOOOOOOOOOOOO....................             ",
"                          ..............................ooooooooooooooooooooooooooooooooooooooo..........                       ",
"                          ..............................ooooooooooooooooooooooooooooooooooooooo..........                       ",
"                          ..............................ooooooooooooooooooooooooooooooooooooooo..........                       ",
"                          ..............................ooooooooooooooooooooooooooooooooooooooo..........                       ",
"                          ..............................ooooooooooooooooooooooooooooooooooooooo..........                       ",
"                          ..............................ooooooooooooooooooooooooooooooooooooooo..........                       ",
"                          ..............................ooooooooooooooooooooooooooooooooooooooo..........                       ",
"                          ..............................ooooooooooooooooooooooooooooooooooooooo..........                       ",
"                          ..............................ooooooooooooooooooooooooooooooooooooooo..........                       ",
"                          ..............................ooooooooooooooooooooooooooooooooooooooo..........                       ",
"                                    ...........................................................                                 ",
"                                    ...........................................................                                 ",
"                                    ...........................................................                                 ",
"                                    ...........................................................                                 ",
"                                    ...........................................................                                 ",
"                                    ...........................................................                                 ",
"                                    ...........................................................                                 ",
"                                    ...........................................................                                 ",
"                                    ...........................................................                                 ",
"                                    ...........................................................                                 "
};
