/* XPM */
static char *enemy1[] = {
/* columns rows colors chars-per-pixel */
"128 128 6 1 ",
"  c #09020E",
". c #09020E",
"X c #1E122D",
"o c #51487A",
"O c #7A80A5",
"+ c #A6ADC3",
/* pixels */
"                                                                                                                                ",
"                                                                                                                                ",
"                                                                                                                                ",
"                                                                                                                                ",
"                                                                                                                                ",
"                                                                                                                                ",
"                                                                                                                                ",
"                                                                                                                                ",
"                                                        OOOOOOOOOOOOOOOOOOOOOOOOOOOOOOOO                                        ",
"                                                        OOOOOOOOOOOOOOOOOOOOOOOOOOOOOOOO                                        ",
"                                                        OOOOOOOOOOOOOOOOOOOOOOOOOOOOOOOO                                        ",
"                                                        OOOOOOOOOOOOOOOOOOOOOOOOOOOOOOOO                                        ",
"                                                        OOOOOOOOOOOOOOOOOOOOOOOOOOOOOOOO                                        ",
"                                                        OOOOOOOOOOOOOOOOOOOOOOOOOOOOOOOO                                        ",
"                                                        OOOOOOOOOOOOOOOOOOOOOOOOOOOOOOOO                                        ",
"                                                        OOOOOOOOOOOOOOOOOOOOOOOOOOOOOOOO                                        ",
"                        ++++++++                OOOOOOOO........................OOOOOOOOOOOOOOOOOOOOOOOO                        ",
"                        ++++++++                OOOOOOOO........................OOOOOOOOOOOOOOOOOOOOOOOO                        ",
"                        ++++++++                OOOOOOOO........................OOOOOOOOOOOOOOOOOOOOOOOO                        ",
"                        ++++++++                OOOOOOOO........................OOOOOOOOOOOOOOOOOOOOOOOO                        ",
"                        ++++++++                OOOOOOOO........................OOOOOOOOOOOOOOOOOOOOOOOO                        ",
"                        ++++++++                OOOOOOOO........................OOOOOOOOOOOOOOOOOOOOOOOO                        ",
"                        ++++++++                OOOOOOOO........................OOOOOOOOOOOOOOOOOOOOOOOO                        ",
"                        ++++++++                OOOOOOOO........................OOOOOOOOOOOOOOOOOOOOOOOO                        ",
"                ++++++++oooooooo        OOOOOOOO........................................OOOOOOOOOOOOOOOOOOOOOOOO                ",
"                ++++++++oooooooo        OOOOOOOO........................................OOOOOOOOOOOOOOOOOOOOOOOO                ",
"                ++++++++oooooooo        OOOOOOOO........................................OOOOOOOOOOOOOOOOOOOOOOOO                ",
"                ++++++++oooooooo        OOOOOOOO........................................OOOOOOOOOOOOOOOOOOOOOOOO                ",
"                ++++++++oooooooo        OOOOOOOO........................................OOOOOOOOOOOOOOOOOOOOOOOO                ",
"                ++++++++oooooooo        OOOOOOOO........................................OOOOOOOOOOOOOOOOOOOOOOOO                ",
"                ++++++++oooooooo        OOOOOOOO........................................OOOOOOOOOOOOOOOOOOOOOOOO                ",
"                ++++++++oooooooo        OOOOOOOO........................................OOOOOOOOOOOOOOOOOOOOOOOO                ",
"        ++++++++        oooooooo        OOOOOOOO........................................OOOOOOOOOOOOOOOOoooooooo                ",
"        ++++++++        oooooooo        OOOOOOOO........................................OOOOOOOOOOOOOOOOoooooooo                ",
"        ++++++++        oooooooo        OOOOOOOO........................................OOOOOOOOOOOOOOOOoooooooo                ",
"        ++++++++        oooooooo        OOOOOOOO........................................OOOOOOOOOOOOOOOOoooooooo                ",
"        ++++++++        oooooooo        OOOOOOOO........................................OOOOOOOOOOOOOOOOoooooooo                ",
"        ++++++++        oooooooo        OOOOOOOO........................................OOOOOOOOOOOOOOOOoooooooo                ",
"        ++++++++        oooooooo        OOOOOOOO........................................OOOOOOOOOOOOOOOOoooooooo                ",
"        ++++++++        oooooooo        OOOOOOOO........................................OOOOOOOOOOOOOOOOoooooooo                ",
"        ++++++++        oooooooo        OOOOOOOO++++++++................++++++++........OOOOOOOOoooooooo                        ",
"        ++++++++        oooooooo        OOOOOOOO++++++++................++++++++........OOOOOOOOoooooooo                        ",
"        ++++++++        oooooooo        OOOOOOOO++++++++................++++++++........OOOOOOOOoooooooo                        ",
"        ++++++++        oooooooo        OOOOOOOO++++++++................++++++++........OOOOOOOOoooooooo                        ",
"        ++++++++        oooooooo        OOOOOOOO++++++++................++++++++........OOOOOOOOoooooooo                        ",
"        ++++++++        oooooooo        OOOOOOOO++++++++................++++++++........OOOOOOOOoooooooo                        ",
"        ++++++++        oooooooo        OOOOOOOO++++++++................++++++++........OOOOOOOOoooooooo                        ",
"        ++++++++        oooooooo        OOOOOOOO++++++++................++++++++........OOOOOOOOoooooooo                        ",
"        ++++++++        oooooooo        OOOOOOOO........................................OOOOOOOOoooooooo                        ",
"        ++++++++        oooooooo        OOOOOOOO........................................OOOOOOOOoooooooo                        ",
"        ++++++++        oooooooo        OOOOOOOO........................................OOOOOOOOoooooooo                        ",
"        ++++++++        oooooooo        OOOOOOOO........................................OOOOOOOOoooooooo                        ",
"        ++++++++        oooooooo        OOOOOOOO........................................OOOOOOOOoooooooo                        ",
"        ++++++++        oooooooo        OOOOOOOO........................................OOOOOOOOoooooooo                        ",
"        ++++++++        oooooooo        OOOOOOOO........................................OOOOOOOOoooooooo                        ",
"        ++++++++        oooooooo        OOOOOOOO........................................OOOOOOOOoooooooo                        ",
"        OOOOOOOOOOOOOOOOoooooooo        OOOOOOOO................................OOOOOOOOoooooooo                                ",
"        OOOOOOOOOOOOOOOOoooooooo        OOOOOOOO................................OOOOOOOOoooooooo                                ",
"        OOOOOOOOOOOOOOOOoooooooo        OOOOOOOO................................OOOOOOOOoooooooo                                ",
"        OOOOOOOOOOOOOOOOoooooooo        OOOOOOOO................................OOOOOOOOoooooooo                                ",
"        OOOOOOOOOOOOOOOOoooooooo        OOOOOOOO................................OOOOOOOOoooooooo                                ",
"        OOOOOOOOOOOOOOOOoooooooo        OOOOOOOO................................OOOOOOOOoooooooo                                ",
"        OOOOOOOOOOOOOOOOoooooooo        OOOOOOOO................................OOOOOOOOoooooooo                                ",
"        OOOOOOOOOOOOOOOOoooooooo        OOOOOOOO................................OOOOOOOOoooooooo                                ",
"        OOOOOOOOOOOOOOOOoooooooo                OOOOOOOOOOOOOOOOOOOOOOOOOOOOOOOOoooooooo                ++++++++++++++++        ",
"        OOOOOOOOOOOOOOOOoooooooo                OOOOOOOOOOOOOOOOOOOOOOOOOOOOOOOOoooooooo                ++++++++++++++++        ",
"        OOOOOOOOOOOOOOOOoooooooo                OOOOOOOOOOOOOOOOOOOOOOOOOOOOOOOOoooooooo                ++++++++++++++++        ",
"        OOOOOOOOOOOOOOOOoooooooo                OOOOOOOOOOOOOOOOOOOOOOOOOOOOOOOOoooooooo                ++++++++++++++++        ",
"        OOOOOOOOOOOOOOOOoooooooo                OOOOOOOOOOOOOOOOOOOOOOOOOOOOOOOOoooooooo                ++++++++++++++++        ",
"        OOOOOOOOOOOOOOOOoooooooo                OOOOOOOOOOOOOOOOOOOOOOOOOOOOOOOOoooooooo                ++++++++++++++++        ",
"        OOOOOOOOOOOOOOOOoooooooo                OOOOOOOOOOOOOOOOOOOOOOOOOOOOOOOOoooooooo                ++++++++++++++++        ",
"        OOOOOOOOOOOOOOOOoooooooo                OOOOOOOOOOOOOOOOOOOOOOOOOOOOOOOOoooooooo                ++++++++++++++++        ",
"        ++++++++        oooooooo                ++++++++++++++++++++++++++++++++                ++++++++++++++++++++++++        ",
"        ++++++++        oooooooo                ++++++++++++++++++++++++++++++++                ++++++++++++++++++++++++        ",
"        ++++++++        oooooooo                ++++++++++++++++++++++++++++++++                ++++++++++++++++++++++++        ",
"        ++++++++        oooooooo                ++++++++++++++++++++++++++++++++                ++++++++++++++++++++++++        ",
"        ++++++++        oooooooo                ++++++++++++++++++++++++++++++++                ++++++++++++++++++++++++        ",
"        ++++++++        oooooooo                ++++++++++++++++++++++++++++++++                ++++++++++++++++++++++++        ",
"        ++++++++        oooooooo                ++++++++++++++++++++++++++++++++                ++++++++++++++++++++++++        ",
"        ++++++++        oooooooo                ++++++++++++++++++++++++++++++++                ++++++++++++++++++++++++        ",
"        ++++++++        oooooooo                OOOOOOOOOOOOOOOOOOOOOOOOOOOOOOOOOOOOOOOO        ++++++++++++++++++++++++        ",
"        ++++++++        oooooooo                OOOOOOOOOOOOOOOOOOOOOOOOOOOOOOOOOOOOOOOO        ++++++++++++++++++++++++        ",
"        ++++++++        oooooooo                OOOOOOOOOOOOOOOOOOOOOOOOOOOOOOOOOOOOOOOO        ++++++++++++++++++++++++        ",
"        ++++++++        oooooooo                OOOOOOOOOOOOOOOOOOOOOOOOOOOOOOOOOOOOOOOO        ++++++++++++++++++++++++        ",
"        ++++++++        oooooooo                OOOOOOOOOOOOOOOOOOOOOOOOOOOOOOOOOOOOOOOO        ++++++++++++++++++++++++        ",
"        ++++++++        oooooooo                OOOOOOOOOOOOOOOOOOOOOOOOOOOOOOOOOOOOOOOO        ++++++++++++++++++++++++        ",
"        ++++++++        oooooooo                OOOOOOOOOOOOOOOOOOOOOOOOOOOOOOOOOOOOOOOO        ++++++++++++++++++++++++        ",
"        ++++++++        oooooooo                OOOOOOOOOOOOOOOOOOOOOOOOOOOOOOOOOOOOOOOO        ++++++++++++++++++++++++        ",
"                ++++++++ooooooooXXXXXXXXXXXXXXXX++++++++++++++++++++++++++++++++++++++++XXXXXXXXXXXXXXXX                        ",
"                ++++++++ooooooooXXXXXXXXXXXXXXXX++++++++++++++++++++++++++++++++++++++++XXXXXXXXXXXXXXXX                        ",
"                ++++++++ooooooooXXXXXXXXXXXXXXXX++++++++++++++++++++++++++++++++++++++++XXXXXXXXXXXXXXXX                        ",
"                ++++++++ooooooooXXXXXXXXXXXXXXXX++++++++++++++++++++++++++++++++++++++++XXXXXXXXXXXXXXXX                        ",
"                ++++++++ooooooooXXXXXXXXXXXXXXXX++++++++++++++++++++++++++++++++++++++++XXXXXXXXXXXXXXXX                        ",
"                ++++++++ooooooooXXXXXXXXXXXXXXXX++++++++++++++++++++++++++++++++++++++++XXXXXXXXXXXXXXXX                        ",
"                ++++++++ooooooooXXXXXXXXXXXXXXXX++++++++++++++++++++++++++++++++++++++++XXXXXXXXXXXXXXXX                        ",
"                ++++++++ooooooooXXXXXXXXXXXXXXXX++++++++++++++++++++++++++++++++++++++++XXXXXXXXXXXXXXXX                        ",
"                XXXXXXXX++++++++XXXXXXXXooooooooOOOOOOOO++++++++++++++++++++++++OOOOOOOOooooooooXXXXXXXXXXXXXXXX                ",
"                XXXXXXXX++++++++XXXXXXXXooooooooOOOOOOOO++++++++++++++++++++++++OOOOOOOOooooooooXXXXXXXXXXXXXXXX                ",
"                XXXXXXXX++++++++XXXXXXXXooooooooOOOOOOOO++++++++++++++++++++++++OOOOOOOOooooooooXXXXXXXXXXXXXXXX                ",
"                XXXXXXXX++++++++XXXXXXXXooooooooOOOOOOOO++++++++++++++++++++++++OOOOOOOOooooooooXXXXXXXXXXXXXXXX                ",
"                XXXXXXXX++++++++XXXXXXXXooooooooOOOOOOOO++++++++++++++++++++++++OOOOOOOOooooooooXXXXXXXXXXXXXXXX                ",
"                XXXXXXXX++++++++XXXXXXXXooooooooOOOOOOOO++++++++++++++++++++++++OOOOOOOOooooooooXXXXXXXXXXXXXXXX                ",
"                XXXXXXXX++++++++XXXXXXXXooooooooOOOOOOOO++++++++++++++++++++++++OOOOOOOOooooooooXXXXXXXXXXXXXXXX                ",
"                XXXXXXXX++++++++XXXXXXXXooooooooOOOOOOOO++++++++++++++++++++++++OOOOOOOOooooooooXXXXXXXXXXXXXXXX                ",
"        XXXXXXXXXXXXXXXXXXXXXXXXXXXXXXXXooooooooOOOOOOOOXXXXXXXX++++++++++++++++OOOOOOOOOOOOOOOOooooooooXXXXXXXXXXXXXXXX        ",
"        XXXXXXXXXXXXXXXXXXXXXXXXXXXXXXXXooooooooOOOOOOOOXXXXXXXX++++++++++++++++OOOOOOOOOOOOOOOOooooooooXXXXXXXXXXXXXXXX        ",
"        XXXXXXXXXXXXXXXXXXXXXXXXXXXXXXXXooooooooOOOOOOOOXXXXXXXX++++++++++++++++OOOOOOOOOOOOOOOOooooooooXXXXXXXXXXXXXXXX        ",
"        XXXXXXXXXXXXXXXXXXXXXXXXXXXXXXXXooooooooOOOOOOOOXXXXXXXX++++++++++++++++OOOOOOOOOOOOOOOOooooooooXXXXXXXXXXXXXXXX        ",
"        XXXXXXXXXXXXXXXXXXXXXXXXXXXXXXXXooooooooOOOOOOOOXXXXXXXX++++++++++++++++OOOOOOOOOOOOOOOOooooooooXXXXXXXXXXXXXXXX        ",
"        XXXXXXXXXXXXXXXXXXXXXXXXXXXXXXXXooooooooOOOOOOOOXXXXXXXX++++++++++++++++OOOOOOOOOOOOOOOOooooooooXXXXXXXXXXXXXXXX        ",
"        XXXXXXXXXXXXXXXXXXXXXXXXXXXXXXXXooooooooOOOOOOOOXXXXXXXX++++++++++++++++OOOOOOOOOOOOOOOOooooooooXXXXXXXXXXXXXXXX        ",
"        XXXXXXXXXXXXXXXXXXXXXXXXXXXXXXXXooooooooOOOOOOOOXXXXXXXX++++++++++++++++OOOOOOOOOOOOOOOOooooooooXXXXXXXXXXXXXXXX        ",
"                XXXXXXXXXXXXXXXXOOOOOOOOOOOOOOOOOOOOOOOOXXXXXXXXXXXXXXXXXXXXXXXXOOOOOOOOOOOOOOOOOOOOOOOOOOOOOOOO                ",
"                XXXXXXXXXXXXXXXXOOOOOOOOOOOOOOOOOOOOOOOOXXXXXXXXXXXXXXXXXXXXXXXXOOOOOOOOOOOOOOOOOOOOOOOOOOOOOOOO                ",
"                XXXXXXXXXXXXXXXXOOOOOOOOOOOOOOOOOOOOOOOOXXXXXXXXXXXXXXXXXXXXXXXXOOOOOOOOOOOOOOOOOOOOOOOOOOOOOOOO                ",
"                XXXXXXXXXXXXXXXXOOOOOOOOOOOOOOOOOOOOOOOOXXXXXXXXXXXXXXXXXXXXXXXXOOOOOOOOOOOOOOOOOOOOOOOOOOOOOOOO                ",
"                XXXXXXXXXXXXXXXXOOOOOOOOOOOOOOOOOOOOOOOOXXXXXXXXXXXXXXXXXXXXXXXXOOOOOOOOOOOOOOOOOOOOOOOOOOOOOOOO                ",
"                XXXXXXXXXXXXXXXXOOOOOOOOOOOOOOOOOOOOOOOOXXXXXXXXXXXXXXXXXXXXXXXXOOOOOOOOOOOOOOOOOOOOOOOOOOOOOOOO                ",
"                XXXXXXXXXXXXXXXXOOOOOOOOOOOOOOOOOOOOOOOOXXXXXXXXXXXXXXXXXXXXXXXXOOOOOOOOOOOOOOOOOOOOOOOOOOOOOOOO                ",
"                XXXXXXXXXXXXXXXXOOOOOOOOOOOOOOOOOOOOOOOOXXXXXXXXXXXXXXXXXXXXXXXXOOOOOOOOOOOOOOOOOOOOOOOOOOOOOOOO                ",
"                        XXXXXXXXXXXXXXXXXXXXXXXXXXXXXXXXXXXXXXXXXXXXXXXXXXXXXXXXXXXXXXXXXXXXXXXXXXXXXXXX                        ",
"                        XXXXXXXXXXXXXXXXXXXXXXXXXXXXXXXXXXXXXXXXXXXXXXXXXXXXXXXXXXXXXXXXXXXXXXXXXXXXXXXX                        ",
"                        XXXXXXXXXXXXXXXXXXXXXXXXXXXXXXXXXXXXXXXXXXXXXXXXXXXXXXXXXXXXXXXXXXXXXXXXXXXXXXXX                        ",
"                        XXXXXXXXXXXXXXXXXXXXXXXXXXXXXXXXXXXXXXXXXXXXXXXXXXXXXXXXXXXXXXXXXXXXXXXXXXXXXXXX                        ",
"                        XXXXXXXXXXXXXXXXXXXXXXXXXXXXXXXXXXXXXXXXXXXXXXXXXXXXXXXXXXXXXXXXXXXXXXXXXXXXXXXX                        ",
"                        XXXXXXXXXXXXXXXXXXXXXXXXXXXXXXXXXXXXXXXXXXXXXXXXXXXXXXXXXXXXXXXXXXXXXXXXXXXXXXXX                        ",
"                        XXXXXXXXXXXXXXXXXXXXXXXXXXXXXXXXXXXXXXXXXXXXXXXXXXXXXXXXXXXXXXXXXXXXXXXXXXXXXXXX                        ",
"                        XXXXXXXXXXXXXXXXXXXXXXXXXXXXXXXXXXXXXXXXXXXXXXXXXXXXXXXXXXXXXXXXXXXXXXXXXXXXXXXX                        "
};
