/* XPM */
static char *enemy3[] = {
/* columns rows colors chars-per-pixel */
"128 128 6 1 ",
"  c #09020E",
". c #09020E",
"X c #1E122D",
"o c #51487A",
"O c #7A80A5",
"+ c #A6ADC3",
/* pixels */
"                                                                                                                                ",
"                                                                                                                                ",
"                                                                                                                                ",
"                                                                                                                                ",
"                                                                                                                                ",
"                                                                                                                                ",
"                                                                                                                                ",
"                                                                                                                                ",
"                                                                                                                                ",
"                                                                                                                                ",
"                                                                                                                                ",
"                                                                                                                                ",
"                                                                                                                                ",
"                                                                                                                                ",
"                                                                                                                                ",
"                                                                                                                                ",
"                                                                                                                                ",
"                                                                                                                                ",
"                                                                                                                                ",
"                                                                                                                                ",
"                                                                                                                                ",
"                                                                                                                                ",
"                                                                                                                                ",
"                                                                                                                                ",
"                        ++++++++                        OOOOOOOOOOOOOOOOOOOOOOOOOOOOOOOO                                        ",
"                        ++++++++                        OOOOOOOOOOOOOOOOOOOOOOOOOOOOOOOO                                        ",
"                        ++++++++                        OOOOOOOOOOOOOOOOOOOOOOOOOOOOOOOO                                        ",
"                        ++++++++                        OOOOOOOOOOOOOOOOOOOOOOOOOOOOOOOO                                        ",
"                        ++++++++                        OOOOOOOOOOOOOOOOOOOOOOOOOOOOOOOO                                        ",
"                        ++++++++                        OOOOOOOOOOOOOOOOOOOOOOOOOOOOOOOO                                        ",
"                        ++++++++                        OOOOOOOOOOOOOOOOOOOOOOOOOOOOOOOO                                        ",
"                        ++++++++                        OOOOOOOOOOOOOOOOOOOOOOOOOOOOOOOO                                        ",
"                ++++++++oooooooo                OOOOOOOO........................OOOOOOOOOOOOOOOOOOOOOOOO                        ",
"                ++++++++oooooooo                OOOOOOOO........................OOOOOOOOOOOOOOOOOOOOOOOO                        ",
"                ++++++++oooooooo                OOOOOOOO........................OOOOOOOOOOOOOOOOOOOOOOOO                        ",
"                ++++++++oooooooo                OOOOOOOO........................OOOOOOOOOOOOOOOOOOOOOOOO                        ",
"                ++++++++oooooooo                OOOOOOOO........................OOOOOOOOOOOOOOOOOOOOOOOO                        ",
"                ++++++++oooooooo                OOOOOOOO........................OOOOOOOOOOOOOOOOOOOOOOOO                        ",
"                ++++++++oooooooo                OOOOOOOO........................OOOOOOOOOOOOOOOOOOOOOOOO                        ",
"                ++++++++oooooooo                OOOOOOOO........................OOOOOOOOOOOOOOOOOOOOOOOO                        ",
"        ++++++++        oooooooo        OOOOOOOO........................................OOOOOOOOOOOOOOOOOOOOOOOO                ",
"        ++++++++        oooooooo        OOOOOOOO........................................OOOOOOOOOOOOOOOOOOOOOOOO                ",
"        ++++++++        oooooooo        OOOOOOOO........................................OOOOOOOOOOOOOOOOOOOOOOOO                ",
"        ++++++++        oooooooo        OOOOOOOO........................................OOOOOOOOOOOOOOOOOOOOOOOO                ",
"        ++++++++        oooooooo        OOOOOOOO........................................OOOOOOOOOOOOOOOOOOOOOOOO                ",
"        ++++++++        oooooooo        OOOOOOOO........................................OOOOOOOOOOOOOOOOOOOOOOOO                ",
"        ++++++++        oooooooo        OOOOOOOO........................................OOOOOOOOOOOOOOOOOOOOOOOO                ",
"        ++++++++        oooooooo        OOOOOOOO........................................OOOOOOOOOOOOOOOOOOOOOOOO                ",
"        ++++++++        oooooooo        OOOOOOOO........................................OOOOOOOOOOOOOOOOoooooooo                ",
"        ++++++++        oooooooo        OOOOOOOO........................................OOOOOOOOOOOOOOOOoooooooo                ",
"        ++++++++        oooooooo        OOOOOOOO........................................OOOOOOOOOOOOOOOOoooooooo                ",
"        ++++++++        oooooooo        OOOOOOOO........................................OOOOOOOOOOOOOOOOoooooooo                ",
"        ++++++++        oooooooo        OOOOOOOO........................................OOOOOOOOOOOOOOOOoooooooo                ",
"        ++++++++        oooooooo        OOOOOOOO........................................OOOOOOOOOOOOOOOOoooooooo                ",
"        ++++++++        oooooooo        OOOOOOOO........................................OOOOOOOOOOOOOOOOoooooooo                ",
"        ++++++++        oooooooo        OOOOOOOO........................................OOOOOOOOOOOOOOOOoooooooo                ",
"        ++++++++        oooooooo        OOOOOOOO++++++++................++++++++........OOOOOOOOoooooooo                        ",
"        ++++++++        oooooooo        OOOOOOOO++++++++................++++++++........OOOOOOOOoooooooo                        ",
"        ++++++++        oooooooo        OOOOOOOO++++++++................++++++++........OOOOOOOOoooooooo                        ",
"        ++++++++        oooooooo        OOOOOOOO++++++++................++++++++........OOOOOOOOoooooooo                        ",
"        ++++++++        oooooooo        OOOOOOOO++++++++................++++++++........OOOOOOOOoooooooo                        ",
"        ++++++++        oooooooo        OOOOOOOO++++++++................++++++++........OOOOOOOOoooooooo                        ",
"        ++++++++        oooooooo        OOOOOOOO++++++++................++++++++........OOOOOOOOoooooooo                        ",
"        ++++++++        oooooooo        OOOOOOOO++++++++................++++++++........OOOOOOOOoooooooo                        ",
"        OOOOOOOOOOOOOOOOoooooooo        OOOOOOOO........................................OOOOOOOOoooooooo                        ",
"        OOOOOOOOOOOOOOOOoooooooo        OOOOOOOO........................................OOOOOOOOoooooooo                        ",
"        OOOOOOOOOOOOOOOOoooooooo        OOOOOOOO........................................OOOOOOOOoooooooo                        ",
"        OOOOOOOOOOOOOOOOoooooooo        OOOOOOOO........................................OOOOOOOOoooooooo                        ",
"        OOOOOOOOOOOOOOOOoooooooo        OOOOOOOO........................................OOOOOOOOoooooooo                        ",
"        OOOOOOOOOOOOOOOOoooooooo        OOOOOOOO........................................OOOOOOOOoooooooo                        ",
"        OOOOOOOOOOOOOOOOoooooooo        OOOOOOOO........................................OOOOOOOOoooooooo                        ",
"        OOOOOOOOOOOOOOOOoooooooo        OOOOOOOO........................................OOOOOOOOoooooooo                        ",
"        OOOOOOOOOOOOOOOOoooooooo        OOOOOOOO................................OOOOOOOOoooooooo        ++++++++++++++++        ",
"        OOOOOOOOOOOOOOOOoooooooo        OOOOOOOO................................OOOOOOOOoooooooo        ++++++++++++++++        ",
"        OOOOOOOOOOOOOOOOoooooooo        OOOOOOOO................................OOOOOOOOoooooooo        ++++++++++++++++        ",
"        OOOOOOOOOOOOOOOOoooooooo        OOOOOOOO................................OOOOOOOOoooooooo        ++++++++++++++++        ",
"        OOOOOOOOOOOOOOOOoooooooo        OOOOOOOO................................OOOOOOOOoooooooo        ++++++++++++++++        ",
"        OOOOOOOOOOOOOOOOoooooooo        OOOOOOOO................................OOOOOOOOoooooooo        ++++++++++++++++        ",
"        OOOOOOOOOOOOOOOOoooooooo        OOOOOOOO................................OOOOOOOOoooooooo        ++++++++++++++++        ",
"        OOOOOOOOOOOOOOOOoooooooo        OOOOOOOO................................OOOOOOOOoooooooo        ++++++++++++++++        ",
"        ++++++++        oooooooo                OOOOOOOOOOOOOOOOOOOOOOOOOOOOOOOOoooooooo        ++++++++++++++++++++++++        ",
"        ++++++++        oooooooo                OOOOOOOOOOOOOOOOOOOOOOOOOOOOOOOOoooooooo        ++++++++++++++++++++++++        ",
"        ++++++++        oooooooo                OOOOOOOOOOOOOOOOOOOOOOOOOOOOOOOOoooooooo        ++++++++++++++++++++++++        ",
"        ++++++++        oooooooo                OOOOOOOOOOOOOOOOOOOOOOOOOOOOOOOOoooooooo        ++++++++++++++++++++++++        ",
"        ++++++++        oooooooo                OOOOOOOOOOOOOOOOOOOOOOOOOOOOOOOOoooooooo        ++++++++++++++++++++++++        ",
"        ++++++++        oooooooo                OOOOOOOOOOOOOOOOOOOOOOOOOOOOOOOOoooooooo        ++++++++++++++++++++++++        ",
"        ++++++++        oooooooo                OOOOOOOOOOOOOOOOOOOOOOOOOOOOOOOOoooooooo        ++++++++++++++++++++++++        ",
"        ++++++++        oooooooo                OOOOOOOOOOOOOOOOOOOOOOOOOOOOOOOOoooooooo        ++++++++++++++++++++++++        ",
"        ++++++++        ooooooooXXXXXXXXXXXXXXXXOOOOOOOOOOOOOOOOOOOOOOOOOOOOOOOOOOOOOOOOXXXXXXXX++++++++++++++++++++++++        ",
"        ++++++++        ooooooooXXXXXXXXXXXXXXXXOOOOOOOOOOOOOOOOOOOOOOOOOOOOOOOOOOOOOOOOXXXXXXXX++++++++++++++++++++++++        ",
"        ++++++++        ooooooooXXXXXXXXXXXXXXXXOOOOOOOOOOOOOOOOOOOOOOOOOOOOOOOOOOOOOOOOXXXXXXXX++++++++++++++++++++++++        ",
"        ++++++++        ooooooooXXXXXXXXXXXXXXXXOOOOOOOOOOOOOOOOOOOOOOOOOOOOOOOOOOOOOOOOXXXXXXXX++++++++++++++++++++++++        ",
"        ++++++++        ooooooooXXXXXXXXXXXXXXXXOOOOOOOOOOOOOOOOOOOOOOOOOOOOOOOOOOOOOOOOXXXXXXXX++++++++++++++++++++++++        ",
"        ++++++++        ooooooooXXXXXXXXXXXXXXXXOOOOOOOOOOOOOOOOOOOOOOOOOOOOOOOOOOOOOOOOXXXXXXXX++++++++++++++++++++++++        ",
"        ++++++++        ooooooooXXXXXXXXXXXXXXXXOOOOOOOOOOOOOOOOOOOOOOOOOOOOOOOOOOOOOOOOXXXXXXXX++++++++++++++++++++++++        ",
"        ++++++++        ooooooooXXXXXXXXXXXXXXXXOOOOOOOOOOOOOOOOOOOOOOOOOOOOOOOOOOOOOOOOXXXXXXXX++++++++++++++++++++++++        ",
"                ++++++++ooooooooXXXXXXXXooooooooOOOOOOOO++++++++++++++++++++++++OOOOOOOOooooooooXXXXXXXXXXXXXXXX                ",
"                ++++++++ooooooooXXXXXXXXooooooooOOOOOOOO++++++++++++++++++++++++OOOOOOOOooooooooXXXXXXXXXXXXXXXX                ",
"                ++++++++ooooooooXXXXXXXXooooooooOOOOOOOO++++++++++++++++++++++++OOOOOOOOooooooooXXXXXXXXXXXXXXXX                ",
"                ++++++++ooooooooXXXXXXXXooooooooOOOOOOOO++++++++++++++++++++++++OOOOOOOOooooooooXXXXXXXXXXXXXXXX                ",
"                ++++++++ooooooooXXXXXXXXooooooooOOOOOOOO++++++++++++++++++++++++OOOOOOOOooooooooXXXXXXXXXXXXXXXX                ",
"                ++++++++ooooooooXXXXXXXXooooooooOOOOOOOO++++++++++++++++++++++++OOOOOOOOooooooooXXXXXXXXXXXXXXXX                ",
"                ++++++++ooooooooXXXXXXXXooooooooOOOOOOOO++++++++++++++++++++++++OOOOOOOOooooooooXXXXXXXXXXXXXXXX                ",
"                ++++++++ooooooooXXXXXXXXooooooooOOOOOOOO++++++++++++++++++++++++OOOOOOOOooooooooXXXXXXXXXXXXXXXX                ",
"        XXXXXXXXXXXXXXXX++++++++XXXXXXXXooooooooOOOOOOOOXXXXXXXX++++++++++++++++OOOOOOOOOOOOOOOOooooooooXXXXXXXXXXXXXXXX        ",
"        XXXXXXXXXXXXXXXX++++++++XXXXXXXXooooooooOOOOOOOOXXXXXXXX++++++++++++++++OOOOOOOOOOOOOOOOooooooooXXXXXXXXXXXXXXXX        ",
"        XXXXXXXXXXXXXXXX++++++++XXXXXXXXooooooooOOOOOOOOXXXXXXXX++++++++++++++++OOOOOOOOOOOOOOOOooooooooXXXXXXXXXXXXXXXX        ",
"        XXXXXXXXXXXXXXXX++++++++XXXXXXXXooooooooOOOOOOOOXXXXXXXX++++++++++++++++OOOOOOOOOOOOOOOOooooooooXXXXXXXXXXXXXXXX        ",
"        XXXXXXXXXXXXXXXX++++++++XXXXXXXXooooooooOOOOOOOOXXXXXXXX++++++++++++++++OOOOOOOOOOOOOOOOooooooooXXXXXXXXXXXXXXXX        ",
"        XXXXXXXXXXXXXXXX++++++++XXXXXXXXooooooooOOOOOOOOXXXXXXXX++++++++++++++++OOOOOOOOOOOOOOOOooooooooXXXXXXXXXXXXXXXX        ",
"        XXXXXXXXXXXXXXXX++++++++XXXXXXXXooooooooOOOOOOOOXXXXXXXX++++++++++++++++OOOOOOOOOOOOOOOOooooooooXXXXXXXXXXXXXXXX        ",
"        XXXXXXXXXXXXXXXX++++++++XXXXXXXXooooooooOOOOOOOOXXXXXXXX++++++++++++++++OOOOOOOOOOOOOOOOooooooooXXXXXXXXXXXXXXXX        ",
"                XXXXXXXXXXXXXXXXOOOOOOOOOOOOOOOOOOOOOOOOXXXXXXXXXXXXXXXXXXXXXXXXOOOOOOOOOOOOOOOOOOOOOOOOOOOOOOOO                ",
"                XXXXXXXXXXXXXXXXOOOOOOOOOOOOOOOOOOOOOOOOXXXXXXXXXXXXXXXXXXXXXXXXOOOOOOOOOOOOOOOOOOOOOOOOOOOOOOOO                ",
"                XXXXXXXXXXXXXXXXOOOOOOOOOOOOOOOOOOOOOOOOXXXXXXXXXXXXXXXXXXXXXXXXOOOOOOOOOOOOOOOOOOOOOOOOOOOOOOOO                ",
"                XXXXXXXXXXXXXXXXOOOOOOOOOOOOOOOOOOOOOOOOXXXXXXXXXXXXXXXXXXXXXXXXOOOOOOOOOOOOOOOOOOOOOOOOOOOOOOOO                ",
"                XXXXXXXXXXXXXXXXOOOOOOOOOOOOOOOOOOOOOOOOXXXXXXXXXXXXXXXXXXXXXXXXOOOOOOOOOOOOOOOOOOOOOOOOOOOOOOOO                ",
"                XXXXXXXXXXXXXXXXOOOOOOOOOOOOOOOOOOOOOOOOXXXXXXXXXXXXXXXXXXXXXXXXOOOOOOOOOOOOOOOOOOOOOOOOOOOOOOOO                ",
"                XXXXXXXXXXXXXXXXOOOOOOOOOOOOOOOOOOOOOOOOXXXXXXXXXXXXXXXXXXXXXXXXOOOOOOOOOOOOOOOOOOOOOOOOOOOOOOOO                ",
"                XXXXXXXXXXXXXXXXOOOOOOOOOOOOOOOOOOOOOOOOXXXXXXXXXXXXXXXXXXXXXXXXOOOOOOOOOOOOOOOOOOOOOOOOOOOOOOOO                ",
"                        XXXXXXXXXXXXXXXXXXXXXXXXXXXXXXXXXXXXXXXXXXXXXXXXXXXXXXXXXXXXXXXXXXXXXXXXXXXXXXXX                        ",
"                        XXXXXXXXXXXXXXXXXXXXXXXXXXXXXXXXXXXXXXXXXXXXXXXXXXXXXXXXXXXXXXXXXXXXXXXXXXXXXXXX                        ",
"                        XXXXXXXXXXXXXXXXXXXXXXXXXXXXXXXXXXXXXXXXXXXXXXXXXXXXXXXXXXXXXXXXXXXXXXXXXXXXXXXX                        ",
"                        XXXXXXXXXXXXXXXXXXXXXXXXXXXXXXXXXXXXXXXXXXXXXXXXXXXXXXXXXXXXXXXXXXXXXXXXXXXXXXXX                        ",
"                        XXXXXXXXXXXXXXXXXXXXXXXXXXXXXXXXXXXXXXXXXXXXXXXXXXXXXXXXXXXXXXXXXXXXXXXXXXXXXXXX                        ",
"                        XXXXXXXXXXXXXXXXXXXXXXXXXXXXXXXXXXXXXXXXXXXXXXXXXXXXXXXXXXXXXXXXXXXXXXXXXXXXXXXX                        ",
"                        XXXXXXXXXXXXXXXXXXXXXXXXXXXXXXXXXXXXXXXXXXXXXXXXXXXXXXXXXXXXXXXXXXXXXXXXXXXXXXXX                        ",
"                        XXXXXXXXXXXXXXXXXXXXXXXXXXXXXXXXXXXXXXXXXXXXXXXXXXXXXXXXXXXXXXXXXXXXXXXXXXXXXXXX                        "
};
