/* XPM */
static char *exit_open[] = {
/* columns rows colors chars-per-pixel */
"128 128 5 1 ",
"  c #09020E",
". c #1E122D",
"X c #2B1D3C",
"o c #4B3551",
"O c #51487A",
/* pixels */
"        XXXXXXXXXXXXXXXX                                                                                XXXXXXXXXXXXXXXX        ",
"        XXXXXXXXXXXXXXXX                                                                                XXXXXXXXXXXXXXXX        ",
"        XXXXXXXXXXXXXXXX                                                                                XXXXXXXXXXXXXXXX        ",
"        XXXXXXXXXXXXXXXX                                                                                XXXXXXXXXXXXXXXX        ",
"        XXXXXXXXXXXXXXXX                                                                                XXXXXXXXXXXXXXXX        ",
"        XXXXXXXXXXXXXXXX                                                                                XXXXXXXXXXXXXXXX        ",
"        XXXXXXXXXXXXXXXX                                                                                XXXXXXXXXXXXXXXX        ",
"        XXXXXXXXXXXXXXXX                                                                                XXXXXXXXXXXXXXXX        ",
"        XXXXXXXXooooooooOOOOOOOOOOOOOOOOOOOOOOOOOOOOOOOOOOOOOOOOOOOOOOOOOOOOOOOOOOOOOOOOOOOOOOOOOOOOOOOOooooooooXXXXXXXX        ",
"        XXXXXXXXooooooooOOOOOOOOOOOOOOOOOOOOOOOOOOOOOOOOOOOOOOOOOOOOOOOOOOOOOOOOOOOOOOOOOOOOOOOOOOOOOOOOooooooooXXXXXXXX        ",
"        XXXXXXXXooooooooOOOOOOOOOOOOOOOOOOOOOOOOOOOOOOOOOOOOOOOOOOOOOOOOOOOOOOOOOOOOOOOOOOOOOOOOOOOOOOOOooooooooXXXXXXXX        ",
"        XXXXXXXXooooooooOOOOOOOOOOOOOOOOOOOOOOOOOOOOOOOOOOOOOOOOOOOOOOOOOOOOOOOOOOOOOOOOOOOOOOOOOOOOOOOOooooooooXXXXXXXX        ",
"        XXXXXXXXooooooooOOOOOOOOOOOOOOOOOOOOOOOOOOOOOOOOOOOOOOOOOOOOOOOOOOOOOOOOOOOOOOOOOOOOOOOOOOOOOOOOooooooooXXXXXXXX        ",
"        XXXXXXXXooooooooOOOOOOOOOOOOOOOOOOOOOOOOOOOOOOOOOOOOOOOOOOOOOOOOOOOOOOOOOOOOOOOOOOOOOOOOOOOOOOOOooooooooXXXXXXXX        ",
"        XXXXXXXXooooooooOOOOOOOOOOOOOOOOOOOOOOOOOOOOOOOOOOOOOOOOOOOOOOOOOOOOOOOOOOOOOOOOOOOOOOOOOOOOOOOOooooooooXXXXXXXX        ",
"        XXXXXXXXooooooooOOOOOOOOOOOOOOOOOOOOOOOOOOOOOOOOOOOOOOOOOOOOOOOOOOOOOOOOOOOOOOOOOOOOOOOOOOOOOOOOooooooooXXXXXXXX        ",
"        XXXXXXXXooooooooooooooooooooooooooooooooooooooooooooooooooooooooooooooooooooooooooooooooooooooooooooooooXXXXXXXX        ",
"        XXXXXXXXooooooooooooooooooooooooooooooooooooooooooooooooooooooooooooooooooooooooooooooooooooooooooooooooXXXXXXXX        ",
"        XXXXXXXXooooooooooooooooooooooooooooooooooooooooooooooooooooooooooooooooooooooooooooooooooooooooooooooooXXXXXXXX        ",
"        XXXXXXXXooooooooooooooooooooooooooooooooooooooooooooooooooooooooooooooooooooooooooooooooooooooooooooooooXXXXXXXX        ",
"        XXXXXXXXooooooooooooooooooooooooooooooooooooooooooooooooooooooooooooooooooooooooooooooooooooooooooooooooXXXXXXXX        ",
"        XXXXXXXXooooooooooooooooooooooooooooooooooooooooooooooooooooooooooooooooooooooooooooooooooooooooooooooooXXXXXXXX        ",
"        XXXXXXXXooooooooooooooooooooooooooooooooooooooooooooooooooooooooooooooooooooooooooooooooooooooooooooooooXXXXXXXX        ",
"        XXXXXXXXooooooooooooooooooooooooooooooooooooooooooooooooooooooooooooooooooooooooooooooooooooooooooooooooXXXXXXXX        ",
"        XXXXXXXXXXXXXXXX................................................................................XXXXXXXXXXXXXXXX        ",
"        XXXXXXXXXXXXXXXX................................................................................XXXXXXXXXXXXXXXX        ",
"        XXXXXXXXXXXXXXXX................................................................................XXXXXXXXXXXXXXXX        ",
"        XXXXXXXXXXXXXXXX................................................................................XXXXXXXXXXXXXXXX        ",
"        XXXXXXXXXXXXXXXX................................................................................XXXXXXXXXXXXXXXX        ",
"        XXXXXXXXXXXXXXXX................................................................................XXXXXXXXXXXXXXXX        ",
"        XXXXXXXXXXXXXXXX................................................................................XXXXXXXXXXXXXXXX        ",
"        XXXXXXXXXXXXXXXX................................................................................XXXXXXXXXXXXXXXX        ",
"        XXXXXXXXXXXXXXXX                                                                                XXXXXXXXXXXXXXXX        ",
"        XXXXXXXXXXXXXXXX                                                                                XXXXXXXXXXXXXXXX        ",
"        XXXXXXXXXXXXXXXX                                                                                XXXXXXXXXXXXXXXX        ",
"        XXXXXXXXXXXXXXXX                                                                                XXXXXXXXXXXXXXXX        ",
"        XXXXXXXXXXXXXXXX                                                                                XXXXXXXXXXXXXXXX        ",
"        XXXXXXXXXXXXXXXX                                                                                XXXXXXXXXXXXXXXX        ",
"        XXXXXXXXXXXXXXXX                                                                                XXXXXXXXXXXXXXXX        ",
"        XXXXXXXXXXXXXXXX                                                                                XXXXXXXXXXXXXXXX        ",
"        XXXXXXXXooooooooOOOOOOOOOOOOOOOOOOOOOOOOOOOOOOOOOOOOOOOOOOOOOOOOOOOOOOOOOOOOOOOOOOOOOOOOOOOOOOOOooooooooXXXXXXXX        ",
"        XXXXXXXXooooooooOOOOOOOOOOOOOOOOOOOOOOOOOOOOOOOOOOOOOOOOOOOOOOOOOOOOOOOOOOOOOOOOOOOOOOOOOOOOOOOOooooooooXXXXXXXX        ",
"        XXXXXXXXooooooooOOOOOOOOOOOOOOOOOOOOOOOOOOOOOOOOOOOOOOOOOOOOOOOOOOOOOOOOOOOOOOOOOOOOOOOOOOOOOOOOooooooooXXXXXXXX        ",
"        XXXXXXXXooooooooOOOOOOOOOOOOOOOOOOOOOOOOOOOOOOOOOOOOOOOOOOOOOOOOOOOOOOOOOOOOOOOOOOOOOOOOOOOOOOOOooooooooXXXXXXXX        ",
"        XXXXXXXXooooooooOOOOOOOOOOOOOOOOOOOOOOOOOOOOOOOOOOOOOOOOOOOOOOOOOOOOOOOOOOOOOOOOOOOOOOOOOOOOOOOOooooooooXXXXXXXX        ",
"        XXXXXXXXooooooooOOOOOOOOOOOOOOOOOOOOOOOOOOOOOOOOOOOOOOOOOOOOOOOOOOOOOOOOOOOOOOOOOOOOOOOOOOOOOOOOooooooooXXXXXXXX        ",
"        XXXXXXXXooooooooOOOOOOOOOOOOOOOOOOOOOOOOOOOOOOOOOOOOOOOOOOOOOOOOOOOOOOOOOOOOOOOOOOOOOOOOOOOOOOOOooooooooXXXXXXXX        ",
"        XXXXXXXXooooooooOOOOOOOOOOOOOOOOOOOOOOOOOOOOOOOOOOOOOOOOOOOOOOOOOOOOOOOOOOOOOOOOOOOOOOOOOOOOOOOOooooooooXXXXXXXX        ",
"        XXXXXXXXooooooooooooooooooooooooooooooooooooooooooooooooooooooooooooooooooooooooooooooooooooooooooooooooXXXXXXXX        ",
"        XXXXXXXXooooooooooooooooooooooooooooooooooooooooooooooooooooooooooooooooooooooooooooooooooooooooooooooooXXXXXXXX        ",
"        XXXXXXXXooooooooooooooooooooooooooooooooooooooooooooooooooooooooooooooooooooooooooooooooooooooooooooooooXXXXXXXX        ",
"        XXXXXXXXooooooooooooooooooooooooooooooooooooooooooooooooooooooooooooooooooooooooooooooooooooooooooooooooXXXXXXXX        ",
"        XXXXXXXXooooooooooooooooooooooooooooooooooooooooooooooooooooooooooooooooooooooooooooooooooooooooooooooooXXXXXXXX        ",
"        XXXXXXXXooooooooooooooooooooooooooooooooooooooooooooooooooooooooooooooooooooooooooooooooooooooooooooooooXXXXXXXX        ",
"        XXXXXXXXooooooooooooooooooooooooooooooooooooooooooooooooooooooooooooooooooooooooooooooooooooooooooooooooXXXXXXXX        ",
"        XXXXXXXXooooooooooooooooooooooooooooooooooooooooooooooooooooooooooooooooooooooooooooooooooooooooooooooooXXXXXXXX        ",
"        XXXXXXXXXXXXXXXX................................................................................XXXXXXXXXXXXXXXX        ",
"        XXXXXXXXXXXXXXXX................................................................................XXXXXXXXXXXXXXXX        ",
"        XXXXXXXXXXXXXXXX................................................................................XXXXXXXXXXXXXXXX        ",
"        XXXXXXXXXXXXXXXX................................................................................XXXXXXXXXXXXXXXX        ",
"        XXXXXXXXXXXXXXXX................................................................................XXXXXXXXXXXXXXXX        ",
"        XXXXXXXXXXXXXXXX................................................................................XXXXXXXXXXXXXXXX        ",
"        XXXXXXXXXXXXXXXX................................................................................XXXXXXXXXXXXXXXX        ",
"        XXXXXXXXXXXXXXXX................................................................................XXXXXXXXXXXXXXXX        ",
"        XXXXXXXXXXXXXXXX................................................................................XXXXXXXXXXXXXXXX        ",
"        XXXXXXXXXXXXXXXX................................................................................XXXXXXXXXXXXXXXX        ",
"        XXXXXXXXXXXXXXXX................................................................................XXXXXXXXXXXXXXXX        ",
"        XXXXXXXXXXXXXXXX................................................................................XXXXXXXXXXXXXXXX        ",
"        XXXXXXXXXXXXXXXX................................................................................XXXXXXXXXXXXXXXX        ",
"        XXXXXXXXXXXXXXXX................................................................................XXXXXXXXXXXXXXXX        ",
"        XXXXXXXXXXXXXXXX................................................................................XXXXXXXXXXXXXXXX        ",
"        XXXXXXXXXXXXXXXX................................................................................XXXXXXXXXXXXXXXX        ",
"        XXXXXXXXooooooooOOOOOOOOOOOOOOOOOOOOOOOOOOOOOOOOOOOOOOOOOOOOOOOOOOOOOOOOOOOOOOOOOOOOOOOOOOOOOOOOooooooooXXXXXXXX        ",
"        XXXXXXXXooooooooOOOOOOOOOOOOOOOOOOOOOOOOOOOOOOOOOOOOOOOOOOOOOOOOOOOOOOOOOOOOOOOOOOOOOOOOOOOOOOOOooooooooXXXXXXXX        ",
"        XXXXXXXXooooooooOOOOOOOOOOOOOOOOOOOOOOOOOOOOOOOOOOOOOOOOOOOOOOOOOOOOOOOOOOOOOOOOOOOOOOOOOOOOOOOOooooooooXXXXXXXX        ",
"        XXXXXXXXooooooooOOOOOOOOOOOOOOOOOOOOOOOOOOOOOOOOOOOOOOOOOOOOOOOOOOOOOOOOOOOOOOOOOOOOOOOOOOOOOOOOooooooooXXXXXXXX        ",
"        XXXXXXXXooooooooOOOOOOOOOOOOOOOOOOOOOOOOOOOOOOOOOOOOOOOOOOOOOOOOOOOOOOOOOOOOOOOOOOOOOOOOOOOOOOOOooooooooXXXXXXXX        ",
"        XXXXXXXXooooooooOOOOOOOOOOOOOOOOOOOOOOOOOOOOOOOOOOOOOOOOOOOOOOOOOOOOOOOOOOOOOOOOOOOOOOOOOOOOOOOOooooooooXXXXXXXX        ",
"        XXXXXXXXooooooooOOOOOOOOOOOOOOOOOOOOOOOOOOOOOOOOOOOOOOOOOOOOOOOOOOOOOOOOOOOOOOOOOOOOOOOOOOOOOOOOooooooooXXXXXXXX        ",
"        XXXXXXXXooooooooOOOOOOOOOOOOOOOOOOOOOOOOOOOOOOOOOOOOOOOOOOOOOOOOOOOOOOOOOOOOOOOOOOOOOOOOOOOOOOOOooooooooXXXXXXXX        ",
"        XXXXXXXXooooooooooooooooooooooooooooooooooooooooooooooooooooooooooooooooooooooooooooooooooooooooooooooooXXXXXXXX        ",
"        XXXXXXXXooooooooooooooooooooooooooooooooooooooooooooooooooooooooooooooooooooooooooooooooooooooooooooooooXXXXXXXX        ",
"        XXXXXXXXooooooooooooooooooooooooooooooooooooooooooooooooooooooooooooooooooooooooooooooooooooooooooooooooXXXXXXXX        ",
"        XXXXXXXXooooooooooooooooooooooooooooooooooooooooooooooooooooooooooooooooooooooooooooooooooooooooooooooooXXXXXXXX        ",
"        XXXXXXXXooooooooooooooooooooooooooooooooooooooooooooooooooooooooooooooooooooooooooooooooooooooooooooooooXXXXXXXX        ",
"        XXXXXXXXooooooooooooooooooooooooooooooooooooooooooooooooooooooooooooooooooooooooooooooooooooooooooooooooXXXXXXXX        ",
"        XXXXXXXXooooooooooooooooooooooooooooooooooooooooooooooooooooooooooooooooooooooooooooooooooooooooooooooooXXXXXXXX        ",
"        XXXXXXXXooooooooooooooooooooooooooooooooooooooooooooooooooooooooooooooooooooooooooooooooooooooooooooooooXXXXXXXX        ",
"        XXXXXXXXXXXXXXXX................................................................................XXXXXXXXXXXXXXXX        ",
"        XXXXXXXXXXXXXXXX................................................................................XXXXXXXXXXXXXXXX        ",
"        XXXXXXXXXXXXXXXX................................................................................XXXXXXXXXXXXXXXX        ",
"        XXXXXXXXXXXXXXXX................................................................................XXXXXXXXXXXXXXXX        ",
"        XXXXXXXXXXXXXXXX................................................................................XXXXXXXXXXXXXXXX        ",
"        XXXXXXXXXXXXXXXX................................................................................XXXXXXXXXXXXXXXX        ",
"        XXXXXXXXXXXXXXXX................................................................................XXXXXXXXXXXXXXXX        ",
"        XXXXXXXXXXXXXXXX................................................................................XXXXXXXXXXXXXXXX        ",
"        XXXXXXXXXXXXXXXX................................................................................XXXXXXXXXXXXXXXX        ",
"        XXXXXXXXXXXXXXXX................................................................................XXXXXXXXXXXXXXXX        ",
"        XXXXXXXXXXXXXXXX................................................................................XXXXXXXXXXXXXXXX        ",
"        XXXXXXXXXXXXXXXX................................................................................XXXXXXXXXXXXXXXX        ",
"        XXXXXXXXXXXXXXXX................................................................................XXXXXXXXXXXXXXXX        ",
"        XXXXXXXXXXXXXXXX................................................................................XXXXXXXXXXXXXXXX        ",
"        XXXXXXXXXXXXXXXX................................................................................XXXXXXXXXXXXXXXX        ",
"        XXXXXXXXXXXXXXXX................................................................................XXXXXXXXXXXXXXXX        ",
"        XXXXXXXXXXXXXXXX                                                                                XXXXXXXXXXXXXXXX        ",
"        XXXXXXXXXXXXXXXX                                                                                XXXXXXXXXXXXXXXX        ",
"        XXXXXXXXXXXXXXXX                                                                                XXXXXXXXXXXXXXXX        ",
"        XXXXXXXXXXXXXXXX                                                                                XXXXXXXXXXXXXXXX        ",
"        XXXXXXXXXXXXXXXX                                                                                XXXXXXXXXXXXXXXX        ",
"        XXXXXXXXXXXXXXXX                                                                                XXXXXXXXXXXXXXXX        ",
"        XXXXXXXXXXXXXXXX                                                                                XXXXXXXXXXXXXXXX        ",
"        XXXXXXXXXXXXXXXX                                                                                XXXXXXXXXXXXXXXX        ",
"        XXXXXXXXooooooooOOOOOOOOOOOOOOOOOOOOOOOOOOOOOOOOOOOOOOOOOOOOOOOOOOOOOOOOOOOOOOOOOOOOOOOOOOOOOOOOooooooooXXXXXXXX        ",
"        XXXXXXXXooooooooOOOOOOOOOOOOOOOOOOOOOOOOOOOOOOOOOOOOOOOOOOOOOOOOOOOOOOOOOOOOOOOOOOOOOOOOOOOOOOOOooooooooXXXXXXXX        ",
"        XXXXXXXXooooooooOOOOOOOOOOOOOOOOOOOOOOOOOOOOOOOOOOOOOOOOOOOOOOOOOOOOOOOOOOOOOOOOOOOOOOOOOOOOOOOOooooooooXXXXXXXX        ",
"        XXXXXXXXooooooooOOOOOOOOOOOOOOOOOOOOOOOOOOOOOOOOOOOOOOOOOOOOOOOOOOOOOOOOOOOOOOOOOOOOOOOOOOOOOOOOooooooooXXXXXXXX        ",
"        XXXXXXXXooooooooOOOOOOOOOOOOOOOOOOOOOOOOOOOOOOOOOOOOOOOOOOOOOOOOOOOOOOOOOOOOOOOOOOOOOOOOOOOOOOOOooooooooXXXXXXXX        ",
"        XXXXXXXXooooooooOOOOOOOOOOOOOOOOOOOOOOOOOOOOOOOOOOOOOOOOOOOOOOOOOOOOOOOOOOOOOOOOOOOOOOOOOOOOOOOOooooooooXXXXXXXX        ",
"        XXXXXXXXooooooooOOOOOOOOOOOOOOOOOOOOOOOOOOOOOOOOOOOOOOOOOOOOOOOOOOOOOOOOOOOOOOOOOOOOOOOOOOOOOOOOooooooooXXXXXXXX        ",
"        XXXXXXXXooooooooOOOOOOOOOOOOOOOOOOOOOOOOOOOOOOOOOOOOOOOOOOOOOOOOOOOOOOOOOOOOOOOOOOOOOOOOOOOOOOOOooooooooXXXXXXXX        ",
"        XXXXXXXXooooooooooooooooooooooooooooooooooooooooooooooooooooooooooooooooooooooooooooooooooooooooooooooooXXXXXXXX        ",
"        XXXXXXXXooooooooooooooooooooooooooooooooooooooooooooooooooooooooooooooooooooooooooooooooooooooooooooooooXXXXXXXX        ",
"        XXXXXXXXooooooooooooooooooooooooooooooooooooooooooooooooooooooooooooooooooooooooooooooooooooooooooooooooXXXXXXXX        ",
"        XXXXXXXXooooooooooooooooooooooooooooooooooooooooooooooooooooooooooooooooooooooooooooooooooooooooooooooooXXXXXXXX        ",
"        XXXXXXXXooooooooooooooooooooooooooooooooooooooooooooooooooooooooooooooooooooooooooooooooooooooooooooooooXXXXXXXX        ",
"        XXXXXXXXooooooooooooooooooooooooooooooooooooooooooooooooooooooooooooooooooooooooooooooooooooooooooooooooXXXXXXXX        ",
"        XXXXXXXXooooooooooooooooooooooooooooooooooooooooooooooooooooooooooooooooooooooooooooooooooooooooooooooooXXXXXXXX        ",
"        XXXXXXXXooooooooooooooooooooooooooooooooooooooooooooooooooooooooooooooooooooooooooooooooooooooooooooooooXXXXXXXX        "
};
