/* XPM */
static char * exit_xpm[] = {
"128 128 19 1",
" 	c #447788",
".	c #004F43",
"+	c #11FFA7",
"@	c #002A26",
"#	c #003321",
"$	c #009485",
"%	c #002E30",
"&	c #001B1C",
"*	c #00630E",
"=	c #00AB92",
"-	c #00A375",
";	c #00A23D",
">	c #00CF5A",
",	c #418344",
"'	c #428445",
")	c #418445",
"!	c #418446",
"~	c #418345",
"{	c #428446",
"                ................                                                                ................                ",
"                ................                                                                ................                ",
"                ................                                                                ................                ",
"                ................                                                                ................                ",
"                ................                                                                ................                ",
"                ................                                                                ................                ",
"                ................                                                                ................                ",
"                ................                                                                ................                ",
"        ........++++++++++++++++@@@@@@@@........################################........@@@@@@@@++++++++++++++++........        ",
"        ........++++++++++++++++@@@@@@@@........################################........@@@@@@@@++++++++++++++++........        ",
"        ........++++++++++++++++@@@@@@@@........################################........@@@@@@@@++++++++++++++++........        ",
"        ........++++++++++++++++@@@@@@@@........################################........@@@@@@@@++++++++++++++++........        ",
"        ........++++++++++++++++@@@@@@@@........################################........@@@@@@@@++++++++++++++++........        ",
"        ........++++++++++++++++@@@@@@@@........################################........@@@@@@@@++++++++++++++++........        ",
"        ........++++++++++++++++@@@@@@@@........################################........@@@@@@@@++++++++++++++++........        ",
"        ........++++++++++++++++@@@@@@@@........################################........@@@@@@@@++++++++++++++++........        ",
"        @@@@@@@@$$$$$$$$$$$$$$$$@@@@@@@@########%%%%%%%%&&&&&&&&&&&&&&&&%%%%%%%%########@@@@@@@@$$$$$$$$$$$$$$$$@@@@@@@@        ",
"        @@@@@@@@$$$$$$$$$$$$$$$$@@@@@@@@########%%%%%%%%&&&&&&&&&&&&&&&&%%%%%%%%########@@@@@@@@$$$$$$$$$$$$$$$$@@@@@@@@        ",
"        @@@@@@@@$$$$$$$$$$$$$$$$@@@@@@@@########%%%%%%%%&&&&&&&&&&&&&&&&%%%%%%%%########@@@@@@@@$$$$$$$$$$$$$$$$@@@@@@@@        ",
"        @@@@@@@@$$$$$$$$$$$$$$$$@@@@@@@@########%%%%%%%%&&&&&&&&&&&&&&&&%%%%%%%%########@@@@@@@@$$$$$$$$$$$$$$$$@@@@@@@@        ",
"        @@@@@@@@$$$$$$$$$$$$$$$$@@@@@@@@########%%%%%%%%&&&&&&&&&&&&&&&&%%%%%%%%########@@@@@@@@$$$$$$$$$$$$$$$$@@@@@@@@        ",
"        @@@@@@@@$$$$$$$$$$$$$$$$@@@@@@@@########%%%%%%%%&&&&&&&&&&&&&&&&%%%%%%%%########@@@@@@@@$$$$$$$$$$$$$$$$@@@@@@@@        ",
"        @@@@@@@@$$$$$$$$$$$$$$$$@@@@@@@@########%%%%%%%%&&&&&&&&&&&&&&&&%%%%%%%%########@@@@@@@@$$$$$$$$$$$$$$$$@@@@@@@@        ",
"        @@@@@@@@$$$$$$$$$$$$$$$$@@@@@@@@########%%%%%%%%&&&&&&&&&&&&&&&&%%%%%%%%########@@@@@@@@$$$$$$$$$$$$$$$$@@@@@@@@        ",
"********========++++++++++++++++++++++++++++++++++++++++++++++++++++++++++++++++++++++++++++++++++++++++++++++++========********",
"********========++++++++++++++++++++++++++++++++++++++++++++++++++++++++++++++++++++++++++++++++++++++++++++++++========********",
"********========++++++++++++++++++++++++++++++++++++++++++++++++++++++++++++++++++++++++++++++++++++++++++++++++========********",
"********========++++++++++++++++++++++++++++++++++++++++++++++++++++++++++++++++++++++++++++++++++++++++++++++++========********",
"********========++++++++++++++++++++++++++++++++++++++++++++++++++++++++++++++++++++++++++++++++++++++++++++++++========********",
"********========++++++++++++++++++++++++++++++++++++++++++++++++++++++++++++++++++++++++++++++++++++++++++++++++========********",
"********========++++++++++++++++++++++++++++++++++++++++++++++++++++++++++++++++++++++++++++++++++++++++++++++++========********",
"********========++++++++++++++++++++++++++++++++++++++++++++++++++++++++++++++++++++++++++++++++++++++++++++++++========********",
"........$$$$$$$$$$$$$$$$********$$$$$$$$$$$$$$$$$$$$$$$$$$$$$$$$$$$$$$$$$$$$$$$$$$$$$$$$$$$$$$$$********$$$$$$$$$$$$$$$$........",
"........$$$$$$$$$$$$$$$$********$$$$$$$$$$$$$$$$$$$$$$$$$$$$$$$$$$$$$$$$$$$$$$$$$$$$$$$$$$$$$$$$********$$$$$$$$$$$$$$$$........",
"........$$$$$$$$$$$$$$$$********$$$$$$$$$$$$$$$$$$$$$$$$$$$$$$$$$$$$$$$$$$$$$$$$$$$$$$$$$$$$$$$$********$$$$$$$$$$$$$$$$........",
"........$$$$$$$$$$$$$$$$********$$$$$$$$$$$$$$$$$$$$$$$$$$$$$$$$$$$$$$$$$$$$$$$$$$$$$$$$$$$$$$$$********$$$$$$$$$$$$$$$$........",
"........$$$$$$$$$$$$$$$$********$$$$$$$$$$$$$$$$$$$$$$$$$$$$$$$$$$$$$$$$$$$$$$$$$$$$$$$$$$$$$$$$********$$$$$$$$$$$$$$$$........",
"........$$$$$$$$$$$$$$$$********$$$$$$$$$$$$$$$$$$$$$$$$$$$$$$$$$$$$$$$$$$$$$$$$$$$$$$$$$$$$$$$$********$$$$$$$$$$$$$$$$........",
"........$$$$$$$$$$$$$$$$********$$$$$$$$$$$$$$$$$$$$$$$$$$$$$$$$$$$$$$$$$$$$$$$$$$$$$$$$$$$$$$$$********$$$$$$$$$$$$$$$$........",
"........$$$$$$$$$$$$$$$$********$$$$$$$$$$$$$$$$$$$$$$$$$$$$$$$$$$$$$$$$$$$$$$$$$$$$$$$$$$$$$$$$********$$$$$$$$$$$$$$$$........",
"########@@@@@@@@@@@@@@@@@@@@@@@@@@@@@@@@@@@@@@@@@@@@@@@@@@@@@@@@@@@@@@@@@@@@@@@@@@@@@@@@@@@@@@@@@@@@@@@@@@@@@@@@@@@@@@@@########",
"########@@@@@@@@@@@@@@@@@@@@@@@@@@@@@@@@@@@@@@@@@@@@@@@@@@@@@@@@@@@@@@@@@@@@@@@@@@@@@@@@@@@@@@@@@@@@@@@@@@@@@@@@@@@@@@@@########",
"########@@@@@@@@@@@@@@@@@@@@@@@@@@@@@@@@@@@@@@@@@@@@@@@@@@@@@@@@@@@@@@@@@@@@@@@@@@@@@@@@@@@@@@@@@@@@@@@@@@@@@@@@@@@@@@@@########",
"########@@@@@@@@@@@@@@@@@@@@@@@@@@@@@@@@@@@@@@@@@@@@@@@@@@@@@@@@@@@@@@@@@@@@@@@@@@@@@@@@@@@@@@@@@@@@@@@@@@@@@@@@@@@@@@@@########",
"########@@@@@@@@@@@@@@@@@@@@@@@@@@@@@@@@@@@@@@@@@@@@@@@@@@@@@@@@@@@@@@@@@@@@@@@@@@@@@@@@@@@@@@@@@@@@@@@@@@@@@@@@@@@@@@@@########",
"########@@@@@@@@@@@@@@@@@@@@@@@@@@@@@@@@@@@@@@@@@@@@@@@@@@@@@@@@@@@@@@@@@@@@@@@@@@@@@@@@@@@@@@@@@@@@@@@@@@@@@@@@@@@@@@@@########",
"########@@@@@@@@@@@@@@@@@@@@@@@@@@@@@@@@@@@@@@@@@@@@@@@@@@@@@@@@@@@@@@@@@@@@@@@@@@@@@@@@@@@@@@@@@@@@@@@@@@@@@@@@@@@@@@@@########",
"########@@@@@@@@@@@@@@@@@@@@@@@@@@@@@@@@@@@@@@@@@@@@@@@@@@@@@@@@@@@@@@@@@@@@@@@@@@@@@@@@@@@@@@@@@@@@@@@@@@@@@@@@@@@@@@@@########",
"########@@@@@@@@................@@@@@@@@%%%%%%%%&&&&&&&&&&&&&&&&&&&&&&&&&&&&&&&&%%%%%%%%@@@@@@@@................@@@@@@@@########",
"########@@@@@@@@................@@@@@@@@%%%%%%%%&&&&&&&&&&&&&&&&&&&&&&&&&&&&&&&&%%%%%%%%@@@@@@@@................@@@@@@@@########",
"########@@@@@@@@................@@@@@@@@%%%%%%%%&&&&&&&&&&&&&&&&&&&&&&&&&&&&&&&&%%%%%%%%@@@@@@@@................@@@@@@@@########",
"########@@@@@@@@................@@@@@@@@%%%%%%%%&&&&&&&&&&&&&&&&&&&&&&&&&&&&&&&&%%%%%%%%@@@@@@@@................@@@@@@@@########",
"########@@@@@@@@................@@@@@@@@%%%%%%%%&&&&&&&&&&&&&&&&&&&&&&&&&&&&&&&&%%%%%%%%@@@@@@@@................@@@@@@@@########",
"########@@@@@@@@................@@@@@@@@%%%%%%%%&&&&&&&&&&&&&&&&&&&&&&&&&&&&&&&&%%%%%%%%@@@@@@@@................@@@@@@@@########",
"########@@@@@@@@................@@@@@@@@%%%%%%%%&&&&&&&&&&&&&&&&&&&&&&&&&&&&&&&&%%%%%%%%@@@@@@@@................@@@@@@@@########",
"########@@@@@@@@................@@@@@@@@%%%%%%%%&&&&&&&&&&&&&&&&&&&&&&&&&&&&&&&&%%%%%%%%@@@@@@@@................@@@@@@@@########",
"########........$$$$$$$$$$$$$$$$........%%%%%%%%&&&&&&&&&&&&&&&&&&&&&&&&&&&&&&&&%%%%%%%%........$$$$$$$$$$$$$$$$........########",
"########........$$$$$$$$$$$$$$$$........%%%%%%%%&&&&&&&&&&&&&&&&&&&&&&&&&&&&&&&&%%%%%%%%........$$$$$$$$$$$$$$$$........########",
"########........$$$$$$$$$$$$$$$$........%%%%%%%%&&&&&&&&&&&&&&&&&&&&&&&&&&&&&&&&%%%%%%%%........$$$$$$$$$$$$$$$$........########",
"########........$$$$$$$$$$$$$$$$........%%%%%%%%&&&&&&&&&&&&&&&&&&&&&&&&&&&&&&&&%%%%%%%%........$$$$$$$$$$$$$$$$........########",
"########........$$$$$$$$$$$$$$$$........%%%%%%%%&&&&&&&&&&&&&&&&&&&&&&&&&&&&&&&&%%%%%%%%........$$$$$$$$$$$$$$$$........########",
"########........$$$$$$$$$$$$$$$$........%%%%%%%%&&&&&&&&&&&&&&&&&&&&&&&&&&&&&&&&%%%%%%%%........$$$$$$$$$$$$$$$$........########",
"########........$$$$$$$$$$$$$$$$........%%%%%%%%&&&&&&&&&&&&&&&&&&&&&&&&&&&&&&&&%%%%%%%%........$$$$$$$$$$$$$$$$........########",
"########........$$$$$$$$$$$$$$$$........%%%%%%%%&&&&&&&&&&&&&&&&&&&&&&&&&&&&&&&&%%%%%%%%........$$$$$$$$$$$$$$$$........########",
"@@@@@@@@$$$$$$$$========++++++++++++++++++++++++++++++++++++++++++++++++++++++++++++++++++++++++++++++++========$$$$$$$$@@@@@@@@",
"@@@@@@@@$$$$$$$$========++++++++++++++++++++++++++++++++++++++++++++++++++++++++++++++++++++++++++++++++========$$$$$$$$@@@@@@@@",
"@@@@@@@@$$$$$$$$========++++++++++++++++++++++++++++++++++++++++++++++++++++++++++++++++++++++++++++++++========$$$$$$$$@@@@@@@@",
"@@@@@@@@$$$$$$$$========++++++++++++++++++++++++++++++++++++++++++++++++++++++++++++++++++++++++++++++++========$$$$$$$$@@@@@@@@",
"@@@@@@@@$$$$$$$$========++++++++++++++++++++++++++++++++++++++++++++++++++++++++++++++++++++++++++++++++========$$$$$$$$@@@@@@@@",
"@@@@@@@@$$$$$$$$========++++++++++++++++++++++++++++++++++++++++++++++++++++++++++++++++++++++++++++++++========$$$$$$$$@@@@@@@@",
"@@@@@@@@$$$$$$$$========++++++++++++++++++++++++++++++++++++++++++++++++++++++++++++++++++++++++++++++++========$$$$$$$$@@@@@@@@",
"@@@@@@@@$$$$$$$$========++++++++++++++++++++++++++++++++++++++++++++++++++++++++++++++++++++++++++++++++========$$$$$$$$@@@@@@@@",
"@@@@@@@@........$$$$$$$$********$$$$$$$$$$$$$$$$$$$$$$$$$$$$$$$$$$$$$$$$$$$$$$$$$$$$$$$$$$$$$$$$********$$$$$$$$........@@@@@@@@",
"@@@@@@@@........$$$$$$$$********$$$$$$$$$$$$$$$$$$$$$$$$$$$$$$$$$$$$$$$$$$$$$$$$$$$$$$$$$$$$$$$$********$$$$$$$$........@@@@@@@@",
"@@@@@@@@........$$$$$$$$********$$$$$$$$$$$$$$$$$$$$$$$$$$$$$$$$$$$$$$$$$$$$$$$$$$$$$$$$$$$$$$$$********$$$$$$$$........@@@@@@@@",
"@@@@@@@@........$$$$$$$$********$$$$$$$$$$$$$$$$$$$$$$$$$$$$$$$$$$$$$$$$$$$$$$$$$$$$$$$$$$$$$$$$********$$$$$$$$........@@@@@@@@",
"@@@@@@@@........$$$$$$$$********$$$$$$$$$$$$$$$$$$$$$$$$$$$$$$$$$$$$$$$$$$$$$$$$$$$$$$$$$$$$$$$$********$$$$$$$$........@@@@@@@@",
"@@@@@@@@........$$$$$$$$********$$$$$$$$$$$$$$$$$$$$$$$$$$$$$$$$$$$$$$$$$$$$$$$$$$$$$$$$$$$$$$$$********$$$$$$$$........@@@@@@@@",
"@@@@@@@@........$$$$$$$$********$$$$$$$$$$$$$$$$$$$$$$$$$$$$$$$$$$$$$$$$$$$$$$$$$$$$$$$$$$$$$$$$********$$$$$$$$........@@@@@@@@",
"@@@@@@@@........$$$$$$$$********$$$$$$$$$$$$$$$$$$$$$$$$$$$$$$$$$$$$$$$$$$$$$$$$$$$$$$$$$$$$$$$$********$$$$$$$$........@@@@@@@@",
"--------@@@@@@@@@@@@@@@@@@@@@@@@@@@@@@@@@@@@@@@@@@@@@@@@@@@@@@@@@@@@@@@@@@@@@@@@@@@@@@@@@@@@@@@@@@@@@@@@@@@@@@@@@@@@@@@@--------",
"--------@@@@@@@@@@@@@@@@@@@@@@@@@@@@@@@@@@@@@@@@@@@@@@@@@@@@@@@@@@@@@@@@@@@@@@@@@@@@@@@@@@@@@@@@@@@@@@@@@@@@@@@@@@@@@@@@--------",
"--------@@@@@@@@@@@@@@@@@@@@@@@@@@@@@@@@@@@@@@@@@@@@@@@@@@@@@@@@@@@@@@@@@@@@@@@@@@@@@@@@@@@@@@@@@@@@@@@@@@@@@@@@@@@@@@@@--------",
"--------@@@@@@@@@@@@@@@@@@@@@@@@@@@@@@@@@@@@@@@@@@@@@@@@@@@@@@@@@@@@@@@@@@@@@@@@@@@@@@@@@@@@@@@@@@@@@@@@@@@@@@@@@@@@@@@@--------",
"--------@@@@@@@@@@@@@@@@@@@@@@@@@@@@@@@@@@@@@@@@@@@@@@@@@@@@@@@@@@@@@@@@@@@@@@@@@@@@@@@@@@@@@@@@@@@@@@@@@@@@@@@@@@@@@@@@--------",
"--------@@@@@@@@@@@@@@@@@@@@@@@@@@@@@@@@@@@@@@@@@@@@@@@@@@@@@@@@@@@@@@@@@@@@@@@@@@@@@@@@@@@@@@@@@@@@@@@@@@@@@@@@@@@@@@@@--------",
"--------@@@@@@@@@@@@@@@@@@@@@@@@@@@@@@@@@@@@@@@@@@@@@@@@@@@@@@@@@@@@@@@@@@@@@@@@@@@@@@@@@@@@@@@@@@@@@@@@@@@@@@@@@@@@@@@@--------",
"--------@@@@@@@@@@@@@@@@@@@@@@@@@@@@@@@@@@@@@@@@@@@@@@@@@@@@@@@@@@@@@@@@@@@@@@@@@@@@@@@@@@@@@@@@@@@@@@@@@@@@@@@@@@@@@@@@--------",
";;;;;;;;@@@@@@@@................@@@@@@@@%%%%%%%%&&&&&&&&&&&&&&&&&&&&&&&&&&&&&&&&%%%%%%%%@@@@@@@@................@@@@@@@@;;;;;;;;",
";;;;;;;;@@@@@@@@................@@@@@@@@%%%%%%%%&&&&&&&&&&&&&&&&&&&&&&&&&&&&&&&&%%%%%%%%@@@@@@@@................@@@@@@@@;;;;;;;;",
";;;;;;;;@@@@@@@@................@@@@@@@@%%%%%%%%&&&&&&&&&&&&&&&&&&&&&&&&&&&&&&&&%%%%%%%%@@@@@@@@................@@@@@@@@;;;;;;;;",
";;;;;;;;@@@@@@@@................@@@@@@@@%%%%%%%%&&&&&&&&&&&&&&&&&&&&&&&&&&&&&&&&%%%%%%%%@@@@@@@@................@@@@@@@@;;;;;;;;",
";;;;;;;;@@@@@@@@................@@@@@@@@%%%%%%%%&&&&&&&&&&&&&&&&&&&&&&&&&&&&&&&&%%%%%%%%@@@@@@@@................@@@@@@@@;;;;;;;;",
";;;;;;;;@@@@@@@@................@@@@@@@@%%%%%%%%&&&&&&&&&&&&&&&&&&&&&&&&&&&&&&&&%%%%%%%%@@@@@@@@................@@@@@@@@;;;;;;;;",
";;;;;;;;@@@@@@@@................@@@@@@@@%%%%%%%%&&&&&&&&&&&&&&&&&&&&&&&&&&&&&&&&%%%%%%%%@@@@@@@@................@@@@@@@@;;;;;;;;",
";;;;;;;;@@@@@@@@................@@@@@@@@%%%%%%%%&&&&&&&&&&&&&&&&&&&&&&&&&&&&&&&&%%%%%%%%@@@@@@@@................@@@@@@@@;;;;;;;;",
">>>>>>>>;;;;;;;;********........########&&&&&&&&&&&&&&&&&&&&&&&&&&&&&&&&&&&&&&&&&&&&&&&&########........********;;;;;;;;;;;;;;;;",
">>>>>>>>;;;;;;;;********........########&&&&&&&&&&&&&&&&&&&&&&&&&&&&&&&&&&&&&&&&&&&&&&&&########........********;;;;;;;;;;;;;;;;",
">>>>>>>>;;;;;;;;********........########&&&&&&&&&&&&&&&&&&&&&&&&&&&&&&&&&&&&&&&&&&&&&&&&########........********;;;;;;;;;;;;;;;;",
">>>>>>>>;;;;;;;;********........########&&&&&&&&&&&&&&&&&&&&&&&&&&&&&&&&&&&&&&&&&&&&&&&&########........********;;;;;;;;;;;;;;;;",
">>>>>>>>;;;;;;;;********........########&&&&&&&&&&&&&&&&&&&&&&&&&&&&&&&&&&&&&&&&&&&&&&&&########........********;;;;;;;;;;;;;;;;",
">>>>>>>>;;;;;;;;********........########&&&&&&&&&&&&&&&&&&&&&&&&&&&&&&&&&&&&&&&&&&&&&&&&########........********;;;;;;;;;;;;;;;;",
">>>>>>>>;;;;;;;;********........########&&&&&&&&&&&&&&&&&&&&&&&&&&&&&&&&&&&&&&&&&&&&&&&&########........********;;;;;;;;;;;;;;;;",
">>>>>>>>;;;;;;;;********........########&&&&&&&&&&&&&&&&&&&&&&&&&&&&&&&&&&&&&&&&&&&&&&&&########........********;;;;;;;;;;;;;;;;",
"********;;;;;;;;>>>>>>>>****************........################################........****************>>>>>>>>;;;;;;;;        ",
"********;;;;;;;;>>>>>>>>****************........################################........****************>>>>>>>>;;;;;;;;        ",
"********;;;;;;;;>>>>>>>>****************........################################........****************>>>>>>>>;;;;;;;;        ",
"********;;;;;;;;>>>>>>>>****************........################################........****************>>>>>>>>;;;;;;;;        ",
"********;;;;;;;;>>>>>>>>****************........################################........****************>>>>>>>>;;;;;;;;        ",
"********;;;;;;;;>>>>>>>>****************........################################........****************>>>>>>>>;;;;;;;;        ",
"********;;;;;;;;>>>>>>>>****************........################################........****************>>>>>>>>;;;;;;;;        ",
"********;;;;;;;;>>>>>>>>****************........################################........****************>>>>>>>>;;;;;;;;        ",
"        ****************;;;;;;;;>>>>>>>>>>>>>>>>>>>>>>>>>>>>>>>>>>>>>>>>>>>>>>>>>>>>>>>>>>>>>>>>;;;;;;;;********,,,,,,,'        ",
"        ****************;;;;;;;;>>>>>>>>>>>>>>>>>>>>>>>>>>>>>>>>>>>>>>>>>>>>>>>>>>>>>>>>>>>>>>>>;;;;;;;;********',,,,,,,        ",
"        ****************;;;;;;;;>>>>>>>>>>>>>>>>>>>>>>>>>>>>>>>>>>>>>>>>>>>>>>>>>>>>>>>>>>>>>>>>;;;;;;;;********',,,,,,,        ",
"        ****************;;;;;;;;>>>>>>>>>>>>>>>>>>>>>>>>>>>>>>>>>>>>>>>>>>>>>>>>>>>>>>>>>>>>>>>>;;;;;;;;********),!~,,!!        ",
"        ****************;;;;;;;;>>>>>>>>>>>>>>>>>>>>>>>>>>>>>>>>>>>>>>>>>>>>>>>>>>>>>>>>>>>>>>>>;;;;;;;;********,,,,,,,!        ",
"        ****************;;;;;;;;>>>>>>>>>>>>>>>>>>>>>>>>>>>>>>>>>>>>>>>>>>>>>>>>>>>>>>>>>>>>>>>>;;;;;;;;********,,,,,,!!        ",
"        ****************;;;;;;;;>>>>>>>>>>>>>>>>>>>>>>>>>>>>>>>>>>>>>>>>>>>>>>>>>>>>>>>>>>>>>>>>;;;;;;;;********,,,,,,,)        ",
"        ****************;;;;;;;;>>>>>>>>>>>>>>>>>>>>>>>>>>>>>>>>>>>>>>>>>>>>>>>>>>>>>>>>>>>>>>>>;;;;;;;;********~,,,,,,{        ",
"                        ****************************************;;;;;;;;********;;;;;;;;****************                        ",
"                        ****************************************;;;;;;;;********;;;;;;;;****************                        ",
"                        ****************************************;;;;;;;;********;;;;;;;;****************                        ",
"                        ****************************************;;;;;;;;********;;;;;;;;****************                        ",
"                        ****************************************;;;;;;;;********;;;;;;;;****************                        ",
"                        ****************************************;;;;;;;;********;;;;;;;;****************                        ",
"                        ****************************************;;;;;;;;********;;;;;;;;****************                        ",
"                        ****************************************;;;;;;;;********;;;;;;;;****************                        "};
