/* XPM */
static char * Green_bush_alt_xpm[] = {
"45 46 9 1",
" 	c None",
".	c #002728",
"+	c #004042",
"@	c #001616",
"#	c #01783F",
"$	c #01E329",
"%	c #019F3E",
"&	c #01594C",
"*	c #005B46",
"                    ....                     ",
"        +++++    @@@ .##. +++       @..      ",
"         +$%&+  @+@   .&.+#+       @##@      ",
"          +#%@@@&%$@@@@+@&+  @@@@ @&#@       ",
"      ...@@@@++@%#%@+++@@@@@@&%#&@@+&@       ",
"      .##&@@&&&+#&#&+#%%.+@.&#&+@+++@@@@     ",
"       .@++%%#&+++&&+##&.@+++++++++&#+++.... ",
"      .##&++##&&$$%#&++++@#%$.%$$$+&&#+.&##. ",
"      ..&&.@.+&+%####+#%+.##&.%#%#.+#%..&&.  ",
"     ..+.@@@.##.+%##&.##%..++.##&+@++%@&..@  ",
"   ..++&###@%##..+....+%$+##&+++++@#%+@.+@@@ ",
"  .&+#&+%#%.$%&.#&&#.##&$+#%+..#%+.##%@&&#+@ ",
"  ..#&&.+%..$.+.%##%+#%++++%.@.##%.&%$@&#+@  ",
"  .%%#@.@..+..&.%%%$.&%&#%+.@@@.%$+.&$@++@   ",
"   .@@.@.%#.+##+&$$&+...##%+....+$&+++..+@@  ",
"   @++@.%##.%#%.+&%&##%..%$&+###+&&##@.&&&+@ ",
"  @+#&@.$%..$%$&..++###%@&$&+&#%%+&#%.+&#+++@",
"  @#&&@+$&+.&$%+#%&+&%#$@@.+..%%&+##$++@@@@@@",
"  .%#@@+++&+.+.&##%.+&%$@##+&++#&&+%$+@##%@  ",
"  .%@@+##&+&+&@+&%$@..@@.#%+##+&&##&$.@#%%%. ",
"  @@&&+#%&+###.@.+$@@###.&%+#%%&+#%++.+@.... ",
"   @#&+%$&.%#%+%#&&.@%#%&+..%$$&.+&&&..@     ",
"   @#++&$..&%&.$##+++&%&##.&&%#+@&&&#.@+..   ",
"   @@..+.@@@.+.$%&.##&&&%#+#%&+.@#%&#@@.++.. ",
"    @@@@.+##@..$&+@#%&&+%&&##%+@@##%.@+&#%#&.",
" @@@+@@.++%#.@@.+@@&%+..&&.&%$@@@@%%@@+&&.++.",
" @++..+#&+%.+.##.@@@@..@+..+@$@..@@%@@@..@...",
"  @+..#&&+&&&+%#.@+###+@..++.@.++&&+.+&&&++@ ",
"   @@+%#++#&#.%.@@.%%%+.+&&++.+++&#.++&&#@+&@",
"    @@%+&&+#.@@@&#.+%++@@&#+@.&#++#++.#%%@@@@",
"     @@.#&.@@&&.&&#.&&+.@+#@@+&&#.+&&.+#&@*  ",
"  ..@@@@#+@@@&#..#%+&##@@..@++.#%@@&#..+@@@  ",
"  .#&&@.@@@@.+#+..#+.@@@.@@.&+.&%+@.#+@.+&@@ ",
"   .#++.&&&@..+&&&+.&&.@&&++&&&+&.@@@@@@@@@@ ",
"    @&+.###@+..###..&&#@&#..#&#+.@&#.@.@@    ",
"    @@.@&#&@.+..#+.+#%%..#@.&#%+.@&&#@.++.   ",
"   @@@@...@@@.++.&&+.#&@+.@@.&+..@@#%+&+.+.  ",
"   @..++++@@@&&@@&#..@@..@&&@...@@@+%++&...  ",
"    @@.+&@@.@#&@@.#@@@.@@+&#@@@@@+&++.&#. .  ",
"      @&+@++.#@..@@@..&&+&+#&&...++&.@.#.    ",
"      @&..&+.@+...+&&+#&++&+&#.++.&#.@@.     ",
"      @&..&&..+&+++&#+#.&+&..#&++#@#@        ",
"       @ @&@  .&.+.##.. .&&@ .@&#@ @         ",
"          @   .&&.@.#.   @&@   @@            ",
"              .&.  @@@    @                  ",
"               .                             "};
