/* XPM */
static char * ground_xpm[] = {
"128 128 3 1",
" 	c #447788",
".	c #5BA697",
"+	c #74E89F",
"                                                                                                                                ",
"                                                                                                                                ",
"                                                                                                                                ",
"                                                                                                                                ",
"                                                                                                                                ",
"                                                                                                                                ",
"                                                                                                                                ",
"                                                                                                                                ",
"        ................................................................................................................        ",
"        ................................................................................................................        ",
"        ................................................................................................................        ",
"        ................................................................................................................        ",
"        ................................................................................................................        ",
"        ................................................................................................................        ",
"        ................................................................................................................        ",
"        .........................................................................................................+++++++        ",
"        .........................................................................................................+++++++        ",
"        .........................................................................................................+++++++        ",
"        .........................................................................................................+++++++        ",
"        .........................................................................................................+++++++        ",
"        .........................................................................................................+++++++        ",
"        .........................................................................................................+++++++        ",
"        .........................................................................................................+++++++        ",
"        .........................................................................................................+++++++        ",
"        .........................................................................................................+++++++        ",
"        .........................................................................................................+++++++        ",
"        .........................................................................................................+++++++        ",
"        .........................................................................................................+++++++        ",
"        .........................................................................................................+++++++        ",
"        .........................................................................................................+++++++        ",
"        .........................................................................................................+++++++        ",
"        .........................................................................................................+++++++        ",
"        .........................................................................................................+++++++        ",
"        .........................................................................................................+++++++        ",
"        .........................................................................................................+++++++        ",
"        .........................................................................................................+++++++        ",
"        .........................................................................................................+++++++        ",
"        .........................................................................................................+++++++        ",
"        .........................................................................................................+++++++        ",
"        .........................................................................................................+++++++        ",
"        .........................................................................................................+++++++        ",
"        .........................................................................................................+++++++        ",
"        .........................................................................................................+++++++        ",
"        .........................................................................................................+++++++        ",
"        .........................................................................................................+++++++        ",
"        .........................................................................................................+++++++        ",
"        .........................................................................................................+++++++        ",
"        .........................................................................................................+++++++        ",
"        .........................................................................................................+++++++        ",
"        .........................................................................................................+++++++        ",
"        .........................................................................................................+++++++        ",
"        .........................................................................................................+++++++        ",
"        .........................................................................................................+++++++        ",
"        .........................................................................................................+++++++        ",
"        .........................................................................................................+++++++        ",
"        .........................................................................................................+++++++        ",
"        .........................................................................................................+++++++        ",
"        .........................................................................................................+++++++        ",
"        .........................................................................................................+++++++        ",
"        .........................................................................................................+++++++        ",
"        .........................................................................................................+++++++        ",
"        .........................................................................................................+++++++        ",
"        .........................................................................................................+++++++        ",
"        .........................................................................................................+++++++        ",
"        .........................................................................................................+++++++        ",
"        .........................................................................................................+++++++        ",
"        .........................................................................................................+++++++        ",
"        .........................................................................................................+++++++        ",
"        .........................................................................................................+++++++        ",
"        .........................................................................................................+++++++        ",
"        .........................................................................................................+++++++        ",
"        .........................................................................................................+++++++        ",
"        .........................................................................................................+++++++        ",
"        .........................................................................................................+++++++        ",
"        .........................................................................................................+++++++        ",
"        .........................................................................................................+++++++        ",
"        .........................................................................................................+++++++        ",
"        .........................................................................................................+++++++        ",
"        .........................................................................................................+++++++        ",
"        .........................................................................................................+++++++        ",
"        .........................................................................................................+++++++        ",
"        .........................................................................................................+++++++        ",
"        .........................................................................................................+++++++        ",
"        .........................................................................................................+++++++        ",
"        .........................................................................................................+++++++        ",
"        .........................................................................................................+++++++        ",
"        .........................................................................................................+++++++        ",
"        .........................................................................................................+++++++        ",
"        .........................................................................................................+++++++        ",
"        .........................................................................................................+++++++        ",
"        .........................................................................................................+++++++        ",
"        .........................................................................................................+++++++        ",
"        .........................................................................................................+++++++        ",
"        .........................................................................................................+++++++        ",
"        .........................................................................................................+++++++        ",
"        .........................................................................................................+++++++        ",
"        .........................................................................................................+++++++        ",
"        .........................................................................................................+++++++        ",
"        .........................................................................................................+++++++        ",
"        .........................................................................................................+++++++        ",
"        .........................................................................................................+++++++        ",
"        .........................................................................................................+++++++        ",
"        .........................................................................................................+++++++        ",
"        .........................................................................................................+++++++        ",
"        .........................................................................................................+++++++        ",
"        .........................................................................................................+++++++        ",
"        .........................................................................................................+++++++        ",
"        .........................................................................................................+++++++        ",
"        .........................................................................................................+++++++        ",
"        .........................................................................................................+++++++        ",
"        .........................................................................................................+++++++        ",
"        .........................................................................................................+++++++        ",
"        .........................................................................................................+++++++        ",
"        .......++++++++++++++++++++++++++++++++++++++++++++++++++++++++++++++++++++++++++++++++++++++++++++++++++.......        ",
"        .......++++++++++++++++++++++++++++++++++++++++++++++++++++++++++++++++++++++++++++++++++++++++++++++++++.......        ",
"        .......++++++++++++++++++++++++++++++++++++++++++++++++++++++++++++++++++++++++++++++++++++++++++++++++++.......        ",
"        .......++++++++++++++++++++++++++++++++++++++++++++++++++++++++++++++++++++++++++++++++++++++++++++++++++.......        ",
"        .......++++++++++++++++++++++++++++++++++++++++++++++++++++++++++++++++++++++++++++++++++++++++++++++++++.......        ",
"        .......++++++++++++++++++++++++++++++++++++++++++++++++++++++++++++++++++++++++++++++++++++++++++++++++++.......        ",
"        .......++++++++++++++++++++++++++++++++++++++++++++++++++++++++++++++++++++++++++++++++++++++++++++++++++.......        ",
"                                                                                                                                ",
"                                                                                                                                ",
"                                                                                                                                ",
"                                                                                                                                ",
"                                                                                                                                ",
"                                                                                                                                ",
"                                                                                                                                ",
"                                                                                                                                "};
