/* XPM */
static char *_4ce526614c94951c3d3db1b3f311c437pGWpOAR4dXlJXcR[] = {
/* columns rows colors chars-per-pixel */
"49 49 5 1 ",
"  c #004263",
". c #447789",
"X c #5BA797",
"o c #74E89F",
"O c #BAFFBC",
/* pixels */
"................                .................",
".XXXXXXXXXXXXXXX ................XXXXXXXXXXXXXXX.",
".XXXXXX.XXXXoXXo ..............X.XXXXXXXXX.XXXXo.",
".XXXoXXXXXXXXXXo .......... ...X.XXXXXXXXXXXXXXo.",
".XX.XXXXXXXXXXXo ..............X.XXXXXXXXXXXXXXo.",
".XXXXXXXXXXXXXoX ..............X.XXXXXXXXXXXXXXo.",
".XXXXXXXXX.XXXX. ..............X.XXXXXXXXXXXXXXo.",
".XXXXXXXXXXX..   ..............X.XXXXX.XXXXXXXXo.",
".XXXXXXXXXXXXoo. .. ...........X.XXXXXXXXXXXXXXo.",
".XXXXXXX.XXXXXO. ..............X.XXXXXXXXXXXXXXo.",
".XXXXXXXXXXXXXoX ..............X.XXXXXXXXXXXXXXo.",
".XXXXXXXXXXXXXXo .......... ...X.XXXXXXXXXXXXXXo.",
".XX.XXXXXXXXXXXO ..............X.XX.XXXXXXXX.XXo.",
".XXXXXXXXoXXXXXO ..............X.XXXXXXXXXXXXXXo.",
".XXXXXXXXXXXXXXo ..............X.XXXXXXXXXXXXXXo.",
".XoooooooooooooX .XXXXXXXXXXXXX..XoooooooooooooX.",
".................................................",
".X.XXXXXXXXXXXXX.XXXXXXXXXXXXXXX.X.X.XXXXXXXXXXX.",
"..XXXXXXXXXXXXXo.XXXXXXXXXXXXXXo..X.XXXXXXXXXXXo.",
".XXXXXXXXXXXXXXo.XXXXXXXXXX.XXXo.XXXXXXXXXXXXXXo.",
".XXXXXXX.XXXXXXo.XXXXXXXXXXXXXXo.XXXXXXXXXXXXXXo.",
".XXXXXXXXXXXXXXo.XXXXXXXXXXXXXXo.XXXXXXXXXXXXXXo.",
".XXXXXXXXXXXXXXo.XXXXXXXXXXXXXXo.XXXXXXXXXoXXXXo.",
".XXXXXXXXXXXXXXo.XXXXXXXXXXXXXXo.XXXXXXXX..XXXXo.",
"..XXX.XXXXXXXXXo.XX.XXXXXXXXXXXo.XXXXXXXXXXXXXXo.",
".XXXo .XXXXXXXXo.XXXXXXXXXXXXXXo.XXXXXXXXXXXXXXo.",
".XXXoX.XXXXXXXXo.XXXXXXXXXXXXXXo.XXXXXXXXXXXXXXo.",
".XXXXo X.XXXXXXo.XXXXXXXXXX.XXXo.XXXXXXXXXXXXXXo.",
".XXXXo . XXXXXXo.XXXXXXXXXXXXXXo.XXXXXX.XXXXXXXo.",
".XXXXoX XXXXXXXo.XXXXXXXXXXXXXXo.XXXXXXXXXXXXXXo.",
".XXXXXo oXXXXXXo.XXXXXXXXXXXXXXo.XXXXXXXXXXXXXXo.",
".Xooooo oooooooo.XoooooooooooooX.XoooooooooooooX.",
".                ................XXXXXXXXXXXXXXX.",
".Xooooo oooooooX.XoooooooooooooX.ooooooooooooooo.",
".oXXXXo oXXXXXXX.oXXXXXXXXXXXXXX.ooooooooooooooO.",
".oXXXXX XoXXXXXX.OXXXXXoXXXXXXXX.ooooo ooooooooO.",
".oXXXX . oXXXXXX.OXXXXXXXXXXX.XX.ooooooooooooooO.",
".oX.XX.X oXXX.XX.oXXXXXXXXXXXXXX.ooooooooooooooO.",
".oXXXXXX XoXXXXX.XoXXXXXXXXXXXXX.ooooooooooooooO.",
".oXXXXX . oXXXXX..OXXXXX.XXXXXXX.ooooooooooooooO.",
".oXXXX. X.XXXXX...ooXXXXXXXXXXXX.ooooooooooooooO.",
".oXXXX .XXXXXXXX.  ..XXXXXXXXXXX.oooooo oooooooO.",
".oXXXX. XX.XXXXX..XXXX.XXXXXXXXX.oo oooooooooooO.",
".oXXXXX. XXXXXXX.XoXXXXXXXXXXXXX.ooooooooooooooO.",
".oX.XXXX.XXXXXXX.oXXXXXXXXXXX.XX.ooooooooooooooO.",
".oXXXXXXXXX.XXXX.oXXXXXXXXXXoXXX.ooooooooooooooO.",
".oXXXXXXXXXXXXX..oXXoXXXX.XXXXXX.ooooooooooooo O.",
".XXXXXXXXXXXXX.X.XXXXXXXXXXXXXXX.oOOOOOOOOOOOOOo.",
"................................................."
};
