/* XPM */
static char *b362d31479484516f702b080c0e656b3MDVMjryPzVoVN0LO[] = {
/* columns rows colors chars-per-pixel */
"30 31 6 1 ",
"  c None",
". c #433F40",
"X c #514A4D",
"o c #6C6464",
"O c #877C74",
"+ c #ADA497",
/* pixels */
"          XXXX    XXXXX       ",
"         XO++OX  XoO+++X      ",
"        XoOOO++XXoooooO+X     ",
"    XXXXXOooOO+OoXoXoooOX     ",
"   X++OXoo+OOOO+oXXoXXXXX     ",
"  X+OOOXoXO++++OoXoXoOoOoXX   ",
"  Xo+OXooXXoOOOoOoXoOoOO+OoX  ",
"  XooX+OOoXXXXoOoOoOoOOOO++OX ",
"   XX+OOOOOoooooOooooOoOOOO+X ",
"    Xo++OOOOOOOOOoXoooOoOOOO+X",
"    XooOoo+OOoooooXooooOOOOO+X",
"     XoooOO+oOooOOoXoOooOOO+OX",
"    XoOXoO++OooOO+OoXoOO+++OoX",
"   XOOoXOOOO+oOOOOO+oXooooooX ",
"  .OOOoXoO++ooOoOO+O+oXXXXX.  ",
"  .+OOooXXXoXOoOoOO++oooooo.  ",
" .o+OOOoooooXoooOoOO+OOOOoOo. ",
" .XO+OOOoOooXoOoooO+OoOOOOooX.",
" .XoOOOOOooooXoOO++OoOOOOOOoX.",
"  .XoO+OOOOoooXXXXooOO++O+Ooo.",
"   .XoO++OOOOooooOoOoOO++O+oX.",
"   .o..oO++OoOOOOoo+XoOO+O+XX.",
"   .OXX.ooooOoooooXOoXoOO+Oo. ",
"   .OoX.oX..ooooooXOOoXo+OoX. ",
"   .XOOXoOXX.oXoooXoOO++OoX.  ",
"    .XXXoOXXXoooXoXXoooooo.   ",
"     ..XXXOOoXoXoXoXXXoXoX.   ",
"       ....XXXXXX.XoXXXoXX.   ",
"           ...... .XXXXXX.    ",
"                   ......     ",
"                              "
};
