/* XPM */
static char * Monster_down_xpm[] = {
"64 16 12 1",
" 	c None",
".	c #70001D",
"+	c #B70018",
"@	c #FF2915",
"#	c #FF9767",
"$	c #FF591B",
"%	c #FF801B",
"&	c #FFFF50",
"*	c #FF0000",
"=	c #850527",
"-	c #CD3C00",
";	c #FD5400",
"     ......                          ......                     ",
" .. .+@@@@+. ..      ......      .. .+@@@@+. ..      ......     ",
".#. ..++++.. .#. .. .+@@@@+. .. .#. ..++++.. .#. .. .+@@@@+. .. ",
".#$.@$%%%%$@.$#..#. ..++++.. .#..#$.@$%%%%$@.$#..#. ..++++.. .#.",
".%#+$%%$$%%$+#%..#$.@$%%%%$@.$#..%#+$%%$$%%$+#%..#$.@$%%%%$@.$#.",
" .+@@@@@@@@@@+. .%#+$%%$$%%$+#%. .+@@@@@@@@@@+. .%#+$%%$$%%$+#%.",
" .@@.@@@@@@.@@.  .+@@@@@@@@@@+.  .@@.@@@@@@.@@.  .+@@@@@@@@@@+. ",
" .$@..@++@..@$.  .@@.@@@@@@.@@.  .$@..@++@..@$.  .@@.@@@@@@.@@. ",
".@%@+&.++.&+@%@. .$@..@++@..@$. .@%@+&.++.&+@%@. .$@..@++@..@$. ",
" .%@$%$@@$%$@%. .@%@+&.++.&+@%@. .%@$%$@@$%$@%. .@%@+&.++.&+@%@.",
".@$@+++..+++@$@. .%@$%$@@$%$@%. .@$@+++..+++@$@. .%@$%$@@$%$@%. ",
" .+@@+#..#+@@+. .@$@+++..+++@$@. .+@@+#..#+@@+. .@$@+++..+++@$@.",
"  .+@@+**+@@+.   .+@@+#..#====.   .+@@+**+@@+.   .====#..#+@@+. ",
" =-..........-=   .+@@+**=-;;;=  =-..........-=  =;;;-=**+@@+.  ",
" =;;--=  =--;;=    ......=----=  =;;--=  =--;;=  =----=......   ",
"  ====    ====           =====    ====    ====    =====         "};
