/* XPM */
static char * Monster_left_xpm[] = {
"63 15 13 1",
" 	c None",
".	c #70001D",
"+	c #FF9767",
"@	c #FF2915",
"#	c #FF591B",
"$	c #FF801B",
"%	c #FF4C1B",
"&	c #B70018",
"*	c #FFFF50",
"=	c #FF0000",
"-	c #850527",
";	c #CD3C00",
">	c #FD5400",
" ..        ..                    ..        ..                  ",
".+. .......@#.   ..        ..   .+. .......@#.   ..        ..  ",
".$..@%$$%@..@#. .+. .......@#.  .$..@%$$%@..@#. .+. .......@#. ",
"..&@%%%%@&.+.@. .$..@%$$%@..@#. ..&@%%%%@&.+.@. .$..@%$$%@..@#.",
".&@@@@@@@.#+... ..&@%%%%@&.+.@. .&@@@@@@@.#+... ..&@%%%%@&.+.@.",
".@%&%%.&@&+$..  .&@@@@@@@.#+... .@%&%%.&@&+$..  .&@@@@@@@.#+...",
" ..&%..&@@..&.  .@%&%%.&@&+$..   ..&%..&@@..&.  .@%&%%.&@&+$.. ",
" &*..*&@@@&&&.   ..&%..&@@..&.   &*..*&@@@&&&.   ..&%..&@@..&. ",
".$#@#$#@@@@&&&.  &*..*&@@@&&&.  .$#@#$#@@@@&&&.  &*..*&@@@&&&. ",
".......@@@&&&.  .$#@#$#@@@@&&&. .......@@@&&&.  .$#@#$#@@@@&&&.",
".+..+.&@@@@&&&. .......@@@&&&.  .+..+.&@@@@&&&. .......@@@&&&. ",
" .==.&@@&&&&... .+..+.&@@@---&.  .==.&@@&&&&... .+..+.&@@@@&&&.",
" .=.........-   -.==.&@@&-;>;-.  .=.........-    .=----&&&&&...",
" ..;;-;>>;;;-   -.=.....->>;;-   ..;;-;>>;;;-    -;>>;;-....-- ",
"  --- ------     ..-     ----     --- ------      ------ ----  "};
