/* XPM */
static char * Monster_up_xpm[] = {
"64 15 10 1",
" 	c None",
".	c #70001D",
"+	c #FF9767",
"@	c #B70018",
"#	c #FF2915",
"$	c #FF591B",
"%	c #FF801B",
"&	c #850527",
"*	c #CD3C00",
"=	c #FD5400",
" ..  ......  ..                  ..  ......  ..                 ",
".+. .@#@@#@. .+. ..  ......  .. .+. .@#@@#@. .+. ..  ......  .. ",
".+$..#@..@#..$+..+. .@#@@#@. .+..+$..#@..@#..$+..+. .@#@@#@. .+.",
".%+@@@#$$#@@@+%..+$..#@..@#..$+..%+@@@#$$#@@@+%..+$..#@..@#..$+.",
" .@#$#@@@@#$#@. .%+@@@#$$#@@@+%. .@#$#@@@@#$#@. .%+@@@#$$#@@@+%.",
" .###$%%%%$###.  .@#$#@@@@#$#@.  .###$%%%%$###.  .@#$#@@@@#$#@. ",
" .$##########$.  .###$%%%%$###.  .$##########$.  .###$%%%%$###. ",
".#%#@#@@@#@##%#. .$##########$. .#%#@#@@@#@##%#. .$##########$. ",
" .%####@@@###%. .#%#@#@@@#@##%#. .%####@@@###%. .#%#@#@@@#@##%#.",
".#$#@#@@@@#@#$#. .%####@@@###%. .#$#@#@@@@#@#$#. .%####@@@###%. ",
" .@@#@@@@@@#@@. .#$#@#@@@@#@#$#. .@@#@@@@@@#@@. .#$#@#@@@@#@#$#.",
"  .@@@@@@@@@@.   .@@#@@@@&&&@@.   .@@@@@@@@@@.   .@@&&&@@@@#@@. ",
" &*..........*&   .@@@@@&***&&   &*..........*&   &&***&@@@@@.  ",
" &==**&  &**==&    .....&**==&   &==**&  &**==&   &==**&.....   ",
"  &&&&    &&&&           &&&&     &&&&    &&&&     &&&&         "};
