/* XPM */
static char *player3[] = {
/* columns rows colors chars-per-pixel */
"128 128 6 1 ",
"  c #09020E",
". c #09020E",
"X c #1E122D",
"o c #51487A",
"O c #7A80A5",
"+ c #A6ADC3",
/* pixels */
"                                                                                                                                ",
"                                                                                                                                ",
"                                                                                                                                ",
"                                                                                                                                ",
"                                                                                                                                ",
"                                                                                                                                ",
"                                                                                                                                ",
"                                                                                                                                ",
"                                                                                                                                ",
"                                                                                                                                ",
"                                                                                                                                ",
"                                                                                                                                ",
"                                                                                                                                ",
"                                                                                                                                ",
"                                                                                                                                ",
"                                                                                                                                ",
"                        ++++++++++++++++                                                                                        ",
"                        ++++++++++++++++                                                                                        ",
"                        ++++++++++++++++                                                                                        ",
"                        ++++++++++++++++                                                                                        ",
"                        ++++++++++++++++                                                                                        ",
"                        ++++++++++++++++                                                                                        ",
"                        ++++++++++++++++                                                                                        ",
"                        ++++++++++++++++                                                                                        ",
"                ++++++++++++++++                        oooooooo                                                ++++++++        ",
"                ++++++++++++++++                        oooooooo                                                ++++++++        ",
"                ++++++++++++++++                        oooooooo                                                ++++++++        ",
"                ++++++++++++++++                        oooooooo                                                ++++++++        ",
"                ++++++++++++++++                        oooooooo                                                ++++++++        ",
"                ++++++++++++++++                        oooooooo                                                ++++++++        ",
"                ++++++++++++++++                        oooooooo                                                ++++++++        ",
"                ++++++++++++++++                        oooooooo                                                ++++++++        ",
"        ++++++++++++++++                        OOOOOOOOooooooooOOOOOOOOOOOOOOOOOOOOOOOOOOOOOOOO        ++++++++OOOOOOOO        ",
"        ++++++++++++++++                        OOOOOOOOooooooooOOOOOOOOOOOOOOOOOOOOOOOOOOOOOOOO        ++++++++OOOOOOOO        ",
"        ++++++++++++++++                        OOOOOOOOooooooooOOOOOOOOOOOOOOOOOOOOOOOOOOOOOOOO        ++++++++OOOOOOOO        ",
"        ++++++++++++++++                        OOOOOOOOooooooooOOOOOOOOOOOOOOOOOOOOOOOOOOOOOOOO        ++++++++OOOOOOOO        ",
"        ++++++++++++++++                        OOOOOOOOooooooooOOOOOOOOOOOOOOOOOOOOOOOOOOOOOOOO        ++++++++OOOOOOOO        ",
"        ++++++++++++++++                        OOOOOOOOooooooooOOOOOOOOOOOOOOOOOOOOOOOOOOOOOOOO        ++++++++OOOOOOOO        ",
"        ++++++++++++++++                        OOOOOOOOooooooooOOOOOOOOOOOOOOOOOOOOOOOOOOOOOOOO        ++++++++OOOOOOOO        ",
"        ++++++++++++++++                        OOOOOOOOooooooooOOOOOOOOOOOOOOOOOOOOOOOOOOOOOOOO        ++++++++OOOOOOOO        ",
"        ++++++++OOOOOOOO        oooooooo        OOOOOOOO++++++++++++++++++++++++OOOOOOOOOOOOOOOO++++++++OOOOOOOOOOOOOOOO        ",
"        ++++++++OOOOOOOO        oooooooo        OOOOOOOO++++++++++++++++++++++++OOOOOOOOOOOOOOOO++++++++OOOOOOOOOOOOOOOO        ",
"        ++++++++OOOOOOOO        oooooooo        OOOOOOOO++++++++++++++++++++++++OOOOOOOOOOOOOOOO++++++++OOOOOOOOOOOOOOOO        ",
"        ++++++++OOOOOOOO        oooooooo        OOOOOOOO++++++++++++++++++++++++OOOOOOOOOOOOOOOO++++++++OOOOOOOOOOOOOOOO        ",
"        ++++++++OOOOOOOO        oooooooo        OOOOOOOO++++++++++++++++++++++++OOOOOOOOOOOOOOOO++++++++OOOOOOOOOOOOOOOO        ",
"        ++++++++OOOOOOOO        oooooooo        OOOOOOOO++++++++++++++++++++++++OOOOOOOOOOOOOOOO++++++++OOOOOOOOOOOOOOOO        ",
"        ++++++++OOOOOOOO        oooooooo        OOOOOOOO++++++++++++++++++++++++OOOOOOOOOOOOOOOO++++++++OOOOOOOOOOOOOOOO        ",
"        ++++++++OOOOOOOO        oooooooo        OOOOOOOO++++++++++++++++++++++++OOOOOOOOOOOOOOOO++++++++OOOOOOOOOOOOOOOO        ",
"        ++++++++OOOOOOOO++++++++++++++++        OOOOOOOOOOOOOOOOOOOOOOOOOOOOOOOOOOOOOOOOOOOOOOOOOOOOOOOOOOOOOOOOOOOOOOOO        ",
"        ++++++++OOOOOOOO++++++++++++++++        OOOOOOOOOOOOOOOOOOOOOOOOOOOOOOOOOOOOOOOOOOOOOOOOOOOOOOOOOOOOOOOOOOOOOOOO        ",
"        ++++++++OOOOOOOO++++++++++++++++        OOOOOOOOOOOOOOOOOOOOOOOOOOOOOOOOOOOOOOOOOOOOOOOOOOOOOOOOOOOOOOOOOOOOOOOO        ",
"        ++++++++OOOOOOOO++++++++++++++++        OOOOOOOOOOOOOOOOOOOOOOOOOOOOOOOOOOOOOOOOOOOOOOOOOOOOOOOOOOOOOOOOOOOOOOOO        ",
"        ++++++++OOOOOOOO++++++++++++++++        OOOOOOOOOOOOOOOOOOOOOOOOOOOOOOOOOOOOOOOOOOOOOOOOOOOOOOOOOOOOOOOOOOOOOOOO        ",
"        ++++++++OOOOOOOO++++++++++++++++        OOOOOOOOOOOOOOOOOOOOOOOOOOOOOOOOOOOOOOOOOOOOOOOOOOOOOOOOOOOOOOOOOOOOOOOO        ",
"        ++++++++OOOOOOOO++++++++++++++++        OOOOOOOOOOOOOOOOOOOOOOOOOOOOOOOOOOOOOOOOOOOOOOOOOOOOOOOOOOOOOOOOOOOOOOOO        ",
"        ++++++++OOOOOOOO++++++++++++++++        OOOOOOOOOOOOOOOOOOOOOOOOOOOOOOOOOOOOOOOOOOOOOOOOOOOOOOOOOOOOOOOOOOOOOOOO        ",
"        ++++++++OOOOOOOO++++++++oooooooo        oooooooo................................ooooooooOOOOOOOOOOOOOOOO                ",
"        ++++++++OOOOOOOO++++++++oooooooo        oooooooo................................ooooooooOOOOOOOOOOOOOOOO                ",
"        ++++++++OOOOOOOO++++++++oooooooo        oooooooo................................ooooooooOOOOOOOOOOOOOOOO                ",
"        ++++++++OOOOOOOO++++++++oooooooo        oooooooo................................ooooooooOOOOOOOOOOOOOOOO                ",
"        ++++++++OOOOOOOO++++++++oooooooo        oooooooo................................ooooooooOOOOOOOOOOOOOOOO                ",
"        ++++++++OOOOOOOO++++++++oooooooo        oooooooo................................ooooooooOOOOOOOOOOOOOOOO                ",
"        ++++++++OOOOOOOO++++++++oooooooo        oooooooo................................ooooooooOOOOOOOOOOOOOOOO                ",
"        ++++++++OOOOOOOO++++++++oooooooo        oooooooo................................ooooooooOOOOOOOOOOOOOOOO                ",
"        ++++++++OOOOOOOO        oooooooo        OOOOOOOOoooooooo........ooooooooOOOOOOOOOOOOOOOOOOOOOOOO                        ",
"        ++++++++OOOOOOOO        oooooooo        OOOOOOOOoooooooo........ooooooooOOOOOOOOOOOOOOOOOOOOOOOO                        ",
"        ++++++++OOOOOOOO        oooooooo        OOOOOOOOoooooooo........ooooooooOOOOOOOOOOOOOOOOOOOOOOOO                        ",
"        ++++++++OOOOOOOO        oooooooo        OOOOOOOOoooooooo........ooooooooOOOOOOOOOOOOOOOOOOOOOOOO                        ",
"        ++++++++OOOOOOOO        oooooooo        OOOOOOOOoooooooo........ooooooooOOOOOOOOOOOOOOOOOOOOOOOO                        ",
"        ++++++++OOOOOOOO        oooooooo        OOOOOOOOoooooooo........ooooooooOOOOOOOOOOOOOOOOOOOOOOOO                        ",
"        ++++++++OOOOOOOO        oooooooo        OOOOOOOOoooooooo........ooooooooOOOOOOOOOOOOOOOOOOOOOOOO                        ",
"        ++++++++OOOOOOOO        oooooooo        OOOOOOOOoooooooo........ooooooooOOOOOOOOOOOOOOOOOOOOOOOO                        ",
"        ++++++++++++++++        oooooooo        OOOOOOOOoooooooo........ooooooooOOOOOOOOOOOOOOOOOOOOOOOOoooooooo                ",
"        ++++++++++++++++        oooooooo        OOOOOOOOoooooooo........ooooooooOOOOOOOOOOOOOOOOOOOOOOOOoooooooo                ",
"        ++++++++++++++++        oooooooo        OOOOOOOOoooooooo........ooooooooOOOOOOOOOOOOOOOOOOOOOOOOoooooooo                ",
"        ++++++++++++++++        oooooooo        OOOOOOOOoooooooo........ooooooooOOOOOOOOOOOOOOOOOOOOOOOOoooooooo                ",
"        ++++++++++++++++        oooooooo        OOOOOOOOoooooooo........ooooooooOOOOOOOOOOOOOOOOOOOOOOOOoooooooo                ",
"        ++++++++++++++++        oooooooo        OOOOOOOOoooooooo........ooooooooOOOOOOOOOOOOOOOOOOOOOOOOoooooooo                ",
"        ++++++++++++++++        oooooooo        OOOOOOOOoooooooo........ooooooooOOOOOOOOOOOOOOOOOOOOOOOOoooooooo                ",
"        ++++++++++++++++        oooooooo        OOOOOOOOoooooooo........ooooooooOOOOOOOOOOOOOOOOOOOOOOOOoooooooo                ",
"                ++++++++++++++++oooooooo        OOOOOOOOOOOOOOOO++++++++OOOOOOOOOOOOOOOOOOOOOOOOoooooooooooooooooooooooo        ",
"                ++++++++++++++++oooooooo        OOOOOOOOOOOOOOOO++++++++OOOOOOOOOOOOOOOOOOOOOOOOoooooooooooooooooooooooo        ",
"                ++++++++++++++++oooooooo        OOOOOOOOOOOOOOOO++++++++OOOOOOOOOOOOOOOOOOOOOOOOoooooooooooooooooooooooo        ",
"                ++++++++++++++++oooooooo        OOOOOOOOOOOOOOOO++++++++OOOOOOOOOOOOOOOOOOOOOOOOoooooooooooooooooooooooo        ",
"                ++++++++++++++++oooooooo        OOOOOOOOOOOOOOOO++++++++OOOOOOOOOOOOOOOOOOOOOOOOoooooooooooooooooooooooo        ",
"                ++++++++++++++++oooooooo        OOOOOOOOOOOOOOOO++++++++OOOOOOOOOOOOOOOOOOOOOOOOoooooooooooooooooooooooo        ",
"                ++++++++++++++++oooooooo        OOOOOOOOOOOOOOOO++++++++OOOOOOOOOOOOOOOOOOOOOOOOoooooooooooooooooooooooo        ",
"                ++++++++++++++++oooooooo        OOOOOOOOOOOOOOOO++++++++OOOOOOOOOOOOOOOOOOOOOOOOoooooooooooooooooooooooo        ",
"                        OOOOOOOO++++++++OOOOOOOOOOOOOOOOOOOOOOOOooooooooooooooooOOOOOOOOOOOOOOOO++++++++++++++++++++++++        ",
"                        OOOOOOOO++++++++OOOOOOOOOOOOOOOOOOOOOOOOooooooooooooooooOOOOOOOOOOOOOOOO++++++++++++++++++++++++        ",
"                        OOOOOOOO++++++++OOOOOOOOOOOOOOOOOOOOOOOOooooooooooooooooOOOOOOOOOOOOOOOO++++++++++++++++++++++++        ",
"                        OOOOOOOO++++++++OOOOOOOOOOOOOOOOOOOOOOOOooooooooooooooooOOOOOOOOOOOOOOOO++++++++++++++++++++++++        ",
"                        OOOOOOOO++++++++OOOOOOOOOOOOOOOOOOOOOOOOooooooooooooooooOOOOOOOOOOOOOOOO++++++++++++++++++++++++        ",
"                        OOOOOOOO++++++++OOOOOOOOOOOOOOOOOOOOOOOOooooooooooooooooOOOOOOOOOOOOOOOO++++++++++++++++++++++++        ",
"                        OOOOOOOO++++++++OOOOOOOOOOOOOOOOOOOOOOOOooooooooooooooooOOOOOOOOOOOOOOOO++++++++++++++++++++++++        ",
"                        OOOOOOOO++++++++OOOOOOOOOOOOOOOOOOOOOOOOooooooooooooooooOOOOOOOOOOOOOOOO++++++++++++++++++++++++        ",
"                XXXXXXXXOOOOOOOOOOOOOOOOOOOOOOOOoooooooooooooooooooooooooooooooooooooooooooooooo++++++++OOOOOOOOOOOOOOOO        ",
"                XXXXXXXXOOOOOOOOOOOOOOOOOOOOOOOOoooooooooooooooooooooooooooooooooooooooooooooooo++++++++OOOOOOOOOOOOOOOO        ",
"                XXXXXXXXOOOOOOOOOOOOOOOOOOOOOOOOoooooooooooooooooooooooooooooooooooooooooooooooo++++++++OOOOOOOOOOOOOOOO        ",
"                XXXXXXXXOOOOOOOOOOOOOOOOOOOOOOOOoooooooooooooooooooooooooooooooooooooooooooooooo++++++++OOOOOOOOOOOOOOOO        ",
"                XXXXXXXXOOOOOOOOOOOOOOOOOOOOOOOOoooooooooooooooooooooooooooooooooooooooooooooooo++++++++OOOOOOOOOOOOOOOO        ",
"                XXXXXXXXOOOOOOOOOOOOOOOOOOOOOOOOoooooooooooooooooooooooooooooooooooooooooooooooo++++++++OOOOOOOOOOOOOOOO        ",
"                XXXXXXXXOOOOOOOOOOOOOOOOOOOOOOOOoooooooooooooooooooooooooooooooooooooooooooooooo++++++++OOOOOOOOOOOOOOOO        ",
"                XXXXXXXXOOOOOOOOOOOOOOOOOOOOOOOOoooooooooooooooooooooooooooooooooooooooooooooooo++++++++OOOOOOOOOOOOOOOO        ",
"        XXXXXXXXXXXXXXXXooooooooooooooooooooooooOOOOOOOOOOOOOOOOooooooooXXXXXXXXOOOOOOOOOOOOOOOO++++++++OOOOOOOOOOOOOOOO        ",
"        XXXXXXXXXXXXXXXXooooooooooooooooooooooooOOOOOOOOOOOOOOOOooooooooXXXXXXXXOOOOOOOOOOOOOOOO++++++++OOOOOOOOOOOOOOOO        ",
"        XXXXXXXXXXXXXXXXooooooooooooooooooooooooOOOOOOOOOOOOOOOOooooooooXXXXXXXXOOOOOOOOOOOOOOOO++++++++OOOOOOOOOOOOOOOO        ",
"        XXXXXXXXXXXXXXXXooooooooooooooooooooooooOOOOOOOOOOOOOOOOooooooooXXXXXXXXOOOOOOOOOOOOOOOO++++++++OOOOOOOOOOOOOOOO        ",
"        XXXXXXXXXXXXXXXXooooooooooooooooooooooooOOOOOOOOOOOOOOOOooooooooXXXXXXXXOOOOOOOOOOOOOOOO++++++++OOOOOOOOOOOOOOOO        ",
"        XXXXXXXXXXXXXXXXooooooooooooooooooooooooOOOOOOOOOOOOOOOOooooooooXXXXXXXXOOOOOOOOOOOOOOOO++++++++OOOOOOOOOOOOOOOO        ",
"        XXXXXXXXXXXXXXXXooooooooooooooooooooooooOOOOOOOOOOOOOOOOooooooooXXXXXXXXOOOOOOOOOOOOOOOO++++++++OOOOOOOOOOOOOOOO        ",
"        XXXXXXXXXXXXXXXXooooooooooooooooooooooooOOOOOOOOOOOOOOOOooooooooXXXXXXXXOOOOOOOOOOOOOOOO++++++++OOOOOOOOOOOOOOOO        ",
"                XXXXXXXXXXXXXXXXooooooooOOOOOOOOOOOOOOOOOOOOOOOOXXXXXXXXXXXXXXXXXXXXXXXXOOOOOOOOOOOOOOOOoooooooo                ",
"                XXXXXXXXXXXXXXXXooooooooOOOOOOOOOOOOOOOOOOOOOOOOXXXXXXXXXXXXXXXXXXXXXXXXOOOOOOOOOOOOOOOOoooooooo                ",
"                XXXXXXXXXXXXXXXXooooooooOOOOOOOOOOOOOOOOOOOOOOOOXXXXXXXXXXXXXXXXXXXXXXXXOOOOOOOOOOOOOOOOoooooooo                ",
"                XXXXXXXXXXXXXXXXooooooooOOOOOOOOOOOOOOOOOOOOOOOOXXXXXXXXXXXXXXXXXXXXXXXXOOOOOOOOOOOOOOOOoooooooo                ",
"                XXXXXXXXXXXXXXXXooooooooOOOOOOOOOOOOOOOOOOOOOOOOXXXXXXXXXXXXXXXXXXXXXXXXOOOOOOOOOOOOOOOOoooooooo                ",
"                XXXXXXXXXXXXXXXXooooooooOOOOOOOOOOOOOOOOOOOOOOOOXXXXXXXXXXXXXXXXXXXXXXXXOOOOOOOOOOOOOOOOoooooooo                ",
"                XXXXXXXXXXXXXXXXooooooooOOOOOOOOOOOOOOOOOOOOOOOOXXXXXXXXXXXXXXXXXXXXXXXXOOOOOOOOOOOOOOOOoooooooo                ",
"                XXXXXXXXXXXXXXXXooooooooOOOOOOOOOOOOOOOOOOOOOOOOXXXXXXXXXXXXXXXXXXXXXXXXOOOOOOOOOOOOOOOOoooooooo                ",
"                        XXXXXXXXXXXXXXXXXXXXXXXXXXXXXXXXXXXXXXXXXXXXXXXXXXXXXXXXXXXXXXXXXXXXXXXXXXXXXXXX                        ",
"                        XXXXXXXXXXXXXXXXXXXXXXXXXXXXXXXXXXXXXXXXXXXXXXXXXXXXXXXXXXXXXXXXXXXXXXXXXXXXXXXX                        ",
"                        XXXXXXXXXXXXXXXXXXXXXXXXXXXXXXXXXXXXXXXXXXXXXXXXXXXXXXXXXXXXXXXXXXXXXXXXXXXXXXXX                        ",
"                        XXXXXXXXXXXXXXXXXXXXXXXXXXXXXXXXXXXXXXXXXXXXXXXXXXXXXXXXXXXXXXXXXXXXXXXXXXXXXXXX                        ",
"                        XXXXXXXXXXXXXXXXXXXXXXXXXXXXXXXXXXXXXXXXXXXXXXXXXXXXXXXXXXXXXXXXXXXXXXXXXXXXXXXX                        ",
"                        XXXXXXXXXXXXXXXXXXXXXXXXXXXXXXXXXXXXXXXXXXXXXXXXXXXXXXXXXXXXXXXXXXXXXXXXXXXXXXXX                        ",
"                        XXXXXXXXXXXXXXXXXXXXXXXXXXXXXXXXXXXXXXXXXXXXXXXXXXXXXXXXXXXXXXXXXXXXXXXXXXXXXXXX                        ",
"                        XXXXXXXXXXXXXXXXXXXXXXXXXXXXXXXXXXXXXXXXXXXXXXXXXXXXXXXXXXXXXXXXXXXXXXXXXXXXXXXX                        "
};
