/* XPM */
static char *player_down1[] = {
/* columns rows colors chars-per-pixel */
"128 128 6 1 ",
"  c #09020E",
". c #09020E",
"X c #1E122D",
"o c #51487A",
"O c #7A80A5",
"+ c #A6ADC3",
/* pixels */
"                                                                                                                                ",
"                                                                                                                                ",
"                                                                                                                                ",
"                                                                                                                                ",
"                                                                                                                                ",
"                                                                                                                                ",
"                                                                                                                                ",
"                                                                                                                                ",
"                                                                                                ++++++++                        ",
"                                                                                                ++++++++                        ",
"                                                                                                ++++++++                        ",
"                                                                                                ++++++++                        ",
"                                                                                                ++++++++                        ",
"                                                                                                ++++++++                        ",
"                                                                                                ++++++++                        ",
"                                                                                                ++++++++                        ",
"                                        ++++++++++++++++++++++++OOOOOOOO                        ++++++++                        ",
"                                        ++++++++++++++++++++++++OOOOOOOO                        ++++++++                        ",
"                                        ++++++++++++++++++++++++OOOOOOOO                        ++++++++                        ",
"                                        ++++++++++++++++++++++++OOOOOOOO                        ++++++++                        ",
"                                        ++++++++++++++++++++++++OOOOOOOO                        ++++++++                        ",
"                                        ++++++++++++++++++++++++OOOOOOOO                        ++++++++                        ",
"                                        ++++++++++++++++++++++++OOOOOOOO                        ++++++++                        ",
"                                        ++++++++++++++++++++++++OOOOOOOO                        ++++++++                        ",
"                                ++++++++++++++++++++++++OOOOOOOOOOOOOOOOOOOOOOOO        ++++++++++++++++OOOOOOOO                ",
"                                ++++++++++++++++++++++++OOOOOOOOOOOOOOOOOOOOOOOO        ++++++++++++++++OOOOOOOO                ",
"                                ++++++++++++++++++++++++OOOOOOOOOOOOOOOOOOOOOOOO        ++++++++++++++++OOOOOOOO                ",
"                                ++++++++++++++++++++++++OOOOOOOOOOOOOOOOOOOOOOOO        ++++++++++++++++OOOOOOOO                ",
"                                ++++++++++++++++++++++++OOOOOOOOOOOOOOOOOOOOOOOO        ++++++++++++++++OOOOOOOO                ",
"                                ++++++++++++++++++++++++OOOOOOOOOOOOOOOOOOOOOOOO        ++++++++++++++++OOOOOOOO                ",
"                                ++++++++++++++++++++++++OOOOOOOOOOOOOOOOOOOOOOOO        ++++++++++++++++OOOOOOOO                ",
"                                ++++++++++++++++++++++++OOOOOOOOOOOOOOOOOOOOOOOO        ++++++++++++++++OOOOOOOO                ",
"                                ++++++++OOOOOOOOOOOOOOOOOOOOOOOOOOOOOOOOOOOOOOOO        ++++++++++++++++OOOOOOOO                ",
"                                ++++++++OOOOOOOOOOOOOOOOOOOOOOOOOOOOOOOOOOOOOOOO        ++++++++++++++++OOOOOOOO                ",
"                                ++++++++OOOOOOOOOOOOOOOOOOOOOOOOOOOOOOOOOOOOOOOO        ++++++++++++++++OOOOOOOO                ",
"                                ++++++++OOOOOOOOOOOOOOOOOOOOOOOOOOOOOOOOOOOOOOOO        ++++++++++++++++OOOOOOOO                ",
"                                ++++++++OOOOOOOOOOOOOOOOOOOOOOOOOOOOOOOOOOOOOOOO        ++++++++++++++++OOOOOOOO                ",
"                                ++++++++OOOOOOOOOOOOOOOOOOOOOOOOOOOOOOOOOOOOOOOO        ++++++++++++++++OOOOOOOO                ",
"                                ++++++++OOOOOOOOOOOOOOOOOOOOOOOOOOOOOOOOOOOOOOOO        ++++++++++++++++OOOOOOOO                ",
"                                ++++++++OOOOOOOOOOOOOOOOOOOOOOOOOOOOOOOOOOOOOOOO        ++++++++++++++++OOOOOOOO                ",
"                                                                        OOOOOOOO        ++++++++        OOOOOOOO                ",
"                                                                        OOOOOOOO        ++++++++        OOOOOOOO                ",
"                                                                        OOOOOOOO        ++++++++        OOOOOOOO                ",
"                                                                        OOOOOOOO        ++++++++        OOOOOOOO                ",
"                                                                        OOOOOOOO        ++++++++        OOOOOOOO                ",
"                                                                        OOOOOOOO        ++++++++        OOOOOOOO                ",
"                                                                        OOOOOOOO        ++++++++        OOOOOOOO                ",
"                                                                        OOOOOOOO        ++++++++        OOOOOOOO                ",
"                                                                        OOOOOOOO        ++++++++        OOOOOOOO                ",
"                                                                        OOOOOOOO        ++++++++        OOOOOOOO                ",
"                                                                        OOOOOOOO        ++++++++        OOOOOOOO                ",
"                                                                        OOOOOOOO        ++++++++        OOOOOOOO                ",
"                                                                        OOOOOOOO        ++++++++        OOOOOOOO                ",
"                                                                        OOOOOOOO        ++++++++        OOOOOOOO                ",
"                                                                        OOOOOOOO        ++++++++        OOOOOOOO                ",
"                                                                        OOOOOOOO        ++++++++        OOOOOOOO                ",
"                                OOOOOOOO                ++++++++OOOOOOOOOOOOOOOO        ++++++++        OOOOOOOO                ",
"                                OOOOOOOO                ++++++++OOOOOOOOOOOOOOOO        ++++++++        OOOOOOOO                ",
"                                OOOOOOOO                ++++++++OOOOOOOOOOOOOOOO        ++++++++        OOOOOOOO                ",
"                                OOOOOOOO                ++++++++OOOOOOOOOOOOOOOO        ++++++++        OOOOOOOO                ",
"                                OOOOOOOO                ++++++++OOOOOOOOOOOOOOOO        ++++++++        OOOOOOOO                ",
"                                OOOOOOOO                ++++++++OOOOOOOOOOOOOOOO        ++++++++        OOOOOOOO                ",
"                                OOOOOOOO                ++++++++OOOOOOOOOOOOOOOO        ++++++++        OOOOOOOO                ",
"                                OOOOOOOO                ++++++++OOOOOOOOOOOOOOOO        ++++++++        OOOOOOOO                ",
"                        ooooooooOOOOOOOO                OOOOOOOOOOOOOOOO        oooooooo++++++++        OOOOOOOOoooooooo        ",
"                        ooooooooOOOOOOOO                OOOOOOOOOOOOOOOO        oooooooo++++++++        OOOOOOOOoooooooo        ",
"                        ooooooooOOOOOOOO                OOOOOOOOOOOOOOOO        oooooooo++++++++        OOOOOOOOoooooooo        ",
"                        ooooooooOOOOOOOO                OOOOOOOOOOOOOOOO        oooooooo++++++++        OOOOOOOOoooooooo        ",
"                        ooooooooOOOOOOOO                OOOOOOOOOOOOOOOO        oooooooo++++++++        OOOOOOOOoooooooo        ",
"                        ooooooooOOOOOOOO                OOOOOOOOOOOOOOOO        oooooooo++++++++        OOOOOOOOoooooooo        ",
"                        ooooooooOOOOOOOO                OOOOOOOOOOOOOOOO        oooooooo++++++++        OOOOOOOOoooooooo        ",
"                        ooooooooOOOOOOOO                OOOOOOOOOOOOOOOO        oooooooo++++++++        OOOOOOOOoooooooo        ",
"                ooooooooooooooooXXXXXXXX++++++++++++++++++++++++OOOOOOOO                oooooooooooooooooooooooo                ",
"                ooooooooooooooooXXXXXXXX++++++++++++++++++++++++OOOOOOOO                oooooooooooooooooooooooo                ",
"                ooooooooooooooooXXXXXXXX++++++++++++++++++++++++OOOOOOOO                oooooooooooooooooooooooo                ",
"                ooooooooooooooooXXXXXXXX++++++++++++++++++++++++OOOOOOOO                oooooooooooooooooooooooo                ",
"                ooooooooooooooooXXXXXXXX++++++++++++++++++++++++OOOOOOOO                oooooooooooooooooooooooo                ",
"                ooooooooooooooooXXXXXXXX++++++++++++++++++++++++OOOOOOOO                oooooooooooooooooooooooo                ",
"                ooooooooooooooooXXXXXXXX++++++++++++++++++++++++OOOOOOOO                oooooooooooooooooooooooo                ",
"                ooooooooooooooooXXXXXXXX++++++++++++++++++++++++OOOOOOOO                oooooooooooooooooooooooo                ",
"                                        ++++++++++++++++OOOOOOOOOOOOOOOOOOOOOOOO        XXXXXXXXXXXXXXXXXXXXXXXX                ",
"                                        ++++++++++++++++OOOOOOOOOOOOOOOOOOOOOOOO        XXXXXXXXXXXXXXXXXXXXXXXX                ",
"                                        ++++++++++++++++OOOOOOOOOOOOOOOOOOOOOOOO        XXXXXXXXXXXXXXXXXXXXXXXX                ",
"                                        ++++++++++++++++OOOOOOOOOOOOOOOOOOOOOOOO        XXXXXXXXXXXXXXXXXXXXXXXX                ",
"                                        ++++++++++++++++OOOOOOOOOOOOOOOOOOOOOOOO        XXXXXXXXXXXXXXXXXXXXXXXX                ",
"                                        ++++++++++++++++OOOOOOOOOOOOOOOOOOOOOOOO        XXXXXXXXXXXXXXXXXXXXXXXX                ",
"                                        ++++++++++++++++OOOOOOOOOOOOOOOOOOOOOOOO        XXXXXXXXXXXXXXXXXXXXXXXX                ",
"                                        ++++++++++++++++OOOOOOOOOOOOOOOOOOOOOOOO        XXXXXXXXXXXXXXXXXXXXXXXX                ",
"                        XXXXXXXXXXXXXXXXXXXXXXXXOOOOOOOOOOOOOOOOOOOOOOOOXXXXXXXXXXXXXXXXoooooooooooooooooooooooo                ",
"                        XXXXXXXXXXXXXXXXXXXXXXXXOOOOOOOOOOOOOOOOOOOOOOOOXXXXXXXXXXXXXXXXoooooooooooooooooooooooo                ",
"                        XXXXXXXXXXXXXXXXXXXXXXXXOOOOOOOOOOOOOOOOOOOOOOOOXXXXXXXXXXXXXXXXoooooooooooooooooooooooo                ",
"                        XXXXXXXXXXXXXXXXXXXXXXXXOOOOOOOOOOOOOOOOOOOOOOOOXXXXXXXXXXXXXXXXoooooooooooooooooooooooo                ",
"                        XXXXXXXXXXXXXXXXXXXXXXXXOOOOOOOOOOOOOOOOOOOOOOOOXXXXXXXXXXXXXXXXoooooooooooooooooooooooo                ",
"                        XXXXXXXXXXXXXXXXXXXXXXXXOOOOOOOOOOOOOOOOOOOOOOOOXXXXXXXXXXXXXXXXoooooooooooooooooooooooo                ",
"                        XXXXXXXXXXXXXXXXXXXXXXXXOOOOOOOOOOOOOOOOOOOOOOOOXXXXXXXXXXXXXXXXoooooooooooooooooooooooo                ",
"                        XXXXXXXXXXXXXXXXXXXXXXXXOOOOOOOOOOOOOOOOOOOOOOOOXXXXXXXXXXXXXXXXoooooooooooooooooooooooo                ",
"                XXXXXXXXXXXXXXXX++++++++OOOOOOOOXXXXXXXXXXXXXXXXXXXXXXXXOOOOOOOO++++++++XXXXXXXXXXXXXXXXXXXXXXXX                ",
"                XXXXXXXXXXXXXXXX++++++++OOOOOOOOXXXXXXXXXXXXXXXXXXXXXXXXOOOOOOOO++++++++XXXXXXXXXXXXXXXXXXXXXXXX                ",
"                XXXXXXXXXXXXXXXX++++++++OOOOOOOOXXXXXXXXXXXXXXXXXXXXXXXXOOOOOOOO++++++++XXXXXXXXXXXXXXXXXXXXXXXX                ",
"                XXXXXXXXXXXXXXXX++++++++OOOOOOOOXXXXXXXXXXXXXXXXXXXXXXXXOOOOOOOO++++++++XXXXXXXXXXXXXXXXXXXXXXXX                ",
"                XXXXXXXXXXXXXXXX++++++++OOOOOOOOXXXXXXXXXXXXXXXXXXXXXXXXOOOOOOOO++++++++XXXXXXXXXXXXXXXXXXXXXXXX                ",
"                XXXXXXXXXXXXXXXX++++++++OOOOOOOOXXXXXXXXXXXXXXXXXXXXXXXXOOOOOOOO++++++++XXXXXXXXXXXXXXXXXXXXXXXX                ",
"                XXXXXXXXXXXXXXXX++++++++OOOOOOOOXXXXXXXXXXXXXXXXXXXXXXXXOOOOOOOO++++++++XXXXXXXXXXXXXXXXXXXXXXXX                ",
"                XXXXXXXXXXXXXXXX++++++++OOOOOOOOXXXXXXXXXXXXXXXXXXXXXXXXOOOOOOOO++++++++XXXXXXXXXXXXXXXXXXXXXXXX                ",
"        XXXXXXXXXXXXXXXX++++++++++++++++OOOOOOOOXXXXXXXXXXXXXXXXXXXXXXXXOOOOOOOOOOOOOOOOOOOOOOOOXXXXXXXXXXXXXXXXXXXXXXXX        ",
"        XXXXXXXXXXXXXXXX++++++++++++++++OOOOOOOOXXXXXXXXXXXXXXXXXXXXXXXXOOOOOOOOOOOOOOOOOOOOOOOOXXXXXXXXXXXXXXXXXXXXXXXX        ",
"        XXXXXXXXXXXXXXXX++++++++++++++++OOOOOOOOXXXXXXXXXXXXXXXXXXXXXXXXOOOOOOOOOOOOOOOOOOOOOOOOXXXXXXXXXXXXXXXXXXXXXXXX        ",
"        XXXXXXXXXXXXXXXX++++++++++++++++OOOOOOOOXXXXXXXXXXXXXXXXXXXXXXXXOOOOOOOOOOOOOOOOOOOOOOOOXXXXXXXXXXXXXXXXXXXXXXXX        ",
"        XXXXXXXXXXXXXXXX++++++++++++++++OOOOOOOOXXXXXXXXXXXXXXXXXXXXXXXXOOOOOOOOOOOOOOOOOOOOOOOOXXXXXXXXXXXXXXXXXXXXXXXX        ",
"        XXXXXXXXXXXXXXXX++++++++++++++++OOOOOOOOXXXXXXXXXXXXXXXXXXXXXXXXOOOOOOOOOOOOOOOOOOOOOOOOXXXXXXXXXXXXXXXXXXXXXXXX        ",
"        XXXXXXXXXXXXXXXX++++++++++++++++OOOOOOOOXXXXXXXXXXXXXXXXXXXXXXXXOOOOOOOOOOOOOOOOOOOOOOOOXXXXXXXXXXXXXXXXXXXXXXXX        ",
"        XXXXXXXXXXXXXXXX++++++++++++++++OOOOOOOOXXXXXXXXXXXXXXXXXXXXXXXXOOOOOOOOOOOOOOOOOOOOOOOOXXXXXXXXXXXXXXXXXXXXXXXX        ",
"                XXXXXXXXOOOOOOOOOOOOOOOOOOOOOOOOXXXXXXXXXXXXXXXXXXXXXXXXXXXXXXXXOOOOOOOOOOOOOOOOOOOOOOOOXXXXXXXX                ",
"                XXXXXXXXOOOOOOOOOOOOOOOOOOOOOOOOXXXXXXXXXXXXXXXXXXXXXXXXXXXXXXXXOOOOOOOOOOOOOOOOOOOOOOOOXXXXXXXX                ",
"                XXXXXXXXOOOOOOOOOOOOOOOOOOOOOOOOXXXXXXXXXXXXXXXXXXXXXXXXXXXXXXXXOOOOOOOOOOOOOOOOOOOOOOOOXXXXXXXX                ",
"                XXXXXXXXOOOOOOOOOOOOOOOOOOOOOOOOXXXXXXXXXXXXXXXXXXXXXXXXXXXXXXXXOOOOOOOOOOOOOOOOOOOOOOOOXXXXXXXX                ",
"                XXXXXXXXOOOOOOOOOOOOOOOOOOOOOOOOXXXXXXXXXXXXXXXXXXXXXXXXXXXXXXXXOOOOOOOOOOOOOOOOOOOOOOOOXXXXXXXX                ",
"                XXXXXXXXOOOOOOOOOOOOOOOOOOOOOOOOXXXXXXXXXXXXXXXXXXXXXXXXXXXXXXXXOOOOOOOOOOOOOOOOOOOOOOOOXXXXXXXX                ",
"                XXXXXXXXOOOOOOOOOOOOOOOOOOOOOOOOXXXXXXXXXXXXXXXXXXXXXXXXXXXXXXXXOOOOOOOOOOOOOOOOOOOOOOOOXXXXXXXX                ",
"                XXXXXXXXOOOOOOOOOOOOOOOOOOOOOOOOXXXXXXXXXXXXXXXXXXXXXXXXXXXXXXXXOOOOOOOOOOOOOOOOOOOOOOOOXXXXXXXX                ",
"                        XXXXXXXXXXXXXXXXXXXXXXXXXXXXXXXXXXXXXXXXXXXXXXXXXXXXXXXXXXXXXXXXXXXXXXXXXXXXXXXX                        ",
"                        XXXXXXXXXXXXXXXXXXXXXXXXXXXXXXXXXXXXXXXXXXXXXXXXXXXXXXXXXXXXXXXXXXXXXXXXXXXXXXXX                        ",
"                        XXXXXXXXXXXXXXXXXXXXXXXXXXXXXXXXXXXXXXXXXXXXXXXXXXXXXXXXXXXXXXXXXXXXXXXXXXXXXXXX                        ",
"                        XXXXXXXXXXXXXXXXXXXXXXXXXXXXXXXXXXXXXXXXXXXXXXXXXXXXXXXXXXXXXXXXXXXXXXXXXXXXXXXX                        ",
"                        XXXXXXXXXXXXXXXXXXXXXXXXXXXXXXXXXXXXXXXXXXXXXXXXXXXXXXXXXXXXXXXXXXXXXXXXXXXXXXXX                        ",
"                        XXXXXXXXXXXXXXXXXXXXXXXXXXXXXXXXXXXXXXXXXXXXXXXXXXXXXXXXXXXXXXXXXXXXXXXXXXXXXXXX                        ",
"                        XXXXXXXXXXXXXXXXXXXXXXXXXXXXXXXXXXXXXXXXXXXXXXXXXXXXXXXXXXXXXXXXXXXXXXXXXXXXXXXX                        ",
"                        XXXXXXXXXXXXXXXXXXXXXXXXXXXXXXXXXXXXXXXXXXXXXXXXXXXXXXXXXXXXXXXXXXXXXXXXXXXXXXXX                        "
};
