/* XPM */
static char *player_up1[] = {
/* columns rows colors chars-per-pixel */
"128 128 6 1 ",
"  c #09020E",
". c #09020E",
"X c #1E122D",
"o c #51487A",
"O c #7A80A5",
"+ c #A6ADC3",
/* pixels */
"                                                                                                                                ",
"                                                                                                                                ",
"                                                                                                                                ",
"                                                                                                                                ",
"                                                                                                                                ",
"                                                                                                                                ",
"                                                                                                                                ",
"                                                                                                                                ",
"                                                                                                OOOOOOOO                        ",
"                                                                                                OOOOOOOO                        ",
"                                                                                                OOOOOOOO                        ",
"                                                                                                OOOOOOOO                        ",
"                                                                                                OOOOOOOO                        ",
"                                                                                                OOOOOOOO                        ",
"                                                                                                OOOOOOOO                        ",
"                                                                                                OOOOOOOO                        ",
"                                        OOOOOOOOOOOOOOOOOOOOOOOOoooooooo                        OOOOOOOO                        ",
"                                        OOOOOOOOOOOOOOOOOOOOOOOOoooooooo                        OOOOOOOO                        ",
"                                        OOOOOOOOOOOOOOOOOOOOOOOOoooooooo                        OOOOOOOO                        ",
"                                        OOOOOOOOOOOOOOOOOOOOOOOOoooooooo                        OOOOOOOO                        ",
"                                        OOOOOOOOOOOOOOOOOOOOOOOOoooooooo                        OOOOOOOO                        ",
"                                        OOOOOOOOOOOOOOOOOOOOOOOOoooooooo                        OOOOOOOO                        ",
"                                        OOOOOOOOOOOOOOOOOOOOOOOOoooooooo                        OOOOOOOO                        ",
"                                        OOOOOOOOOOOOOOOOOOOOOOOOoooooooo                        OOOOOOOO                        ",
"                                OOOOOOOOOOOOOOOOOOOOOOOOoooooooooooooooooooooooo        OOOOOOOOOOOOOOOOoooooooo                ",
"                                OOOOOOOOOOOOOOOOOOOOOOOOoooooooooooooooooooooooo        OOOOOOOOOOOOOOOOoooooooo                ",
"                                OOOOOOOOOOOOOOOOOOOOOOOOoooooooooooooooooooooooo        OOOOOOOOOOOOOOOOoooooooo                ",
"                                OOOOOOOOOOOOOOOOOOOOOOOOoooooooooooooooooooooooo        OOOOOOOOOOOOOOOOoooooooo                ",
"                                OOOOOOOOOOOOOOOOOOOOOOOOoooooooooooooooooooooooo        OOOOOOOOOOOOOOOOoooooooo                ",
"                                OOOOOOOOOOOOOOOOOOOOOOOOoooooooooooooooooooooooo        OOOOOOOOOOOOOOOOoooooooo                ",
"                                OOOOOOOOOOOOOOOOOOOOOOOOoooooooooooooooooooooooo        OOOOOOOOOOOOOOOOoooooooo                ",
"                                OOOOOOOOOOOOOOOOOOOOOOOOoooooooooooooooooooooooo        OOOOOOOOOOOOOOOOoooooooo                ",
"                                OOOOOOOOoooooooooooooooooooooooooooooooooooooooo        OOOOOOOOOOOOOOOOoooooooo                ",
"                                OOOOOOOOoooooooooooooooooooooooooooooooooooooooo        OOOOOOOOOOOOOOOOoooooooo                ",
"                                OOOOOOOOoooooooooooooooooooooooooooooooooooooooo        OOOOOOOOOOOOOOOOoooooooo                ",
"                                OOOOOOOOoooooooooooooooooooooooooooooooooooooooo        OOOOOOOOOOOOOOOOoooooooo                ",
"                                OOOOOOOOoooooooooooooooooooooooooooooooooooooooo        OOOOOOOOOOOOOOOOoooooooo                ",
"                                OOOOOOOOoooooooooooooooooooooooooooooooooooooooo        OOOOOOOOOOOOOOOOoooooooo                ",
"                                OOOOOOOOoooooooooooooooooooooooooooooooooooooooo        OOOOOOOOOOOOOOOOoooooooo                ",
"                                OOOOOOOOoooooooooooooooooooooooooooooooooooooooo        OOOOOOOOOOOOOOOOoooooooo                ",
"                                                                        oooooooo        OOOOOOOO        oooooooo                ",
"                                                                        oooooooo        OOOOOOOO        oooooooo                ",
"                                                                        oooooooo        OOOOOOOO        oooooooo                ",
"                                                                        oooooooo        OOOOOOOO        oooooooo                ",
"                                                                        oooooooo        OOOOOOOO        oooooooo                ",
"                                                                        oooooooo        OOOOOOOO        oooooooo                ",
"                                                                        oooooooo        OOOOOOOO        oooooooo                ",
"                                                                        oooooooo        OOOOOOOO        oooooooo                ",
"                                                                        oooooooo        OOOOOOOO        oooooooo                ",
"                                                                        oooooooo        OOOOOOOO        oooooooo                ",
"                                                                        oooooooo        OOOOOOOO        oooooooo                ",
"                                                                        oooooooo        OOOOOOOO        oooooooo                ",
"                                                                        oooooooo        OOOOOOOO        oooooooo                ",
"                                                                        oooooooo        OOOOOOOO        oooooooo                ",
"                                                                        oooooooo        OOOOOOOO        oooooooo                ",
"                                                                        oooooooo        OOOOOOOO        oooooooo                ",
"                                oooooooo                OOOOOOOOoooooooooooooooo        OOOOOOOO        oooooooo                ",
"                                oooooooo                OOOOOOOOoooooooooooooooo        OOOOOOOO        oooooooo                ",
"                                oooooooo                OOOOOOOOoooooooooooooooo        OOOOOOOO        oooooooo                ",
"                                oooooooo                OOOOOOOOoooooooooooooooo        OOOOOOOO        oooooooo                ",
"                                oooooooo                OOOOOOOOoooooooooooooooo        OOOOOOOO        oooooooo                ",
"                                oooooooo                OOOOOOOOoooooooooooooooo        OOOOOOOO        oooooooo                ",
"                                oooooooo                OOOOOOOOoooooooooooooooo        OOOOOOOO        oooooooo                ",
"                                oooooooo                OOOOOOOOoooooooooooooooo        OOOOOOOO        oooooooo                ",
"                        XXXXXXXXoooooooo                oooooooooooooooo        XXXXXXXXOOOOOOOO        ooooooooXXXXXXXX        ",
"                        XXXXXXXXoooooooo                oooooooooooooooo        XXXXXXXXOOOOOOOO        ooooooooXXXXXXXX        ",
"                        XXXXXXXXoooooooo                oooooooooooooooo        XXXXXXXXOOOOOOOO        ooooooooXXXXXXXX        ",
"                        XXXXXXXXoooooooo                oooooooooooooooo        XXXXXXXXOOOOOOOO        ooooooooXXXXXXXX        ",
"                        XXXXXXXXoooooooo                oooooooooooooooo        XXXXXXXXOOOOOOOO        ooooooooXXXXXXXX        ",
"                        XXXXXXXXoooooooo                oooooooooooooooo        XXXXXXXXOOOOOOOO        ooooooooXXXXXXXX        ",
"                        XXXXXXXXoooooooo                oooooooooooooooo        XXXXXXXXOOOOOOOO        ooooooooXXXXXXXX        ",
"                        XXXXXXXXoooooooo                oooooooooooooooo        XXXXXXXXOOOOOOOO        ooooooooXXXXXXXX        ",
"                XXXXXXXXXXXXXXXXXXXXXXXXOOOOOOOOOOOOOOOOOOOOOOOOoooooooo                XXXXXXXXXXXXXXXXXXXXXXXX                ",
"                XXXXXXXXXXXXXXXXXXXXXXXXOOOOOOOOOOOOOOOOOOOOOOOOoooooooo                XXXXXXXXXXXXXXXXXXXXXXXX                ",
"                XXXXXXXXXXXXXXXXXXXXXXXXOOOOOOOOOOOOOOOOOOOOOOOOoooooooo                XXXXXXXXXXXXXXXXXXXXXXXX                ",
"                XXXXXXXXXXXXXXXXXXXXXXXXOOOOOOOOOOOOOOOOOOOOOOOOoooooooo                XXXXXXXXXXXXXXXXXXXXXXXX                ",
"                XXXXXXXXXXXXXXXXXXXXXXXXOOOOOOOOOOOOOOOOOOOOOOOOoooooooo                XXXXXXXXXXXXXXXXXXXXXXXX                ",
"                XXXXXXXXXXXXXXXXXXXXXXXXOOOOOOOOOOOOOOOOOOOOOOOOoooooooo                XXXXXXXXXXXXXXXXXXXXXXXX                ",
"                XXXXXXXXXXXXXXXXXXXXXXXXOOOOOOOOOOOOOOOOOOOOOOOOoooooooo                XXXXXXXXXXXXXXXXXXXXXXXX                ",
"                XXXXXXXXXXXXXXXXXXXXXXXXOOOOOOOOOOOOOOOOOOOOOOOOoooooooo                XXXXXXXXXXXXXXXXXXXXXXXX                ",
"                                        OOOOOOOOOOOOOOOOoooooooooooooooooooooooo        XXXXXXXXXXXXXXXXXXXXXXXX                ",
"                                        OOOOOOOOOOOOOOOOoooooooooooooooooooooooo        XXXXXXXXXXXXXXXXXXXXXXXX                ",
"                                        OOOOOOOOOOOOOOOOoooooooooooooooooooooooo        XXXXXXXXXXXXXXXXXXXXXXXX                ",
"                                        OOOOOOOOOOOOOOOOoooooooooooooooooooooooo        XXXXXXXXXXXXXXXXXXXXXXXX                ",
"                                        OOOOOOOOOOOOOOOOoooooooooooooooooooooooo        XXXXXXXXXXXXXXXXXXXXXXXX                ",
"                                        OOOOOOOOOOOOOOOOoooooooooooooooooooooooo        XXXXXXXXXXXXXXXXXXXXXXXX                ",
"                                        OOOOOOOOOOOOOOOOoooooooooooooooooooooooo        XXXXXXXXXXXXXXXXXXXXXXXX                ",
"                                        OOOOOOOOOOOOOOOOoooooooooooooooooooooooo        XXXXXXXXXXXXXXXXXXXXXXXX                ",
"                        XXXXXXXXXXXXXXXXXXXXXXXXooooooooooooooooooooooooXXXXXXXXXXXXXXXXXXXXXXXXXXXXXXXXXXXXXXXX                ",
"                        XXXXXXXXXXXXXXXXXXXXXXXXooooooooooooooooooooooooXXXXXXXXXXXXXXXXXXXXXXXXXXXXXXXXXXXXXXXX                ",
"                        XXXXXXXXXXXXXXXXXXXXXXXXooooooooooooooooooooooooXXXXXXXXXXXXXXXXXXXXXXXXXXXXXXXXXXXXXXXX                ",
"                        XXXXXXXXXXXXXXXXXXXXXXXXooooooooooooooooooooooooXXXXXXXXXXXXXXXXXXXXXXXXXXXXXXXXXXXXXXXX                ",
"                        XXXXXXXXXXXXXXXXXXXXXXXXooooooooooooooooooooooooXXXXXXXXXXXXXXXXXXXXXXXXXXXXXXXXXXXXXXXX                ",
"                        XXXXXXXXXXXXXXXXXXXXXXXXooooooooooooooooooooooooXXXXXXXXXXXXXXXXXXXXXXXXXXXXXXXXXXXXXXXX                ",
"                        XXXXXXXXXXXXXXXXXXXXXXXXooooooooooooooooooooooooXXXXXXXXXXXXXXXXXXXXXXXXXXXXXXXXXXXXXXXX                ",
"                        XXXXXXXXXXXXXXXXXXXXXXXXooooooooooooooooooooooooXXXXXXXXXXXXXXXXXXXXXXXXXXXXXXXXXXXXXXXX                ",
"                XXXXXXXXXXXXXXXXOOOOOOOOooooooooXXXXXXXXXXXXXXXXXXXXXXXXooooooooOOOOOOOOXXXXXXXXXXXXXXXXXXXXXXXX                ",
"                XXXXXXXXXXXXXXXXOOOOOOOOooooooooXXXXXXXXXXXXXXXXXXXXXXXXooooooooOOOOOOOOXXXXXXXXXXXXXXXXXXXXXXXX                ",
"                XXXXXXXXXXXXXXXXOOOOOOOOooooooooXXXXXXXXXXXXXXXXXXXXXXXXooooooooOOOOOOOOXXXXXXXXXXXXXXXXXXXXXXXX                ",
"                XXXXXXXXXXXXXXXXOOOOOOOOooooooooXXXXXXXXXXXXXXXXXXXXXXXXooooooooOOOOOOOOXXXXXXXXXXXXXXXXXXXXXXXX                ",
"                XXXXXXXXXXXXXXXXOOOOOOOOooooooooXXXXXXXXXXXXXXXXXXXXXXXXooooooooOOOOOOOOXXXXXXXXXXXXXXXXXXXXXXXX                ",
"                XXXXXXXXXXXXXXXXOOOOOOOOooooooooXXXXXXXXXXXXXXXXXXXXXXXXooooooooOOOOOOOOXXXXXXXXXXXXXXXXXXXXXXXX                ",
"                XXXXXXXXXXXXXXXXOOOOOOOOooooooooXXXXXXXXXXXXXXXXXXXXXXXXooooooooOOOOOOOOXXXXXXXXXXXXXXXXXXXXXXXX                ",
"                XXXXXXXXXXXXXXXXOOOOOOOOooooooooXXXXXXXXXXXXXXXXXXXXXXXXooooooooOOOOOOOOXXXXXXXXXXXXXXXXXXXXXXXX                ",
"        XXXXXXXXXXXXXXXXOOOOOOOOOOOOOOOOooooooooXXXXXXXXXXXXXXXXXXXXXXXXooooooooooooooooooooooooXXXXXXXXXXXXXXXXXXXXXXXX        ",
"        XXXXXXXXXXXXXXXXOOOOOOOOOOOOOOOOooooooooXXXXXXXXXXXXXXXXXXXXXXXXooooooooooooooooooooooooXXXXXXXXXXXXXXXXXXXXXXXX        ",
"        XXXXXXXXXXXXXXXXOOOOOOOOOOOOOOOOooooooooXXXXXXXXXXXXXXXXXXXXXXXXooooooooooooooooooooooooXXXXXXXXXXXXXXXXXXXXXXXX        ",
"        XXXXXXXXXXXXXXXXOOOOOOOOOOOOOOOOooooooooXXXXXXXXXXXXXXXXXXXXXXXXooooooooooooooooooooooooXXXXXXXXXXXXXXXXXXXXXXXX        ",
"        XXXXXXXXXXXXXXXXOOOOOOOOOOOOOOOOooooooooXXXXXXXXXXXXXXXXXXXXXXXXooooooooooooooooooooooooXXXXXXXXXXXXXXXXXXXXXXXX        ",
"        XXXXXXXXXXXXXXXXOOOOOOOOOOOOOOOOooooooooXXXXXXXXXXXXXXXXXXXXXXXXooooooooooooooooooooooooXXXXXXXXXXXXXXXXXXXXXXXX        ",
"        XXXXXXXXXXXXXXXXOOOOOOOOOOOOOOOOooooooooXXXXXXXXXXXXXXXXXXXXXXXXooooooooooooooooooooooooXXXXXXXXXXXXXXXXXXXXXXXX        ",
"        XXXXXXXXXXXXXXXXOOOOOOOOOOOOOOOOooooooooXXXXXXXXXXXXXXXXXXXXXXXXooooooooooooooooooooooooXXXXXXXXXXXXXXXXXXXXXXXX        ",
"                XXXXXXXXooooooooooooooooooooooooXXXXXXXXXXXXXXXXXXXXXXXXXXXXXXXXooooooooooooooooooooooooXXXXXXXX                ",
"                XXXXXXXXooooooooooooooooooooooooXXXXXXXXXXXXXXXXXXXXXXXXXXXXXXXXooooooooooooooooooooooooXXXXXXXX                ",
"                XXXXXXXXooooooooooooooooooooooooXXXXXXXXXXXXXXXXXXXXXXXXXXXXXXXXooooooooooooooooooooooooXXXXXXXX                ",
"                XXXXXXXXooooooooooooooooooooooooXXXXXXXXXXXXXXXXXXXXXXXXXXXXXXXXooooooooooooooooooooooooXXXXXXXX                ",
"                XXXXXXXXooooooooooooooooooooooooXXXXXXXXXXXXXXXXXXXXXXXXXXXXXXXXooooooooooooooooooooooooXXXXXXXX                ",
"                XXXXXXXXooooooooooooooooooooooooXXXXXXXXXXXXXXXXXXXXXXXXXXXXXXXXooooooooooooooooooooooooXXXXXXXX                ",
"                XXXXXXXXooooooooooooooooooooooooXXXXXXXXXXXXXXXXXXXXXXXXXXXXXXXXooooooooooooooooooooooooXXXXXXXX                ",
"                XXXXXXXXooooooooooooooooooooooooXXXXXXXXXXXXXXXXXXXXXXXXXXXXXXXXooooooooooooooooooooooooXXXXXXXX                ",
"                        XXXXXXXXXXXXXXXXXXXXXXXXXXXXXXXXXXXXXXXXXXXXXXXXXXXXXXXXXXXXXXXXXXXXXXXXXXXXXXXX                        ",
"                        XXXXXXXXXXXXXXXXXXXXXXXXXXXXXXXXXXXXXXXXXXXXXXXXXXXXXXXXXXXXXXXXXXXXXXXXXXXXXXXX                        ",
"                        XXXXXXXXXXXXXXXXXXXXXXXXXXXXXXXXXXXXXXXXXXXXXXXXXXXXXXXXXXXXXXXXXXXXXXXXXXXXXXXX                        ",
"                        XXXXXXXXXXXXXXXXXXXXXXXXXXXXXXXXXXXXXXXXXXXXXXXXXXXXXXXXXXXXXXXXXXXXXXXXXXXXXXXX                        ",
"                        XXXXXXXXXXXXXXXXXXXXXXXXXXXXXXXXXXXXXXXXXXXXXXXXXXXXXXXXXXXXXXXXXXXXXXXXXXXXXXXX                        ",
"                        XXXXXXXXXXXXXXXXXXXXXXXXXXXXXXXXXXXXXXXXXXXXXXXXXXXXXXXXXXXXXXXXXXXXXXXXXXXXXXXX                        ",
"                        XXXXXXXXXXXXXXXXXXXXXXXXXXXXXXXXXXXXXXXXXXXXXXXXXXXXXXXXXXXXXXXXXXXXXXXXXXXXXXXX                        ",
"                        XXXXXXXXXXXXXXXXXXXXXXXXXXXXXXXXXXXXXXXXXXXXXXXXXXXXXXXXXXXXXXXXXXXXXXXXXXXXXXXX                        "
};
