/* XPM */
static char *player[] = {
/* columns rows colors chars-per-pixel */
"128 128 6 1 ",
"  c #09020E",
". c #09020E",
"X c #1E122D",
"o c #51487A",
"O c #7A80A5",
"+ c #A6ADC3",
/* pixels */
"                                                                                                                                ",
"                                                                                                                                ",
"                                                                                                                                ",
"                                                                                                                                ",
"                                                                                                                                ",
"                                                                                                                                ",
"                                                                                                                                ",
"                                                                                                                                ",
"                                        OOOOOOOOOOOOOOOOOOOOOOOOOOOOOOOOOOOOOOOOOOOOOOOO                                        ",
"                                        OOOOOOOOOOOOOOOOOOOOOOOOOOOOOOOOOOOOOOOOOOOOOOOO                                        ",
"                                        OOOOOOOOOOOOOOOOOOOOOOOOOOOOOOOOOOOOOOOOOOOOOOOO                                        ",
"                                        OOOOOOOOOOOOOOOOOOOOOOOOOOOOOOOOOOOOOOOOOOOOOOOO                                        ",
"                                        OOOOOOOOOOOOOOOOOOOOOOOOOOOOOOOOOOOOOOOOOOOOOOOO                                        ",
"                                        OOOOOOOOOOOOOOOOOOOOOOOOOOOOOOOOOOOOOOOOOOOOOOOO                                        ",
"                                        OOOOOOOOOOOOOOOOOOOOOOOOOOOOOOOOOOOOOOOOOOOOOOOO                                        ",
"                                        OOOOOOOOOOOOOOOOOOOOOOOOOOOOOOOOOOOOOOOOOOOOOOOO                                        ",
"                ++++++++        OOOOOOOO++++++++++++++++++++++++OOOOOOOOOOOOOOOOOOOOOOOOOOOOOOOO                                ",
"                ++++++++        OOOOOOOO++++++++++++++++++++++++OOOOOOOOOOOOOOOOOOOOOOOOOOOOOOOO                                ",
"                ++++++++        OOOOOOOO++++++++++++++++++++++++OOOOOOOOOOOOOOOOOOOOOOOOOOOOOOOO                                ",
"                ++++++++        OOOOOOOO++++++++++++++++++++++++OOOOOOOOOOOOOOOOOOOOOOOOOOOOOOOO                                ",
"                ++++++++        OOOOOOOO++++++++++++++++++++++++OOOOOOOOOOOOOOOOOOOOOOOOOOOOOOOO                                ",
"                ++++++++        OOOOOOOO++++++++++++++++++++++++OOOOOOOOOOOOOOOOOOOOOOOOOOOOOOOO                                ",
"                ++++++++        OOOOOOOO++++++++++++++++++++++++OOOOOOOOOOOOOOOOOOOOOOOOOOOOOOOO                                ",
"                ++++++++        OOOOOOOO++++++++++++++++++++++++OOOOOOOOOOOOOOOOOOOOOOOOOOOOOOOO                                ",
"        OOOOOOOO++++++++OOOOOOOOoooooooo........++++++++oooooooo........OOOOOOOOOOOOOOOOOOOOOOOO                                ",
"        OOOOOOOO++++++++OOOOOOOOoooooooo........++++++++oooooooo........OOOOOOOOOOOOOOOOOOOOOOOO                                ",
"        OOOOOOOO++++++++OOOOOOOOoooooooo........++++++++oooooooo........OOOOOOOOOOOOOOOOOOOOOOOO                                ",
"        OOOOOOOO++++++++OOOOOOOOoooooooo........++++++++oooooooo........OOOOOOOOOOOOOOOOOOOOOOOO                                ",
"        OOOOOOOO++++++++OOOOOOOOoooooooo........++++++++oooooooo........OOOOOOOOOOOOOOOOOOOOOOOO                                ",
"        OOOOOOOO++++++++OOOOOOOOoooooooo........++++++++oooooooo........OOOOOOOOOOOOOOOOOOOOOOOO                                ",
"        OOOOOOOO++++++++OOOOOOOOoooooooo........++++++++oooooooo........OOOOOOOOOOOOOOOOOOOOOOOO                                ",
"        OOOOOOOO++++++++OOOOOOOOoooooooo........++++++++oooooooo........OOOOOOOOOOOOOOOOOOOOOOOO                                ",
"        OOOOOOOO++++++++OOOOOOOOoooooooo........++++++++oooooooo........OOOOOOOOOOOOOOOOOOOOOOOO                                ",
"        OOOOOOOO++++++++OOOOOOOOoooooooo........++++++++oooooooo........OOOOOOOOOOOOOOOOOOOOOOOO                                ",
"        OOOOOOOO++++++++OOOOOOOOoooooooo........++++++++oooooooo........OOOOOOOOOOOOOOOOOOOOOOOO                                ",
"        OOOOOOOO++++++++OOOOOOOOoooooooo........++++++++oooooooo........OOOOOOOOOOOOOOOOOOOOOOOO                                ",
"        OOOOOOOO++++++++OOOOOOOOoooooooo........++++++++oooooooo........OOOOOOOOOOOOOOOOOOOOOOOO                                ",
"        OOOOOOOO++++++++OOOOOOOOoooooooo........++++++++oooooooo........OOOOOOOOOOOOOOOOOOOOOOOO                                ",
"        OOOOOOOO++++++++OOOOOOOOoooooooo........++++++++oooooooo........OOOOOOOOOOOOOOOOOOOOOOOO                                ",
"        OOOOOOOO++++++++OOOOOOOOoooooooo........++++++++oooooooo........OOOOOOOOOOOOOOOOOOOOOOOO                                ",
"        OOOOOOOO++++++++OOOOOOOOoooooooo........OOOOOOOOoooooooo........OOOOOOOOOOOOOOOOOOOOOOOO                                ",
"        OOOOOOOO++++++++OOOOOOOOoooooooo........OOOOOOOOoooooooo........OOOOOOOOOOOOOOOOOOOOOOOO                                ",
"        OOOOOOOO++++++++OOOOOOOOoooooooo........OOOOOOOOoooooooo........OOOOOOOOOOOOOOOOOOOOOOOO                                ",
"        OOOOOOOO++++++++OOOOOOOOoooooooo........OOOOOOOOoooooooo........OOOOOOOOOOOOOOOOOOOOOOOO                                ",
"        OOOOOOOO++++++++OOOOOOOOoooooooo........OOOOOOOOoooooooo........OOOOOOOOOOOOOOOOOOOOOOOO                                ",
"        OOOOOOOO++++++++OOOOOOOOoooooooo........OOOOOOOOoooooooo........OOOOOOOOOOOOOOOOOOOOOOOO                                ",
"        OOOOOOOO++++++++OOOOOOOOoooooooo........OOOOOOOOoooooooo........OOOOOOOOOOOOOOOOOOOOOOOO                                ",
"        OOOOOOOO++++++++OOOOOOOOoooooooo........OOOOOOOOoooooooo........OOOOOOOOOOOOOOOOOOOOOOOO                                ",
"        OOOOOOOO++++++++        OOOOOOOOOOOOOOOO........OOOOOOOOOOOOOOOOoooooooooooooooooooooooooooooooooooooooooooooooo        ",
"        OOOOOOOO++++++++        OOOOOOOOOOOOOOOO........OOOOOOOOOOOOOOOOoooooooooooooooooooooooooooooooooooooooooooooooo        ",
"        OOOOOOOO++++++++        OOOOOOOOOOOOOOOO........OOOOOOOOOOOOOOOOoooooooooooooooooooooooooooooooooooooooooooooooo        ",
"        OOOOOOOO++++++++        OOOOOOOOOOOOOOOO........OOOOOOOOOOOOOOOOoooooooooooooooooooooooooooooooooooooooooooooooo        ",
"        OOOOOOOO++++++++        OOOOOOOOOOOOOOOO........OOOOOOOOOOOOOOOOoooooooooooooooooooooooooooooooooooooooooooooooo        ",
"        OOOOOOOO++++++++        OOOOOOOOOOOOOOOO........OOOOOOOOOOOOOOOOoooooooooooooooooooooooooooooooooooooooooooooooo        ",
"        OOOOOOOO++++++++        OOOOOOOOOOOOOOOO........OOOOOOOOOOOOOOOOoooooooooooooooooooooooooooooooooooooooooooooooo        ",
"        OOOOOOOO++++++++        OOOOOOOOOOOOOOOO........OOOOOOOOOOOOOOOOoooooooooooooooooooooooooooooooooooooooooooooooo        ",
"        OOOOOOOO++++++++        OOOOOOOO........OOOOOOOO........OOOOOOOOoooooooo++++++++++++++++++++++++OOOOOOOOoooooooo        ",
"        OOOOOOOO++++++++        OOOOOOOO........OOOOOOOO........OOOOOOOOoooooooo++++++++++++++++++++++++OOOOOOOOoooooooo        ",
"        OOOOOOOO++++++++        OOOOOOOO........OOOOOOOO........OOOOOOOOoooooooo++++++++++++++++++++++++OOOOOOOOoooooooo        ",
"        OOOOOOOO++++++++        OOOOOOOO........OOOOOOOO........OOOOOOOOoooooooo++++++++++++++++++++++++OOOOOOOOoooooooo        ",
"        OOOOOOOO++++++++        OOOOOOOO........OOOOOOOO........OOOOOOOOoooooooo++++++++++++++++++++++++OOOOOOOOoooooooo        ",
"        OOOOOOOO++++++++        OOOOOOOO........OOOOOOOO........OOOOOOOOoooooooo++++++++++++++++++++++++OOOOOOOOoooooooo        ",
"        OOOOOOOO++++++++        OOOOOOOO........OOOOOOOO........OOOOOOOOoooooooo++++++++++++++++++++++++OOOOOOOOoooooooo        ",
"        OOOOOOOO++++++++        OOOOOOOO........OOOOOOOO........OOOOOOOOoooooooo++++++++++++++++++++++++OOOOOOOOoooooooo        ",
"        ++++++++++++++++++++++++        ................................oooooooo++++++++++++++++OOOOOOOOOOOOOOOOoooooooo        ",
"        ++++++++++++++++++++++++        ................................oooooooo++++++++++++++++OOOOOOOOOOOOOOOOoooooooo        ",
"        ++++++++++++++++++++++++        ................................oooooooo++++++++++++++++OOOOOOOOOOOOOOOOoooooooo        ",
"        ++++++++++++++++++++++++        ................................oooooooo++++++++++++++++OOOOOOOOOOOOOOOOoooooooo        ",
"        ++++++++++++++++++++++++        ................................oooooooo++++++++++++++++OOOOOOOOOOOOOOOOoooooooo        ",
"        ++++++++++++++++++++++++        ................................oooooooo++++++++++++++++OOOOOOOOOOOOOOOOoooooooo        ",
"        ++++++++++++++++++++++++        ................................oooooooo++++++++++++++++OOOOOOOOOOOOOOOOoooooooo        ",
"        ++++++++++++++++++++++++        ................................oooooooo++++++++++++++++OOOOOOOOOOOOOOOOoooooooo        ",
"                OOOOOOOO++++++++        ++++++++++++++++OOOOOOOOOOOOOOOOoooooooo++++++++++++++++OOOOOOOOOOOOOOOOoooooooo        ",
"                OOOOOOOO++++++++        ++++++++++++++++OOOOOOOOOOOOOOOOoooooooo++++++++++++++++OOOOOOOOOOOOOOOOoooooooo        ",
"                OOOOOOOO++++++++        ++++++++++++++++OOOOOOOOOOOOOOOOoooooooo++++++++++++++++OOOOOOOOOOOOOOOOoooooooo        ",
"                OOOOOOOO++++++++        ++++++++++++++++OOOOOOOOOOOOOOOOoooooooo++++++++++++++++OOOOOOOOOOOOOOOOoooooooo        ",
"                OOOOOOOO++++++++        ++++++++++++++++OOOOOOOOOOOOOOOOoooooooo++++++++++++++++OOOOOOOOOOOOOOOOoooooooo        ",
"                OOOOOOOO++++++++        ++++++++++++++++OOOOOOOOOOOOOOOOoooooooo++++++++++++++++OOOOOOOOOOOOOOOOoooooooo        ",
"                OOOOOOOO++++++++        ++++++++++++++++OOOOOOOOOOOOOOOOoooooooo++++++++++++++++OOOOOOOOOOOOOOOOoooooooo        ",
"                OOOOOOOO++++++++        ++++++++++++++++OOOOOOOOOOOOOOOOoooooooo++++++++++++++++OOOOOOOOOOOOOOOOoooooooo        ",
"        oooooooooooooooooooooooo        ................OOOOOOOO........oooooooo++++++++++++++++OOOOOOOOOOOOOOOOoooooooo        ",
"        oooooooooooooooooooooooo        ................OOOOOOOO........oooooooo++++++++++++++++OOOOOOOOOOOOOOOOoooooooo        ",
"        oooooooooooooooooooooooo        ................OOOOOOOO........oooooooo++++++++++++++++OOOOOOOOOOOOOOOOoooooooo        ",
"        oooooooooooooooooooooooo        ................OOOOOOOO........oooooooo++++++++++++++++OOOOOOOOOOOOOOOOoooooooo        ",
"        oooooooooooooooooooooooo        ................OOOOOOOO........oooooooo++++++++++++++++OOOOOOOOOOOOOOOOoooooooo        ",
"        oooooooooooooooooooooooo        ................OOOOOOOO........oooooooo++++++++++++++++OOOOOOOOOOOOOOOOoooooooo        ",
"        oooooooooooooooooooooooo        ................OOOOOOOO........oooooooo++++++++++++++++OOOOOOOOOOOOOOOOoooooooo        ",
"        oooooooooooooooooooooooo        ................OOOOOOOO........oooooooo++++++++++++++++OOOOOOOOOOOOOOOOoooooooo        ",
"                OOOOOOOOOOOOOOOOXXXXXXXXOOOOOOOOOOOOOOOOOOOOOOOOOOOOOOOOoooooooo++++++++++++++++OOOOOOOOOOOOOOOOoooooooo        ",
"                OOOOOOOOOOOOOOOOXXXXXXXXOOOOOOOOOOOOOOOOOOOOOOOOOOOOOOOOoooooooo++++++++++++++++OOOOOOOOOOOOOOOOoooooooo        ",
"                OOOOOOOOOOOOOOOOXXXXXXXXOOOOOOOOOOOOOOOOOOOOOOOOOOOOOOOOoooooooo++++++++++++++++OOOOOOOOOOOOOOOOoooooooo        ",
"                OOOOOOOOOOOOOOOOXXXXXXXXOOOOOOOOOOOOOOOOOOOOOOOOOOOOOOOOoooooooo++++++++++++++++OOOOOOOOOOOOOOOOoooooooo        ",
"                OOOOOOOOOOOOOOOOXXXXXXXXOOOOOOOOOOOOOOOOOOOOOOOOOOOOOOOOoooooooo++++++++++++++++OOOOOOOOOOOOOOOOoooooooo        ",
"                OOOOOOOOOOOOOOOOXXXXXXXXOOOOOOOOOOOOOOOOOOOOOOOOOOOOOOOOoooooooo++++++++++++++++OOOOOOOOOOOOOOOOoooooooo        ",
"                OOOOOOOOOOOOOOOOXXXXXXXXOOOOOOOOOOOOOOOOOOOOOOOOOOOOOOOOoooooooo++++++++++++++++OOOOOOOOOOOOOOOOoooooooo        ",
"                OOOOOOOOOOOOOOOOXXXXXXXXOOOOOOOOOOOOOOOOOOOOOOOOOOOOOOOOoooooooo++++++++++++++++OOOOOOOOOOOOOOOOoooooooo        ",
"                XXXXXXXXXXXXXXXXOOOOOOOOooooooooooooooooooooooooooooooooXXXXXXXXoooooooooooooooooooooooooooooooo                ",
"                XXXXXXXXXXXXXXXXOOOOOOOOooooooooooooooooooooooooooooooooXXXXXXXXoooooooooooooooooooooooooooooooo                ",
"                XXXXXXXXXXXXXXXXOOOOOOOOooooooooooooooooooooooooooooooooXXXXXXXXoooooooooooooooooooooooooooooooo                ",
"                XXXXXXXXXXXXXXXXOOOOOOOOooooooooooooooooooooooooooooooooXXXXXXXXoooooooooooooooooooooooooooooooo                ",
"                XXXXXXXXXXXXXXXXOOOOOOOOooooooooooooooooooooooooooooooooXXXXXXXXoooooooooooooooooooooooooooooooo                ",
"                XXXXXXXXXXXXXXXXOOOOOOOOooooooooooooooooooooooooooooooooXXXXXXXXoooooooooooooooooooooooooooooooo                ",
"                XXXXXXXXXXXXXXXXOOOOOOOOooooooooooooooooooooooooooooooooXXXXXXXXoooooooooooooooooooooooooooooooo                ",
"                XXXXXXXXXXXXXXXXOOOOOOOOooooooooooooooooooooooooooooooooXXXXXXXXoooooooooooooooooooooooooooooooo                ",
"        XXXXXXXXOOOOOOOOOOOOOOOOXXXXXXXXXXXXXXXXooooooooooooooooXXXXXXXXOOOOOOOOOOOOOOOOXXXXXXXXXXXXXXXXXXXXXXXXXXXXXXXX        ",
"        XXXXXXXXOOOOOOOOOOOOOOOOXXXXXXXXXXXXXXXXooooooooooooooooXXXXXXXXOOOOOOOOOOOOOOOOXXXXXXXXXXXXXXXXXXXXXXXXXXXXXXXX        ",
"        XXXXXXXXOOOOOOOOOOOOOOOOXXXXXXXXXXXXXXXXooooooooooooooooXXXXXXXXOOOOOOOOOOOOOOOOXXXXXXXXXXXXXXXXXXXXXXXXXXXXXXXX        ",
"        XXXXXXXXOOOOOOOOOOOOOOOOXXXXXXXXXXXXXXXXooooooooooooooooXXXXXXXXOOOOOOOOOOOOOOOOXXXXXXXXXXXXXXXXXXXXXXXXXXXXXXXX        ",
"        XXXXXXXXOOOOOOOOOOOOOOOOXXXXXXXXXXXXXXXXooooooooooooooooXXXXXXXXOOOOOOOOOOOOOOOOXXXXXXXXXXXXXXXXXXXXXXXXXXXXXXXX        ",
"        XXXXXXXXOOOOOOOOOOOOOOOOXXXXXXXXXXXXXXXXooooooooooooooooXXXXXXXXOOOOOOOOOOOOOOOOXXXXXXXXXXXXXXXXXXXXXXXXXXXXXXXX        ",
"        XXXXXXXXOOOOOOOOOOOOOOOOXXXXXXXXXXXXXXXXooooooooooooooooXXXXXXXXOOOOOOOOOOOOOOOOXXXXXXXXXXXXXXXXXXXXXXXXXXXXXXXX        ",
"        XXXXXXXXOOOOOOOOOOOOOOOOXXXXXXXXXXXXXXXXooooooooooooooooXXXXXXXXOOOOOOOOOOOOOOOOXXXXXXXXXXXXXXXXXXXXXXXXXXXXXXXX        ",
"        OOOOOOOOOOOOOOOOOOOOOOOOXXXXXXXXXXXXXXXXXXXXXXXXXXXXXXXXXXXXXXXXOOOOOOOOOOOOOOOOOOOOOOOOXXXXXXXXXXXXXXXX                ",
"        OOOOOOOOOOOOOOOOOOOOOOOOXXXXXXXXXXXXXXXXXXXXXXXXXXXXXXXXXXXXXXXXOOOOOOOOOOOOOOOOOOOOOOOOXXXXXXXXXXXXXXXX                ",
"        OOOOOOOOOOOOOOOOOOOOOOOOXXXXXXXXXXXXXXXXXXXXXXXXXXXXXXXXXXXXXXXXOOOOOOOOOOOOOOOOOOOOOOOOXXXXXXXXXXXXXXXX                ",
"        OOOOOOOOOOOOOOOOOOOOOOOOXXXXXXXXXXXXXXXXXXXXXXXXXXXXXXXXXXXXXXXXOOOOOOOOOOOOOOOOOOOOOOOOXXXXXXXXXXXXXXXX                ",
"        OOOOOOOOOOOOOOOOOOOOOOOOXXXXXXXXXXXXXXXXXXXXXXXXXXXXXXXXXXXXXXXXOOOOOOOOOOOOOOOOOOOOOOOOXXXXXXXXXXXXXXXX                ",
"        OOOOOOOOOOOOOOOOOOOOOOOOXXXXXXXXXXXXXXXXXXXXXXXXXXXXXXXXXXXXXXXXOOOOOOOOOOOOOOOOOOOOOOOOXXXXXXXXXXXXXXXX                ",
"        OOOOOOOOOOOOOOOOOOOOOOOOXXXXXXXXXXXXXXXXXXXXXXXXXXXXXXXXXXXXXXXXOOOOOOOOOOOOOOOOOOOOOOOOXXXXXXXXXXXXXXXX                ",
"        OOOOOOOOOOOOOOOOOOOOOOOOXXXXXXXXXXXXXXXXXXXXXXXXXXXXXXXXXXXXXXXXOOOOOOOOOOOOOOOOOOOOOOOOXXXXXXXXXXXXXXXX                ",
"                        XXXXXXXXXXXXXXXXXXXXXXXXXXXXXXXXXXXXXXXXXXXXXXXXXXXXXXXXXXXXXXXXXXXXXXXXXXXXXXXX                        ",
"                        XXXXXXXXXXXXXXXXXXXXXXXXXXXXXXXXXXXXXXXXXXXXXXXXXXXXXXXXXXXXXXXXXXXXXXXXXXXXXXXX                        ",
"                        XXXXXXXXXXXXXXXXXXXXXXXXXXXXXXXXXXXXXXXXXXXXXXXXXXXXXXXXXXXXXXXXXXXXXXXXXXXXXXXX                        ",
"                        XXXXXXXXXXXXXXXXXXXXXXXXXXXXXXXXXXXXXXXXXXXXXXXXXXXXXXXXXXXXXXXXXXXXXXXXXXXXXXXX                        ",
"                        XXXXXXXXXXXXXXXXXXXXXXXXXXXXXXXXXXXXXXXXXXXXXXXXXXXXXXXXXXXXXXXXXXXXXXXXXXXXXXXX                        ",
"                        XXXXXXXXXXXXXXXXXXXXXXXXXXXXXXXXXXXXXXXXXXXXXXXXXXXXXXXXXXXXXXXXXXXXXXXXXXXXXXXX                        ",
"                        XXXXXXXXXXXXXXXXXXXXXXXXXXXXXXXXXXXXXXXXXXXXXXXXXXXXXXXXXXXXXXXXXXXXXXXXXXXXXXXX                        ",
"                        XXXXXXXXXXXXXXXXXXXXXXXXXXXXXXXXXXXXXXXXXXXXXXXXXXXXXXXXXXXXXXXXXXXXXXXXXXXXXXXX                        "
};
