/* XPM */
static char *player_right1[] = {
/* columns rows colors chars-per-pixel */
"128 128 6 1 ",
"  c #09020E",
". c #09020E",
"X c #1E122D",
"o c #51487A",
"O c #7A80A5",
"+ c #A6ADC3",
/* pixels */
"                                                                                                                                ",
"                                                                                                                                ",
"                                                                                                                                ",
"                                                                                                                                ",
"                                                                                                                                ",
"                                                                                                                                ",
"                                                                                                                                ",
"                                                                                                                                ",
"                        ++++++++                                                                                                ",
"                        ++++++++                                                                                                ",
"                        ++++++++                                                                                                ",
"                        ++++++++                                                                                                ",
"                        ++++++++                                                                                                ",
"                        ++++++++                                                                                                ",
"                        ++++++++                                                                                                ",
"                        ++++++++                                                                                                ",
"                        ++++++++                        OOOOOOOO++++++++++++++++++++++++                                        ",
"                        ++++++++                        OOOOOOOO++++++++++++++++++++++++                                        ",
"                        ++++++++                        OOOOOOOO++++++++++++++++++++++++                                        ",
"                        ++++++++                        OOOOOOOO++++++++++++++++++++++++                                        ",
"                        ++++++++                        OOOOOOOO++++++++++++++++++++++++                                        ",
"                        ++++++++                        OOOOOOOO++++++++++++++++++++++++                                        ",
"                        ++++++++                        OOOOOOOO++++++++++++++++++++++++                                        ",
"                        ++++++++                        OOOOOOOO++++++++++++++++++++++++                                        ",
"                OOOOOOOO++++++++++++++++        OOOOOOOOOOOOOOOOOOOOOOOO++++++++++++++++++++++++                                ",
"                OOOOOOOO++++++++++++++++        OOOOOOOOOOOOOOOOOOOOOOOO++++++++++++++++++++++++                                ",
"                OOOOOOOO++++++++++++++++        OOOOOOOOOOOOOOOOOOOOOOOO++++++++++++++++++++++++                                ",
"                OOOOOOOO++++++++++++++++        OOOOOOOOOOOOOOOOOOOOOOOO++++++++++++++++++++++++                                ",
"                OOOOOOOO++++++++++++++++        OOOOOOOOOOOOOOOOOOOOOOOO++++++++++++++++++++++++                                ",
"                OOOOOOOO++++++++++++++++        OOOOOOOOOOOOOOOOOOOOOOOO++++++++++++++++++++++++                                ",
"                OOOOOOOO++++++++++++++++        OOOOOOOOOOOOOOOOOOOOOOOO++++++++++++++++++++++++                                ",
"                OOOOOOOO++++++++++++++++        OOOOOOOOOOOOOOOOOOOOOOOO++++++++++++++++++++++++                                ",
"                OOOOOOOO++++++++++++++++        OOOOOOOOOOOOOOOOOOOOOOOOOOOOOOOOOOOOOOOO++++++++                                ",
"                OOOOOOOO++++++++++++++++        OOOOOOOOOOOOOOOOOOOOOOOOOOOOOOOOOOOOOOOO++++++++                                ",
"                OOOOOOOO++++++++++++++++        OOOOOOOOOOOOOOOOOOOOOOOOOOOOOOOOOOOOOOOO++++++++                                ",
"                OOOOOOOO++++++++++++++++        OOOOOOOOOOOOOOOOOOOOOOOOOOOOOOOOOOOOOOOO++++++++                                ",
"                OOOOOOOO++++++++++++++++        OOOOOOOOOOOOOOOOOOOOOOOOOOOOOOOOOOOOOOOO++++++++                                ",
"                OOOOOOOO++++++++++++++++        OOOOOOOOOOOOOOOOOOOOOOOOOOOOOOOOOOOOOOOO++++++++                                ",
"                OOOOOOOO++++++++++++++++        OOOOOOOOOOOOOOOOOOOOOOOOOOOOOOOOOOOOOOOO++++++++                                ",
"                OOOOOOOO++++++++++++++++        OOOOOOOOOOOOOOOOOOOOOOOOOOOOOOOOOOOOOOOO++++++++                                ",
"                OOOOOOOO        ++++++++        OOOOOOOO                                                                        ",
"                OOOOOOOO        ++++++++        OOOOOOOO                                                                        ",
"                OOOOOOOO        ++++++++        OOOOOOOO                                                                        ",
"                OOOOOOOO        ++++++++        OOOOOOOO                                                                        ",
"                OOOOOOOO        ++++++++        OOOOOOOO                                                                        ",
"                OOOOOOOO        ++++++++        OOOOOOOO                                                                        ",
"                OOOOOOOO        ++++++++        OOOOOOOO                                                                        ",
"                OOOOOOOO        ++++++++        OOOOOOOO                                                                        ",
"                OOOOOOOO        ++++++++        OOOOOOOO                                                                        ",
"                OOOOOOOO        ++++++++        OOOOOOOO                                                                        ",
"                OOOOOOOO        ++++++++        OOOOOOOO                                                                        ",
"                OOOOOOOO        ++++++++        OOOOOOOO                                                                        ",
"                OOOOOOOO        ++++++++        OOOOOOOO                                                                        ",
"                OOOOOOOO        ++++++++        OOOOOOOO                                                                        ",
"                OOOOOOOO        ++++++++        OOOOOOOO                                                                        ",
"                OOOOOOOO        ++++++++        OOOOOOOO                                                                        ",
"                OOOOOOOO        ++++++++        OOOOOOOOOOOOOOOO++++++++                OOOOOOOO                                ",
"                OOOOOOOO        ++++++++        OOOOOOOOOOOOOOOO++++++++                OOOOOOOO                                ",
"                OOOOOOOO        ++++++++        OOOOOOOOOOOOOOOO++++++++                OOOOOOOO                                ",
"                OOOOOOOO        ++++++++        OOOOOOOOOOOOOOOO++++++++                OOOOOOOO                                ",
"                OOOOOOOO        ++++++++        OOOOOOOOOOOOOOOO++++++++                OOOOOOOO                                ",
"                OOOOOOOO        ++++++++        OOOOOOOOOOOOOOOO++++++++                OOOOOOOO                                ",
"                OOOOOOOO        ++++++++        OOOOOOOOOOOOOOOO++++++++                OOOOOOOO                                ",
"                OOOOOOOO        ++++++++        OOOOOOOOOOOOOOOO++++++++                OOOOOOOO                                ",
"        ooooooooOOOOOOOO        ++++++++oooooooo        OOOOOOOOOOOOOOOO                OOOOOOOOoooooooo                        ",
"        ooooooooOOOOOOOO        ++++++++oooooooo        OOOOOOOOOOOOOOOO                OOOOOOOOoooooooo                        ",
"        ooooooooOOOOOOOO        ++++++++oooooooo        OOOOOOOOOOOOOOOO                OOOOOOOOoooooooo                        ",
"        ooooooooOOOOOOOO        ++++++++oooooooo        OOOOOOOOOOOOOOOO                OOOOOOOOoooooooo                        ",
"        ooooooooOOOOOOOO        ++++++++oooooooo        OOOOOOOOOOOOOOOO                OOOOOOOOoooooooo                        ",
"        ooooooooOOOOOOOO        ++++++++oooooooo        OOOOOOOOOOOOOOOO                OOOOOOOOoooooooo                        ",
"        ooooooooOOOOOOOO        ++++++++oooooooo        OOOOOOOOOOOOOOOO                OOOOOOOOoooooooo                        ",
"        ooooooooOOOOOOOO        ++++++++oooooooo        OOOOOOOOOOOOOOOO                OOOOOOOOoooooooo                        ",
"                oooooooooooooooooooooooo                OOOOOOOO++++++++++++++++++++++++XXXXXXXXoooooooooooooooo                ",
"                oooooooooooooooooooooooo                OOOOOOOO++++++++++++++++++++++++XXXXXXXXoooooooooooooooo                ",
"                oooooooooooooooooooooooo                OOOOOOOO++++++++++++++++++++++++XXXXXXXXoooooooooooooooo                ",
"                oooooooooooooooooooooooo                OOOOOOOO++++++++++++++++++++++++XXXXXXXXoooooooooooooooo                ",
"                oooooooooooooooooooooooo                OOOOOOOO++++++++++++++++++++++++XXXXXXXXoooooooooooooooo                ",
"                oooooooooooooooooooooooo                OOOOOOOO++++++++++++++++++++++++XXXXXXXXoooooooooooooooo                ",
"                oooooooooooooooooooooooo                OOOOOOOO++++++++++++++++++++++++XXXXXXXXoooooooooooooooo                ",
"                oooooooooooooooooooooooo                OOOOOOOO++++++++++++++++++++++++XXXXXXXXoooooooooooooooo                ",
"                XXXXXXXXXXXXXXXXXXXXXXXX        OOOOOOOOOOOOOOOOOOOOOOOO++++++++++++++++                                        ",
"                XXXXXXXXXXXXXXXXXXXXXXXX        OOOOOOOOOOOOOOOOOOOOOOOO++++++++++++++++                                        ",
"                XXXXXXXXXXXXXXXXXXXXXXXX        OOOOOOOOOOOOOOOOOOOOOOOO++++++++++++++++                                        ",
"                XXXXXXXXXXXXXXXXXXXXXXXX        OOOOOOOOOOOOOOOOOOOOOOOO++++++++++++++++                                        ",
"                XXXXXXXXXXXXXXXXXXXXXXXX        OOOOOOOOOOOOOOOOOOOOOOOO++++++++++++++++                                        ",
"                XXXXXXXXXXXXXXXXXXXXXXXX        OOOOOOOOOOOOOOOOOOOOOOOO++++++++++++++++                                        ",
"                XXXXXXXXXXXXXXXXXXXXXXXX        OOOOOOOOOOOOOOOOOOOOOOOO++++++++++++++++                                        ",
"                XXXXXXXXXXXXXXXXXXXXXXXX        OOOOOOOOOOOOOOOOOOOOOOOO++++++++++++++++                                        ",
"                ooooooooooooooooooooooooXXXXXXXXXXXXXXXXOOOOOOOOOOOOOOOOOOOOOOOOXXXXXXXXXXXXXXXXXXXXXXXX                        ",
"                ooooooooooooooooooooooooXXXXXXXXXXXXXXXXOOOOOOOOOOOOOOOOOOOOOOOOXXXXXXXXXXXXXXXXXXXXXXXX                        ",
"                ooooooooooooooooooooooooXXXXXXXXXXXXXXXXOOOOOOOOOOOOOOOOOOOOOOOOXXXXXXXXXXXXXXXXXXXXXXXX                        ",
"                ooooooooooooooooooooooooXXXXXXXXXXXXXXXXOOOOOOOOOOOOOOOOOOOOOOOOXXXXXXXXXXXXXXXXXXXXXXXX                        ",
"                ooooooooooooooooooooooooXXXXXXXXXXXXXXXXOOOOOOOOOOOOOOOOOOOOOOOOXXXXXXXXXXXXXXXXXXXXXXXX                        ",
"                ooooooooooooooooooooooooXXXXXXXXXXXXXXXXOOOOOOOOOOOOOOOOOOOOOOOOXXXXXXXXXXXXXXXXXXXXXXXX                        ",
"                ooooooooooooooooooooooooXXXXXXXXXXXXXXXXOOOOOOOOOOOOOOOOOOOOOOOOXXXXXXXXXXXXXXXXXXXXXXXX                        ",
"                ooooooooooooooooooooooooXXXXXXXXXXXXXXXXOOOOOOOOOOOOOOOOOOOOOOOOXXXXXXXXXXXXXXXXXXXXXXXX                        ",
"                XXXXXXXXXXXXXXXXXXXXXXXX++++++++OOOOOOOOXXXXXXXXXXXXXXXXXXXXXXXXOOOOOOOO++++++++XXXXXXXXXXXXXXXX                ",
"                XXXXXXXXXXXXXXXXXXXXXXXX++++++++OOOOOOOOXXXXXXXXXXXXXXXXXXXXXXXXOOOOOOOO++++++++XXXXXXXXXXXXXXXX                ",
"                XXXXXXXXXXXXXXXXXXXXXXXX++++++++OOOOOOOOXXXXXXXXXXXXXXXXXXXXXXXXOOOOOOOO++++++++XXXXXXXXXXXXXXXX                ",
"                XXXXXXXXXXXXXXXXXXXXXXXX++++++++OOOOOOOOXXXXXXXXXXXXXXXXXXXXXXXXOOOOOOOO++++++++XXXXXXXXXXXXXXXX                ",
"                XXXXXXXXXXXXXXXXXXXXXXXX++++++++OOOOOOOOXXXXXXXXXXXXXXXXXXXXXXXXOOOOOOOO++++++++XXXXXXXXXXXXXXXX                ",
"                XXXXXXXXXXXXXXXXXXXXXXXX++++++++OOOOOOOOXXXXXXXXXXXXXXXXXXXXXXXXOOOOOOOO++++++++XXXXXXXXXXXXXXXX                ",
"                XXXXXXXXXXXXXXXXXXXXXXXX++++++++OOOOOOOOXXXXXXXXXXXXXXXXXXXXXXXXOOOOOOOO++++++++XXXXXXXXXXXXXXXX                ",
"                XXXXXXXXXXXXXXXXXXXXXXXX++++++++OOOOOOOOXXXXXXXXXXXXXXXXXXXXXXXXOOOOOOOO++++++++XXXXXXXXXXXXXXXX                ",
"        XXXXXXXXXXXXXXXXXXXXXXXXOOOOOOOOOOOOOOOOOOOOOOOOXXXXXXXXXXXXXXXXXXXXXXXXOOOOOOOO++++++++++++++++XXXXXXXXXXXXXXXX        ",
"        XXXXXXXXXXXXXXXXXXXXXXXXOOOOOOOOOOOOOOOOOOOOOOOOXXXXXXXXXXXXXXXXXXXXXXXXOOOOOOOO++++++++++++++++XXXXXXXXXXXXXXXX        ",
"        XXXXXXXXXXXXXXXXXXXXXXXXOOOOOOOOOOOOOOOOOOOOOOOOXXXXXXXXXXXXXXXXXXXXXXXXOOOOOOOO++++++++++++++++XXXXXXXXXXXXXXXX        ",
"        XXXXXXXXXXXXXXXXXXXXXXXXOOOOOOOOOOOOOOOOOOOOOOOOXXXXXXXXXXXXXXXXXXXXXXXXOOOOOOOO++++++++++++++++XXXXXXXXXXXXXXXX        ",
"        XXXXXXXXXXXXXXXXXXXXXXXXOOOOOOOOOOOOOOOOOOOOOOOOXXXXXXXXXXXXXXXXXXXXXXXXOOOOOOOO++++++++++++++++XXXXXXXXXXXXXXXX        ",
"        XXXXXXXXXXXXXXXXXXXXXXXXOOOOOOOOOOOOOOOOOOOOOOOOXXXXXXXXXXXXXXXXXXXXXXXXOOOOOOOO++++++++++++++++XXXXXXXXXXXXXXXX        ",
"        XXXXXXXXXXXXXXXXXXXXXXXXOOOOOOOOOOOOOOOOOOOOOOOOXXXXXXXXXXXXXXXXXXXXXXXXOOOOOOOO++++++++++++++++XXXXXXXXXXXXXXXX        ",
"        XXXXXXXXXXXXXXXXXXXXXXXXOOOOOOOOOOOOOOOOOOOOOOOOXXXXXXXXXXXXXXXXXXXXXXXXOOOOOOOO++++++++++++++++XXXXXXXXXXXXXXXX        ",
"                XXXXXXXXOOOOOOOOOOOOOOOOOOOOOOOOXXXXXXXXXXXXXXXXXXXXXXXXXXXXXXXXOOOOOOOOOOOOOOOOOOOOOOOOXXXXXXXX                ",
"                XXXXXXXXOOOOOOOOOOOOOOOOOOOOOOOOXXXXXXXXXXXXXXXXXXXXXXXXXXXXXXXXOOOOOOOOOOOOOOOOOOOOOOOOXXXXXXXX                ",
"                XXXXXXXXOOOOOOOOOOOOOOOOOOOOOOOOXXXXXXXXXXXXXXXXXXXXXXXXXXXXXXXXOOOOOOOOOOOOOOOOOOOOOOOOXXXXXXXX                ",
"                XXXXXXXXOOOOOOOOOOOOOOOOOOOOOOOOXXXXXXXXXXXXXXXXXXXXXXXXXXXXXXXXOOOOOOOOOOOOOOOOOOOOOOOOXXXXXXXX                ",
"                XXXXXXXXOOOOOOOOOOOOOOOOOOOOOOOOXXXXXXXXXXXXXXXXXXXXXXXXXXXXXXXXOOOOOOOOOOOOOOOOOOOOOOOOXXXXXXXX                ",
"                XXXXXXXXOOOOOOOOOOOOOOOOOOOOOOOOXXXXXXXXXXXXXXXXXXXXXXXXXXXXXXXXOOOOOOOOOOOOOOOOOOOOOOOOXXXXXXXX                ",
"                XXXXXXXXOOOOOOOOOOOOOOOOOOOOOOOOXXXXXXXXXXXXXXXXXXXXXXXXXXXXXXXXOOOOOOOOOOOOOOOOOOOOOOOOXXXXXXXX                ",
"                XXXXXXXXOOOOOOOOOOOOOOOOOOOOOOOOXXXXXXXXXXXXXXXXXXXXXXXXXXXXXXXXOOOOOOOOOOOOOOOOOOOOOOOOXXXXXXXX                ",
"                        XXXXXXXXXXXXXXXXXXXXXXXXXXXXXXXXXXXXXXXXXXXXXXXXXXXXXXXXXXXXXXXXXXXXXXXXXXXXXXXX                        ",
"                        XXXXXXXXXXXXXXXXXXXXXXXXXXXXXXXXXXXXXXXXXXXXXXXXXXXXXXXXXXXXXXXXXXXXXXXXXXXXXXXX                        ",
"                        XXXXXXXXXXXXXXXXXXXXXXXXXXXXXXXXXXXXXXXXXXXXXXXXXXXXXXXXXXXXXXXXXXXXXXXXXXXXXXXX                        ",
"                        XXXXXXXXXXXXXXXXXXXXXXXXXXXXXXXXXXXXXXXXXXXXXXXXXXXXXXXXXXXXXXXXXXXXXXXXXXXXXXXX                        ",
"                        XXXXXXXXXXXXXXXXXXXXXXXXXXXXXXXXXXXXXXXXXXXXXXXXXXXXXXXXXXXXXXXXXXXXXXXXXXXXXXXX                        ",
"                        XXXXXXXXXXXXXXXXXXXXXXXXXXXXXXXXXXXXXXXXXXXXXXXXXXXXXXXXXXXXXXXXXXXXXXXXXXXXXXXX                        ",
"                        XXXXXXXXXXXXXXXXXXXXXXXXXXXXXXXXXXXXXXXXXXXXXXXXXXXXXXXXXXXXXXXXXXXXXXXXXXXXXXXX                        ",
"                        XXXXXXXXXXXXXXXXXXXXXXXXXXXXXXXXXXXXXXXXXXXXXXXXXXXXXXXXXXXXXXXXXXXXXXXXXXXXXXXX                        "
};
