/* XPM */
static char *player1[] = {
/* columns rows colors chars-per-pixel */
"128 128 6 1 ",
"  c #09020E",
". c #09020E",
"X c #1E122D",
"o c #51487A",
"O c #7A80A5",
"+ c #A6ADC3",
/* pixels */
"                                                                                                                                ",
"                                                                                                                                ",
"                                                                                                                                ",
"                                                                                                                                ",
"                                                                                                                                ",
"                                                                                                                                ",
"                                                                                                                                ",
"                                                                                                                                ",
"                        ++++++++++++++++                oooooooo                                                ++++++++        ",
"                        ++++++++++++++++                oooooooo                                                ++++++++        ",
"                        ++++++++++++++++                oooooooo                                                ++++++++        ",
"                        ++++++++++++++++                oooooooo                                                ++++++++        ",
"                        ++++++++++++++++                oooooooo                                                ++++++++        ",
"                        ++++++++++++++++                oooooooo                                                ++++++++        ",
"                        ++++++++++++++++                oooooooo                                                ++++++++        ",
"                        ++++++++++++++++                oooooooo                                                ++++++++        ",
"                ++++++++++++++++                OOOOOOOOooooooooOOOOOOOOOOOOOOOOOOOOOOOOOOOOOOOO        ++++++++OOOOOOOO        ",
"                ++++++++++++++++                OOOOOOOOooooooooOOOOOOOOOOOOOOOOOOOOOOOOOOOOOOOO        ++++++++OOOOOOOO        ",
"                ++++++++++++++++                OOOOOOOOooooooooOOOOOOOOOOOOOOOOOOOOOOOOOOOOOOOO        ++++++++OOOOOOOO        ",
"                ++++++++++++++++                OOOOOOOOooooooooOOOOOOOOOOOOOOOOOOOOOOOOOOOOOOOO        ++++++++OOOOOOOO        ",
"                ++++++++++++++++                OOOOOOOOooooooooOOOOOOOOOOOOOOOOOOOOOOOOOOOOOOOO        ++++++++OOOOOOOO        ",
"                ++++++++++++++++                OOOOOOOOooooooooOOOOOOOOOOOOOOOOOOOOOOOOOOOOOOOO        ++++++++OOOOOOOO        ",
"                ++++++++++++++++                OOOOOOOOooooooooOOOOOOOOOOOOOOOOOOOOOOOOOOOOOOOO        ++++++++OOOOOOOO        ",
"                ++++++++++++++++                OOOOOOOOooooooooOOOOOOOOOOOOOOOOOOOOOOOOOOOOOOOO        ++++++++OOOOOOOO        ",
"        ++++++++++++++++                        OOOOOOOO++++++++++++++++++++++++OOOOOOOOOOOOOOOO++++++++OOOOOOOOOOOOOOOO        ",
"        ++++++++++++++++                        OOOOOOOO++++++++++++++++++++++++OOOOOOOOOOOOOOOO++++++++OOOOOOOOOOOOOOOO        ",
"        ++++++++++++++++                        OOOOOOOO++++++++++++++++++++++++OOOOOOOOOOOOOOOO++++++++OOOOOOOOOOOOOOOO        ",
"        ++++++++++++++++                        OOOOOOOO++++++++++++++++++++++++OOOOOOOOOOOOOOOO++++++++OOOOOOOOOOOOOOOO        ",
"        ++++++++++++++++                        OOOOOOOO++++++++++++++++++++++++OOOOOOOOOOOOOOOO++++++++OOOOOOOOOOOOOOOO        ",
"        ++++++++++++++++                        OOOOOOOO++++++++++++++++++++++++OOOOOOOOOOOOOOOO++++++++OOOOOOOOOOOOOOOO        ",
"        ++++++++++++++++                        OOOOOOOO++++++++++++++++++++++++OOOOOOOOOOOOOOOO++++++++OOOOOOOOOOOOOOOO        ",
"        ++++++++++++++++                        OOOOOOOO++++++++++++++++++++++++OOOOOOOOOOOOOOOO++++++++OOOOOOOOOOOOOOOO        ",
"        ++++++++OOOOOOOO        oooooooo        OOOOOOOOOOOOOOOOOOOOOOOOOOOOOOOOOOOOOOOOOOOOOOOOOOOOOOOOOOOOOOOOOOOOOOOO        ",
"        ++++++++OOOOOOOO        oooooooo        OOOOOOOOOOOOOOOOOOOOOOOOOOOOOOOOOOOOOOOOOOOOOOOOOOOOOOOOOOOOOOOOOOOOOOOO        ",
"        ++++++++OOOOOOOO        oooooooo        OOOOOOOOOOOOOOOOOOOOOOOOOOOOOOOOOOOOOOOOOOOOOOOOOOOOOOOOOOOOOOOOOOOOOOOO        ",
"        ++++++++OOOOOOOO        oooooooo        OOOOOOOOOOOOOOOOOOOOOOOOOOOOOOOOOOOOOOOOOOOOOOOOOOOOOOOOOOOOOOOOOOOOOOOO        ",
"        ++++++++OOOOOOOO        oooooooo        OOOOOOOOOOOOOOOOOOOOOOOOOOOOOOOOOOOOOOOOOOOOOOOOOOOOOOOOOOOOOOOOOOOOOOOO        ",
"        ++++++++OOOOOOOO        oooooooo        OOOOOOOOOOOOOOOOOOOOOOOOOOOOOOOOOOOOOOOOOOOOOOOOOOOOOOOOOOOOOOOOOOOOOOOO        ",
"        ++++++++OOOOOOOO        oooooooo        OOOOOOOOOOOOOOOOOOOOOOOOOOOOOOOOOOOOOOOOOOOOOOOOOOOOOOOOOOOOOOOOOOOOOOOO        ",
"        ++++++++OOOOOOOO        oooooooo        OOOOOOOOOOOOOOOOOOOOOOOOOOOOOOOOOOOOOOOOOOOOOOOOOOOOOOOOOOOOOOOOOOOOOOOO        ",
"        ++++++++OOOOOOOO++++++++++++++++        oooooooo................................ooooooooOOOOOOOOOOOOOOOO                ",
"        ++++++++OOOOOOOO++++++++++++++++        oooooooo................................ooooooooOOOOOOOOOOOOOOOO                ",
"        ++++++++OOOOOOOO++++++++++++++++        oooooooo................................ooooooooOOOOOOOOOOOOOOOO                ",
"        ++++++++OOOOOOOO++++++++++++++++        oooooooo................................ooooooooOOOOOOOOOOOOOOOO                ",
"        ++++++++OOOOOOOO++++++++++++++++        oooooooo................................ooooooooOOOOOOOOOOOOOOOO                ",
"        ++++++++OOOOOOOO++++++++++++++++        oooooooo................................ooooooooOOOOOOOOOOOOOOOO                ",
"        ++++++++OOOOOOOO++++++++++++++++        oooooooo................................ooooooooOOOOOOOOOOOOOOOO                ",
"        ++++++++OOOOOOOO++++++++++++++++        oooooooo................................ooooooooOOOOOOOOOOOOOOOO                ",
"        ++++++++OOOOOOOO++++++++oooooooo        OOOOOOOOoooooooo........ooooooooOOOOOOOOOOOOOOOOOOOOOOOO                        ",
"        ++++++++OOOOOOOO++++++++oooooooo        OOOOOOOOoooooooo........ooooooooOOOOOOOOOOOOOOOOOOOOOOOO                        ",
"        ++++++++OOOOOOOO++++++++oooooooo        OOOOOOOOoooooooo........ooooooooOOOOOOOOOOOOOOOOOOOOOOOO                        ",
"        ++++++++OOOOOOOO++++++++oooooooo        OOOOOOOOoooooooo........ooooooooOOOOOOOOOOOOOOOOOOOOOOOO                        ",
"        ++++++++OOOOOOOO++++++++oooooooo        OOOOOOOOoooooooo........ooooooooOOOOOOOOOOOOOOOOOOOOOOOO                        ",
"        ++++++++OOOOOOOO++++++++oooooooo        OOOOOOOOoooooooo........ooooooooOOOOOOOOOOOOOOOOOOOOOOOO                        ",
"        ++++++++OOOOOOOO++++++++oooooooo        OOOOOOOOoooooooo........ooooooooOOOOOOOOOOOOOOOOOOOOOOOO                        ",
"        ++++++++OOOOOOOO++++++++oooooooo        OOOOOOOOoooooooo........ooooooooOOOOOOOOOOOOOOOOOOOOOOOO                        ",
"        ++++++++OOOOOOOO        oooooooo        OOOOOOOOoooooooo........ooooooooOOOOOOOOOOOOOOOOOOOOOOOO                        ",
"        ++++++++OOOOOOOO        oooooooo        OOOOOOOOoooooooo........ooooooooOOOOOOOOOOOOOOOOOOOOOOOO                        ",
"        ++++++++OOOOOOOO        oooooooo        OOOOOOOOoooooooo........ooooooooOOOOOOOOOOOOOOOOOOOOOOOO                        ",
"        ++++++++OOOOOOOO        oooooooo        OOOOOOOOoooooooo........ooooooooOOOOOOOOOOOOOOOOOOOOOOOO                        ",
"        ++++++++OOOOOOOO        oooooooo        OOOOOOOOoooooooo........ooooooooOOOOOOOOOOOOOOOOOOOOOOOO                        ",
"        ++++++++OOOOOOOO        oooooooo        OOOOOOOOoooooooo........ooooooooOOOOOOOOOOOOOOOOOOOOOOOO                        ",
"        ++++++++OOOOOOOO        oooooooo        OOOOOOOOoooooooo........ooooooooOOOOOOOOOOOOOOOOOOOOOOOO                        ",
"        ++++++++OOOOOOOO        oooooooo        OOOOOOOOoooooooo........ooooooooOOOOOOOOOOOOOOOOOOOOOOOO                        ",
"        ++++++++++++++++        oooooooo        OOOOOOOOOOOOOOOO........OOOOOOOOOOOOOOOOOOOOOOOOoooooooooooooooo                ",
"        ++++++++++++++++        oooooooo        OOOOOOOOOOOOOOOO........OOOOOOOOOOOOOOOOOOOOOOOOoooooooooooooooo                ",
"        ++++++++++++++++        oooooooo        OOOOOOOOOOOOOOOO........OOOOOOOOOOOOOOOOOOOOOOOOoooooooooooooooo                ",
"        ++++++++++++++++        oooooooo        OOOOOOOOOOOOOOOO........OOOOOOOOOOOOOOOOOOOOOOOOoooooooooooooooo                ",
"        ++++++++++++++++        oooooooo        OOOOOOOOOOOOOOOO........OOOOOOOOOOOOOOOOOOOOOOOOoooooooooooooooo                ",
"        ++++++++++++++++        oooooooo        OOOOOOOOOOOOOOOO........OOOOOOOOOOOOOOOOOOOOOOOOoooooooooooooooo                ",
"        ++++++++++++++++        oooooooo        OOOOOOOOOOOOOOOO........OOOOOOOOOOOOOOOOOOOOOOOOoooooooooooooooo                ",
"        ++++++++++++++++        oooooooo        OOOOOOOOOOOOOOOO........OOOOOOOOOOOOOOOOOOOOOOOOoooooooooooooooo                ",
"                ++++++++++++++++oooooooo        ++++++++++++++++++++++++++++++++++++++++oooooooooooooooooooooooooooooooo        ",
"                ++++++++++++++++oooooooo        ++++++++++++++++++++++++++++++++++++++++oooooooooooooooooooooooooooooooo        ",
"                ++++++++++++++++oooooooo        ++++++++++++++++++++++++++++++++++++++++oooooooooooooooooooooooooooooooo        ",
"                ++++++++++++++++oooooooo        ++++++++++++++++++++++++++++++++++++++++oooooooooooooooooooooooooooooooo        ",
"                ++++++++++++++++oooooooo        ++++++++++++++++++++++++++++++++++++++++oooooooooooooooooooooooooooooooo        ",
"                ++++++++++++++++oooooooo        ++++++++++++++++++++++++++++++++++++++++oooooooooooooooooooooooooooooooo        ",
"                ++++++++++++++++oooooooo        ++++++++++++++++++++++++++++++++++++++++oooooooooooooooooooooooooooooooo        ",
"                ++++++++++++++++oooooooo        ++++++++++++++++++++++++++++++++++++++++oooooooooooooooooooooooooooooooo        ",
"                        OOOOOOOO++++++++OOOOOOOOOOOOOOOOOOOOOOOOooooooooooooooooOOOOOOOOOOOOOOOO++++++++++++++++++++++++        ",
"                        OOOOOOOO++++++++OOOOOOOOOOOOOOOOOOOOOOOOooooooooooooooooOOOOOOOOOOOOOOOO++++++++++++++++++++++++        ",
"                        OOOOOOOO++++++++OOOOOOOOOOOOOOOOOOOOOOOOooooooooooooooooOOOOOOOOOOOOOOOO++++++++++++++++++++++++        ",
"                        OOOOOOOO++++++++OOOOOOOOOOOOOOOOOOOOOOOOooooooooooooooooOOOOOOOOOOOOOOOO++++++++++++++++++++++++        ",
"                        OOOOOOOO++++++++OOOOOOOOOOOOOOOOOOOOOOOOooooooooooooooooOOOOOOOOOOOOOOOO++++++++++++++++++++++++        ",
"                        OOOOOOOO++++++++OOOOOOOOOOOOOOOOOOOOOOOOooooooooooooooooOOOOOOOOOOOOOOOO++++++++++++++++++++++++        ",
"                        OOOOOOOO++++++++OOOOOOOOOOOOOOOOOOOOOOOOooooooooooooooooOOOOOOOOOOOOOOOO++++++++++++++++++++++++        ",
"                        OOOOOOOO++++++++OOOOOOOOOOOOOOOOOOOOOOOOooooooooooooooooOOOOOOOOOOOOOOOO++++++++++++++++++++++++        ",
"                        OOOOOOOOOOOOOOOOOOOOOOOOoooooooooooooooooooooooooooooooooooooooooooooooo++++++++OOOOOOOOOOOOOOOO        ",
"                        OOOOOOOOOOOOOOOOOOOOOOOOoooooooooooooooooooooooooooooooooooooooooooooooo++++++++OOOOOOOOOOOOOOOO        ",
"                        OOOOOOOOOOOOOOOOOOOOOOOOoooooooooooooooooooooooooooooooooooooooooooooooo++++++++OOOOOOOOOOOOOOOO        ",
"                        OOOOOOOOOOOOOOOOOOOOOOOOoooooooooooooooooooooooooooooooooooooooooooooooo++++++++OOOOOOOOOOOOOOOO        ",
"                        OOOOOOOOOOOOOOOOOOOOOOOOoooooooooooooooooooooooooooooooooooooooooooooooo++++++++OOOOOOOOOOOOOOOO        ",
"                        OOOOOOOOOOOOOOOOOOOOOOOOoooooooooooooooooooooooooooooooooooooooooooooooo++++++++OOOOOOOOOOOOOOOO        ",
"                        OOOOOOOOOOOOOOOOOOOOOOOOoooooooooooooooooooooooooooooooooooooooooooooooo++++++++OOOOOOOOOOOOOOOO        ",
"                        OOOOOOOOOOOOOOOOOOOOOOOOoooooooooooooooooooooooooooooooooooooooooooooooo++++++++OOOOOOOOOOOOOOOO        ",
"                XXXXXXXXooooooooooooooooXXXXXXXXOOOOOOOOOOOOOOOOooooooooooooooooOOOOOOOOOOOOOOOO++++++++OOOOOOOOOOOOOOOO        ",
"                XXXXXXXXooooooooooooooooXXXXXXXXOOOOOOOOOOOOOOOOooooooooooooooooOOOOOOOOOOOOOOOO++++++++OOOOOOOOOOOOOOOO        ",
"                XXXXXXXXooooooooooooooooXXXXXXXXOOOOOOOOOOOOOOOOooooooooooooooooOOOOOOOOOOOOOOOO++++++++OOOOOOOOOOOOOOOO        ",
"                XXXXXXXXooooooooooooooooXXXXXXXXOOOOOOOOOOOOOOOOooooooooooooooooOOOOOOOOOOOOOOOO++++++++OOOOOOOOOOOOOOOO        ",
"                XXXXXXXXooooooooooooooooXXXXXXXXOOOOOOOOOOOOOOOOooooooooooooooooOOOOOOOOOOOOOOOO++++++++OOOOOOOOOOOOOOOO        ",
"                XXXXXXXXooooooooooooooooXXXXXXXXOOOOOOOOOOOOOOOOooooooooooooooooOOOOOOOOOOOOOOOO++++++++OOOOOOOOOOOOOOOO        ",
"                XXXXXXXXooooooooooooooooXXXXXXXXOOOOOOOOOOOOOOOOooooooooooooooooOOOOOOOOOOOOOOOO++++++++OOOOOOOOOOOOOOOO        ",
"                XXXXXXXXooooooooooooooooXXXXXXXXOOOOOOOOOOOOOOOOooooooooooooooooOOOOOOOOOOOOOOOO++++++++OOOOOOOOOOOOOOOO        ",
"        XXXXXXXXXXXXXXXXXXXXXXXXXXXXXXXXooooooooOOOOOOOOOOOOOOOOooooooooXXXXXXXXOOOOOOOOOOOOOOOOooooooooXXXXXXXXXXXXXXXX        ",
"        XXXXXXXXXXXXXXXXXXXXXXXXXXXXXXXXooooooooOOOOOOOOOOOOOOOOooooooooXXXXXXXXOOOOOOOOOOOOOOOOooooooooXXXXXXXXXXXXXXXX        ",
"        XXXXXXXXXXXXXXXXXXXXXXXXXXXXXXXXooooooooOOOOOOOOOOOOOOOOooooooooXXXXXXXXOOOOOOOOOOOOOOOOooooooooXXXXXXXXXXXXXXXX        ",
"        XXXXXXXXXXXXXXXXXXXXXXXXXXXXXXXXooooooooOOOOOOOOOOOOOOOOooooooooXXXXXXXXOOOOOOOOOOOOOOOOooooooooXXXXXXXXXXXXXXXX        ",
"        XXXXXXXXXXXXXXXXXXXXXXXXXXXXXXXXooooooooOOOOOOOOOOOOOOOOooooooooXXXXXXXXOOOOOOOOOOOOOOOOooooooooXXXXXXXXXXXXXXXX        ",
"        XXXXXXXXXXXXXXXXXXXXXXXXXXXXXXXXooooooooOOOOOOOOOOOOOOOOooooooooXXXXXXXXOOOOOOOOOOOOOOOOooooooooXXXXXXXXXXXXXXXX        ",
"        XXXXXXXXXXXXXXXXXXXXXXXXXXXXXXXXooooooooOOOOOOOOOOOOOOOOooooooooXXXXXXXXOOOOOOOOOOOOOOOOooooooooXXXXXXXXXXXXXXXX        ",
"        XXXXXXXXXXXXXXXXXXXXXXXXXXXXXXXXooooooooOOOOOOOOOOOOOOOOooooooooXXXXXXXXOOOOOOOOOOOOOOOOooooooooXXXXXXXXXXXXXXXX        ",
"                XXXXXXXXXXXXXXXXooooooooOOOOOOOOOOOOOOOOOOOOOOOOXXXXXXXXXXXXXXXXXXXXXXXXOOOOOOOOOOOOOOOOoooooooo                ",
"                XXXXXXXXXXXXXXXXooooooooOOOOOOOOOOOOOOOOOOOOOOOOXXXXXXXXXXXXXXXXXXXXXXXXOOOOOOOOOOOOOOOOoooooooo                ",
"                XXXXXXXXXXXXXXXXooooooooOOOOOOOOOOOOOOOOOOOOOOOOXXXXXXXXXXXXXXXXXXXXXXXXOOOOOOOOOOOOOOOOoooooooo                ",
"                XXXXXXXXXXXXXXXXooooooooOOOOOOOOOOOOOOOOOOOOOOOOXXXXXXXXXXXXXXXXXXXXXXXXOOOOOOOOOOOOOOOOoooooooo                ",
"                XXXXXXXXXXXXXXXXooooooooOOOOOOOOOOOOOOOOOOOOOOOOXXXXXXXXXXXXXXXXXXXXXXXXOOOOOOOOOOOOOOOOoooooooo                ",
"                XXXXXXXXXXXXXXXXooooooooOOOOOOOOOOOOOOOOOOOOOOOOXXXXXXXXXXXXXXXXXXXXXXXXOOOOOOOOOOOOOOOOoooooooo                ",
"                XXXXXXXXXXXXXXXXooooooooOOOOOOOOOOOOOOOOOOOOOOOOXXXXXXXXXXXXXXXXXXXXXXXXOOOOOOOOOOOOOOOOoooooooo                ",
"                XXXXXXXXXXXXXXXXooooooooOOOOOOOOOOOOOOOOOOOOOOOOXXXXXXXXXXXXXXXXXXXXXXXXOOOOOOOOOOOOOOOOoooooooo                ",
"                        XXXXXXXXXXXXXXXXXXXXXXXXXXXXXXXXXXXXXXXXXXXXXXXXXXXXXXXXXXXXXXXXXXXXXXXXXXXXXXXX                        ",
"                        XXXXXXXXXXXXXXXXXXXXXXXXXXXXXXXXXXXXXXXXXXXXXXXXXXXXXXXXXXXXXXXXXXXXXXXXXXXXXXXX                        ",
"                        XXXXXXXXXXXXXXXXXXXXXXXXXXXXXXXXXXXXXXXXXXXXXXXXXXXXXXXXXXXXXXXXXXXXXXXXXXXXXXXX                        ",
"                        XXXXXXXXXXXXXXXXXXXXXXXXXXXXXXXXXXXXXXXXXXXXXXXXXXXXXXXXXXXXXXXXXXXXXXXXXXXXXXXX                        ",
"                        XXXXXXXXXXXXXXXXXXXXXXXXXXXXXXXXXXXXXXXXXXXXXXXXXXXXXXXXXXXXXXXXXXXXXXXXXXXXXXXX                        ",
"                        XXXXXXXXXXXXXXXXXXXXXXXXXXXXXXXXXXXXXXXXXXXXXXXXXXXXXXXXXXXXXXXXXXXXXXXXXXXXXXXX                        ",
"                        XXXXXXXXXXXXXXXXXXXXXXXXXXXXXXXXXXXXXXXXXXXXXXXXXXXXXXXXXXXXXXXXXXXXXXXXXXXXXXXX                        ",
"                        XXXXXXXXXXXXXXXXXXXXXXXXXXXXXXXXXXXXXXXXXXXXXXXXXXXXXXXXXXXXXXXXXXXXXXXXXXXXXXXX                        "
};
