/* XPM */
static char * Red_ore_xpm[] = {
"16 15 19 1",
" 	c None",
".	c #5A222B",
"+	c #FF7861",
"@	c #E80012",
"#	c #BE0046",
"$	c #552D5A",
"%	c #23101A",
"&	c #FF5D3A",
"*	c #FF9EA2",
"=	c #FF9ED7",
"-	c #FF3A83",
";	c #E80092",
">	c #5F496F",
",	c #FF61A1",
"'	c #BE00AF",
")	c #451632",
"!	c #716889",
"~	c #8A2890",
"{	c #000000",
"     ...        ",
"     .+@.   ....",
".... .@#$% .&+*.",
".=-;.%%$>$.@&++.",
".-,;')$>>!.#&&&.",
".;;;')$$$$$~#@. ",
" .''~$$)))$$..  ",
"  %)$>)&++)$$$% ",
"  %)$$)@*+)$>$)%",
" %%))$)#@&)>!$)%",
" %%%))))))$!>$)%",
"  %)%)%))$$$$)% ",
"   %%%)%))))%%  ",
"     {%%%%%%    ",
"                "};
