/* XPM */
static char * Stone_ground_xpm[] = {
"32 32 4 1",
" 	c #6C5C53",
".	c #7F7262",
"+	c #423A3A",
"@	c #524947",
"  .   ++@@    @ @@++++++@+@     ",
" . ..@+@@        @+++@   @+ @   ",
".... ++@ @        @+@     +@ @  ",
"   @++@ @          +      @+@ @ ",
"++++++@@        .  @       +++++",
"  @ @+@ @    .     @     . ++@  ",
"   @ +@@       . . @    . .+@   ",
"    @+@     . . .. +@ .... +    ",
"     +@@ .   . . . ++@ @  @+    ",
"  .  +++@ ....... @++++++++@    ",
" . . +@@++++@@   @+@@ @@++@  @  ",
" .. +@ @ @ @++++++@  @ @ @+ @   ",
".. ++@@       @+@@ @      +@ @ .",
"@@++@@ @   . . @@ @       @+@@  ",
"++++@@    . .. @ @        @++++@",
"@++@+@ ......  @          @+@@  ",
" @++@+@       @+@       . +@@   ",
"  @++@++++@@@+++ @    . .@+@ @  ",
"   @++@@@     @+@    . . @+ @   ",
"   @+@@@       @+@  . ..@+@@    ",
"   +@@    .     @+@  .. +@      ",
"   +@ @ .   . .  @+@   @+@@     ",
" . +@@  .. . . . @+++++++@ @   .",
"..@+++@@@ ..... @+@@   @++@   . ",
" @+@@    @@@+@@++@       @+ @  .",
"@+@@        @++@          @+  ..",
"+@@ @         +            +@ @ ",
"+@ @    . . . +@           @+@ @",
"+++@@    . ..@+ @      . . @++++",
"  @+@@ .... @++@ @    . . @++@  ",
"   @++@   @++@@+@  ..... @+@    ",
"     @+++++@ @ @++@@ @ @++@     "};
