/* XPM */
static char * wall_xpm[] = {
"128 128 6 1",
" 	c None",
".	c #514A4D",
"+	c #877C74",
"@	c #ADA497",
"#	c #6C6464",
"$	c #433F40",
"                                       ...................                 ......................                               ",
"                                       ...................                 ......................                               ",
"                                       ...................                 ......................                               ",
"                                       ...................                 ......................                               ",
"                                   ....+++++@@@@@@@@@+++++....        .....####+++++@@@@@@@@@@@@@....                           ",
"                                   ....+++++@@@@@@@@@+++++....        .....####+++++@@@@@@@@@@@@@....                           ",
"                                   ....+++++@@@@@@@@@+++++....        .....####+++++@@@@@@@@@@@@@....                           ",
"                                   ....+++++@@@@@@@@@+++++....        .....####+++++@@@@@@@@@@@@@....                           ",
"                                   ....+++++@@@@@@@@@+++++....        .....####+++++@@@@@@@@@@@@@....                           ",
"                               ....####++++++++++++++@@@@@@@@@........#######################++++@@@@.....                      ",
"                               ....####++++++++++++++@@@@@@@@@........#######################++++@@@@.....                      ",
"                               ....####++++++++++++++@@@@@@@@@........#######################++++@@@@.....                      ",
"                               ....####++++++++++++++@@@@@@@@@........#######################++++@@@@.....                      ",
"             ......................++++##########+++++++++@@@@++++####.....####.....#############++++.....                      ",
"             ......................++++##########+++++++++@@@@++++####.....####.....#############++++.....                      ",
"             ......................++++##########+++++++++@@@@++++####.....####.....#############++++.....                      ",
"             ......................++++##########+++++++++@@@@++++####.....####.....#############++++.....                      ",
"         ....@@@@@@@@@+++++....########@@@@@++++++++++++++++++@@@@####.........#####......................                      ",
"         ....@@@@@@@@@+++++....########@@@@@++++++++++++++++++@@@@####.........#####......................                      ",
"         ....@@@@@@@@@+++++....########@@@@@++++++++++++++++++@@@@####.........#####......................                      ",
"         ....@@@@@@@@@+++++....########@@@@@++++++++++++++++++@@@@####.........#####......................                      ",
"    .....@@@@++++++++++++++....####....+++++@@@@@@@@@@@@@@@@@@++++####.....####.....#####++++####++++#####.........             ",
"    .....@@@@++++++++++++++....####....+++++@@@@@@@@@@@@@@@@@@++++####.....####.....#####++++####++++#####.........             ",
"    .....@@@@++++++++++++++....####....+++++@@@@@@@@@@@@@@@@@@++++####.....####.....#####++++####++++#####.........             ",
"    .....@@@@++++++++++++++....####....+++++@@@@@@@@@@@@@@@@@@++++####.....####.....#####++++####++++#####.........             ",
"    .....@@@@++++++++++++++....####....+++++@@@@@@@@@@@@@@@@@@++++####.....####.....#####++++####++++#####.........             ",
"    .....####@@@@@++++.....########.........#####+++++++++++++####++++#####....#####+++++####++++++++@@@@@++++#####....         ",
"    .....####@@@@@++++.....########.........#####+++++++++++++####++++#####....#####+++++####++++++++@@@@@++++#####....         ",
"    .....####@@@@@++++.....########.........#####+++++++++++++####++++#####....#####+++++####++++++++@@@@@++++#####....         ",
"    .....####@@@@@++++.....########.........#####+++++++++++++####++++#####....#####+++++####++++++++@@@@@++++#####....         ",
"    .....#########....@@@@@++++++++####...................####++++####+++++####+++++#####+++++++++++++++++@@@@@@@@@++++.....    ",
"    .....#########....@@@@@++++++++####...................####++++####+++++####+++++#####+++++++++++++++++@@@@@@@@@++++.....    ",
"    .....#########....@@@@@++++++++####...................####++++####+++++####+++++#####+++++++++++++++++@@@@@@@@@++++.....    ",
"    .....#########....@@@@@++++++++####...................####++++####+++++####+++++#####+++++++++++++++++@@@@@@@@@++++.....    ",
"         .........@@@@++++++++++++++++++++++######################++++###################++++####++++++++++++++++++@@@@.....    ",
"         .........@@@@++++++++++++++++++++++######################++++###################++++####++++++++++++++++++@@@@.....    ",
"         .........@@@@++++++++++++++++++++++######################++++###################++++####++++++++++++++++++@@@@.....    ",
"         .........@@@@++++++++++++++++++++++######################++++###################++++####++++++++++++++++++@@@@.....    ",
"             .....####@@@@@@@@@+++++++++++++++++++++++++++++++++++++++#####....##############++++####++++++++++++++++++@@@@@....",
"             .....####@@@@@@@@@+++++++++++++++++++++++++++++++++++++++#####....##############++++####++++++++++++++++++@@@@@....",
"             .....####@@@@@@@@@+++++++++++++++++++++++++++++++++++++++#####....##############++++####++++++++++++++++++@@@@@....",
"             .....####@@@@@@@@@+++++++++++++++++++++++++++++++++++++++#####....##############++++####++++++++++++++++++@@@@@....",
"             .....####@@@@@@@@@+++++++++++++++++++++++++++++++++++++++#####....##############++++####++++++++++++++++++@@@@@....",
"             .....#########++++########@@@@@+++++++++######################....##################++++++++++++++++++++++@@@@@....",
"             .....#########++++########@@@@@+++++++++######################....##################++++++++++++++++++++++@@@@@....",
"             .....#########++++########@@@@@+++++++++######################....##################++++++++++++++++++++++@@@@@....",
"             .....#########++++########@@@@@+++++++++######################....##################++++++++++++++++++++++@@@@@....",
"                  ....#############+++++++++@@@@@####+++++########+++++++++####.....#####++++########++++++++++++++@@@@+++++....",
"                  ....#############+++++++++@@@@@####+++++########+++++++++####.....#####++++########++++++++++++++@@@@+++++....",
"                  ....#############+++++++++@@@@@####+++++########+++++++++####.....#####++++########++++++++++++++@@@@+++++....",
"                  ....#############+++++++++@@@@@####+++++########+++++++++####.....#####++++########++++++++++++++@@@@+++++....",
"             .....####+++++....####++++@@@@@@@@@@++++#########++++++++@@@@@++++#####.....####++++++++@@@@@@@@@@@@@@++++#####....",
"             .....####+++++....####++++@@@@@@@@@@++++#########++++++++@@@@@++++#####.....####++++++++@@@@@@@@@@@@@@++++#####....",
"             .....####+++++....####++++@@@@@@@@@@++++#########++++++++@@@@@++++#####.....####++++++++@@@@@@@@@@@@@@++++#####....",
"             .....####+++++....####++++@@@@@@@@@@++++#########++++++++@@@@@++++#####.....####++++++++@@@@@@@@@@@@@@++++#####....",
"         ....+++++++++#####....++++++++++++++++++@@@@#####+++++++++++++++++++++@@@@@#####....##########################.....    ",
"         ....+++++++++#####....++++++++++++++++++@@@@#####+++++++++++++++++++++@@@@@#####....##########################.....    ",
"         ....+++++++++#####....++++++++++++++++++@@@@#####+++++++++++++++++++++@@@@@#####....##########################.....    ",
"         ....+++++++++#####....++++++++++++++++++@@@@#####+++++++++++++++++++++@@@@@#####....##########################.....    ",
"         ....+++++++++#####....++++++++++++++++++@@@@#####+++++++++++++++++++++@@@@@#####....##########################.....    ",
"    $$$$$+++++++++++++#####....####++++@@@@@@@@@@#########++++####+++++++++@@@@+++++@@@@@####......................$$$$         ",
"    $$$$$+++++++++++++#####....####++++@@@@@@@@@@#########++++####+++++++++@@@@+++++@@@@@####......................$$$$         ",
"    $$$$$+++++++++++++#####....####++++@@@@@@@@@@#########++++####+++++++++@@@@+++++@@@@@####......................$$$$         ",
"    $$$$$+++++++++++++#####....####++++@@@@@@@@@@#########++++####+++++++++@@@@+++++@@@@@####......................$$$$         ",
"    $$$$$@@@@+++++++++#########.............#####....+++++####++++####+++++++++@@@@@@@@@@##########################$$$$         ",
"    $$$$$@@@@+++++++++#########.............#####....+++++####++++####+++++++++@@@@@@@@@@##########################$$$$         ",
"    $$$$$@@@@+++++++++#########.............#####....+++++####++++####+++++++++@@@@@@@@@@##########################$$$$         ",
"    $$$$$@@@@+++++++++#########.............#####....+++++####++++####+++++++++@@@@@@@@@@##########################$$$$         ",
"$$$$#####@@@@++++++++++++++######################....#############++++#####+++++++++@@@@@+++++++++++++++++####+++++####$$$$$    ",
"$$$$#####@@@@++++++++++++++######################....#############++++#####+++++++++@@@@@+++++++++++++++++####+++++####$$$$$    ",
"$$$$#####@@@@++++++++++++++######################....#############++++#####+++++++++@@@@@+++++++++++++++++####+++++####$$$$$    ",
"$$$$#####@@@@++++++++++++++######################....#############++++#####+++++++++@@@@@+++++++++++++++++####+++++####$$$$$    ",
"$$$$#####@@@@++++++++++++++######################....#############++++#####+++++++++@@@@@+++++++++++++++++####+++++####$$$$$    ",
"$$$$.....++++@@@@@+++++++++++++####++++##########....#####++++#############++++@@@@@+++++####+++++++++++++++++#########.....$$$$",
"$$$$.....++++@@@@@+++++++++++++####++++##########....#####++++#############++++@@@@@+++++####+++++++++++++++++#########.....$$$$",
"$$$$.....++++@@@@@+++++++++++++####++++##########....#####++++#############++++@@@@@+++++####+++++++++++++++++#########.....$$$$",
"$$$$.....++++@@@@@+++++++++++++####++++##########....#####++++#############++++@@@@@+++++####+++++++++++++++++#########.....$$$$",
"$$$$.....####++++++++++++++++++++++##################.....####++++++++@@@@@@@@@+++++#####++++++++++++++++++++++++++####.....$$$$",
"$$$$.....####++++++++++++++++++++++##################.....####++++++++@@@@@@@@@+++++#####++++++++++++++++++++++++++####.....$$$$",
"$$$$.....####++++++++++++++++++++++##################.....####++++++++@@@@@@@@@+++++#####++++++++++++++++++++++++++####.....$$$$",
"$$$$.....####++++++++++++++++++++++##################.....####++++++++@@@@@@@@@+++++#####++++++++++++++++++++++++++####.....$$$$",
"    $$$$$....#####++++@@@@@+++++++++++++++++##############.................#########+++++++++@@@@@@@@+++++@@@@+++++#########$$$$",
"    $$$$$....#####++++@@@@@+++++++++++++++++##############.................#########+++++++++@@@@@@@@+++++@@@@+++++#########$$$$",
"    $$$$$....#####++++@@@@@+++++++++++++++++##############.................#########+++++++++@@@@@@@@+++++@@@@+++++#########$$$$",
"    $$$$$....#####++++@@@@@+++++++++++++++++##############.................#########+++++++++@@@@@@@@+++++@@@@+++++#########$$$$",
"         $$$$.....####+++++@@@@@@@@++++++++++++++++++#################+++++####+++++#####++++++++@@@@@@@@@++++@@@@@####.....$$$$",
"         $$$$.....####+++++@@@@@@@@++++++++++++++++++#################+++++####+++++#####++++++++@@@@@@@@@++++@@@@@####.....$$$$",
"         $$$$.....####+++++@@@@@@@@++++++++++++++++++#################+++++####+++++#####++++++++@@@@@@@@@++++@@@@@####.....$$$$",
"         $$$$.....####+++++@@@@@@@@++++++++++++++++++#################+++++####+++++#####++++++++@@@@@@@@@++++@@@@@####.....$$$$",
"         $$$$.....####+++++@@@@@@@@++++++++++++++++++#################+++++####+++++#####++++++++@@@@@@@@@++++@@@@@####.....$$$$",
"         $$$$#####$$$$$$$$$####++++@@@@@@@@@+++++####+++++++++++++++++#########@@@@@.....####++++++++@@@@@++++@@@@@.........$$$$",
"         $$$$#####$$$$$$$$$####++++@@@@@@@@@+++++####+++++++++++++++++#########@@@@@.....####++++++++@@@@@++++@@@@@.........$$$$",
"         $$$$#####$$$$$$$$$####++++@@@@@@@@@+++++####+++++++++++++++++#########@@@@@.....####++++++++@@@@@++++@@@@@.........$$$$",
"         $$$$#####$$$$$$$$$####++++@@@@@@@@@+++++####+++++++++++++++++#########@@@@@.....####++++++++@@@@@++++@@@@@.........$$$$",
"         $$$$+++++.........$$$$##################++++######################....+++++#####....####+++++++++@@@@+++++####$$$$$    ",
"         $$$$+++++.........$$$$##################++++######################....+++++#####....####+++++++++@@@@+++++####$$$$$    ",
"         $$$$+++++.........$$$$##################++++######################....+++++#####....####+++++++++@@@@+++++####$$$$$    ",
"         $$$$+++++.........$$$$##################++++######################....+++++#####....####+++++++++@@@@+++++####$$$$$    ",
"         $$$$+++++####.....$$$$####....$$$$$$$$$$##########################....++++++++++####....####@@@@@++++#####....$$$$$    ",
"         $$$$+++++####.....$$$$####....$$$$$$$$$$##########################....++++++++++####....####@@@@@++++#####....$$$$$    ",
"         $$$$+++++####.....$$$$####....$$$$$$$$$$##########################....++++++++++####....####@@@@@++++#####....$$$$$    ",
"         $$$$+++++####.....$$$$####....$$$$$$$$$$##########################....++++++++++####....####@@@@@++++#####....$$$$$    ",
"         $$$$.....+++++++++....####++++..........$$$$#####....#############....#####+++++++++@@@@@@@@+++++####.....$$$$         ",
"         $$$$.....+++++++++....####++++..........$$$$#####....#############....#####+++++++++@@@@@@@@+++++####.....$$$$         ",
"         $$$$.....+++++++++....####++++..........$$$$#####....#############....#####+++++++++@@@@@@@@+++++####.....$$$$         ",
"         $$$$.....+++++++++....####++++..........$$$$#####....#############....#####+++++++++@@@@@@@@+++++####.....$$$$         ",
"         $$$$.....+++++++++....####++++..........$$$$#####....#############....#####+++++++++@@@@@@@@+++++####.....$$$$         ",
"             $$$$$.............####++++..............#############....#####.........##########################$$$$$             ",
"             $$$$$.............####++++..............#############....#####.........##########################$$$$$             ",
"             $$$$$.............####++++..............#############....#####.........##########################$$$$$             ",
"             $$$$$.............####++++..............#############....#####.........##########################$$$$$             ",
"                  $$$$$$$$$............++++++++++####.....####....####.....####..............####....#####....$$$$$             ",
"                  $$$$$$$$$............++++++++++####.....####....####.....####..............####....#####....$$$$$             ",
"                  $$$$$$$$$............++++++++++####.....####....####.....####..............####....#####....$$$$$             ",
"                  $$$$$$$$$............++++++++++####.....####....####.....####..............####....#####....$$$$$             ",
"                           $$$$$$$$$$$$$$$$$..........................$$$$$....#####.............####.........$$$$$             ",
"                           $$$$$$$$$$$$$$$$$..........................$$$$$....#####.............####.........$$$$$             ",
"                           $$$$$$$$$$$$$$$$$..........................$$$$$....#####.............####.........$$$$$             ",
"                           $$$$$$$$$$$$$$$$$..........................$$$$$....#####.............####.........$$$$$             ",
"                                            $$$$$$$$$$$$$$$$$$$$$$$$$$     $$$$...........................$$$$                  ",
"                                            $$$$$$$$$$$$$$$$$$$$$$$$$$     $$$$...........................$$$$                  ",
"                                            $$$$$$$$$$$$$$$$$$$$$$$$$$     $$$$...........................$$$$                  ",
"                                            $$$$$$$$$$$$$$$$$$$$$$$$$$     $$$$...........................$$$$                  ",
"                                            $$$$$$$$$$$$$$$$$$$$$$$$$$     $$$$...........................$$$$                  ",
"                                                                               $$$$$$$$$$$$$$$$$$$$$$$$$$$                      ",
"                                                                               $$$$$$$$$$$$$$$$$$$$$$$$$$$                      ",
"                                                                               $$$$$$$$$$$$$$$$$$$$$$$$$$$                      ",
"                                                                               $$$$$$$$$$$$$$$$$$$$$$$$$$$                      "};
