/* XPM */
static char *wall[] = {
/* columns rows colors chars-per-pixel */
"128 128 4 1 ",
"  c #09020E",
". c #2B1D3C",
"X c #4B3551",
"o c #51487A",
/* pixels */
"ooooooooooooooooooooooooooo          oooooooooooooooooooooooooooooooooooooooooooooooooooooo        ooooooooooooooooooooooooooooo",
"ooooooooooooooooooooooooooo          oooooooooooooooooooooooooooooooooooooooooooooooooooooo        ooooooooooooooooooooooooooooo",
"ooooooooooooooooooooooooooo          oooooooooooooooooooooooooooooooooooooooooooooooooooooo        ooooooooooooooooooooooooooooo",
"ooooooooooooooooooooooooooo          oooooooooooooooooooooooooooooooooooooooooooooooooooooo        ooooooooooooooooooooooooooooo",
"ooooooooooooooooooooooooooo          oooooooooooooooooooooooooooooooooooooooooooooooooooooo        ooooooooooooooooooooooooooooo",
"ooooooooooooooooooooooooooo          oooooooooooooooooooooooooooooooooooooooooooooooooooooo        ooooooooooooooooooooooooooooo",
"ooooooooooooooooooooooooooo          oooooooooooooooooooooooooooooooooooooooooooooooooooooo        ooooooooooooooooooooooooooooo",
"ooooooooooooooooooooooooooo          oooooooooooooooooooooooooooooooooooooooooooooooooooooo        ooooooooooooooooooooooooooooo",
"ooooooooooooooooooooooooooo          oooooooooooooooooooooooooooooooooooooooooooooooooooooo        ooooooooooooooooooooooooooooo",
"ooooooooooooooooooooooooooo          oooooooooooooooooooooooooooooooooooooooooooooooooooooo        ooooooooooooooooooooooooooooo",
"ooooooooooooooooooooooooooo          oooooooooooooooooooooooooooooooooooooooooooooooooooooo        ooooooooooooooooooooooooooooo",
"ooooooooooooooooooooooooooo          oooooooooooooooooooooooooooooooooooooooooooooooooooooo        ooooooooooooooooooooooooooooo",
"ooooooooooooooooooooooooooo          oooooooooooooooooooooooooooooooooooooooooooooooooooooo        ooooooooooooooooooooooooooooo",
"ooooooooooooooooooooooooooo          oooooooooooooooooooooooooooooooooooooooooooooooooooooo        ooooooooooooooooooooooooooooo",
"ooooooooooooooooooooooooooo          oooooooooooooooooooooooooooooooooooooooooooooooooooooo        ooooooooooooooooooooooooooooo",
"ooooooooooooooooooooooooooo          oooooooooooooooooooooooooooooooooooooooooooooooooooooo        ooooooooooooooooooooooooooooo",
"ooooooooooooooooooooooooooo          oooooooooooooooooooooooooooooooooooooooooooooooooooooo        ooooooooooooooooooooooooooooo",
"ooooooooooooooooooooooooooo          oooooooooooooooooooooooooooooooooooooooooooooooooooooo        ooooooooooooooooooooooooooooo",
"ooooooooooooooooooooooooooo          oooooooooooooooooooooooooooooooooooooooooooooooooooooo        ooooooooooooooooooooooooooooo",
"ooooooooooooooooooooooooooo          oooooooooooooooooooooooooooooooooooooooooooooooooooooo        ooooooooooooooooooooooooooooo",
"ooooooooooooooooooooooooooo          oooooooooooooooooooooooooooooooooooooooooooooooooooooo        ooooooooooooooooooooooooooooo",
"ooooooooooooooooooooooooooo          oooooooooooooooooooooooooooooooooooooooooooooooooooooo        ooooooooooooooooooooooooooooo",
"ooooooooooooooooooooooooooo          oooooooooooooooooooooooooooooooooooooooooooooooooooooo        ooooooooooooooooooooooooooooo",
"ooooooooooooooooooooooooooo          oooooooooooooooooooooooooooooooooooooooooooooooooooooo        ooooooooooooooooooooooooooooo",
"ooooooooooooooooooooooooooo          oooooooooooooooooooooooooooooooooooooooooooooooooooooo        ooooooooooooooooooooooooooooo",
"ooooooooooooooooooooooooooo          oooooooooooooooooooooooooooooooooooooooooooooooooooooo        ooooooooooooooooooooooooooooo",
"ooooooooooooooooooooooooooo          oooooooooooooooooooooooooooooooooooooooooooooooooooooo        ooooooooooooooooooooooooooooo",
"ooooooooooooooooooooooooooo          oooooooooooooooooooooooooooooooooooooooooooooooooooooo        ooooooooooooooooooooooooooooo",
"ooooooooooooooooooooooooooo          oooooooooooooooooooooooooooooooooooooooooooooooooooooo        ooooooooooooooooooooooooooooo",
"ooooooooooooooooooooooooooo          oooooooooooooooooooooooooooooooooooooooooooooooooooooo        ooooooooooooooooooooooooooooo",
"ooooooooooooooooooooooooooo          oooooooooooooooooooooooooooooooooooooooooooooooooooooo        ooooooooooooooooooooooooooooo",
"ooooooooooooooooooooooooooo          oooooooooooooooooooooooooooooooooooooooooooooooooooooo        ooooooooooooooooooooooooooooo",
"ooooooooooooooooooooooooooo          oooooooooooooooooooooooooooooooooooooooooooooooooooooo        ooooooooooooooooooooooooooooo",
"ooooooooooooooooooooooooooo          oooooooooooooooooooooooooooooooooooooooooooooooooooooo        ooooooooooooooooooooooooooooo",
"ooooooooooooooooooooooooooo          oooooooooooooooooooooooooooooooooooooooooooooooooooooo        ooooooooooooooooooooooooooooo",
"ooooooooooooooooooooooooooo          oooooooooooooooooooooooooooooooooooooooooooooooooooooo        ooooooooooooooooooooooooooooo",
"ooooooooooooooooooooooooooo          oooooooooooooooooooooooooooooooooooooooooooooooooooooo        ooooooooooooooooooooooooooooo",
"XXXXXXXXXXXXXXXXXXXXXXXXXXX          XXXXXXXXXXXXXXXXXXXXXXXXXXXXXXXXXXXXXXXXXXXXXXXXXXXXXX        XXXXXXXXXXXXXXXXXXXXXXXXXXXXX",
"XXXXXXXXXXXXXXXXXXXXXXXXXXX          XXXXXXXXXXXXXXXXXXXXXXXXXXXXXXXXXXXXXXXXXXXXXXXXXXXXXX        XXXXXXXXXXXXXXXXXXXXXXXXXXXXX",
"XXXXXXXXXXXXXXXXXXXXXXXXXXX          XXXXXXXXXXXXXXXXXXXXXXXXXXXXXXXXXXXXXXXXXXXXXXXXXXXXXX        XXXXXXXXXXXXXXXXXXXXXXXXXXXXX",
"XXXXXXXXXXXXXXXXXXXXXXXXXXX          XXXXXXXXXXXXXXXXXXXXXXXXXXXXXXXXXXXXXXXXXXXXXXXXXXXXXX        XXXXXXXXXXXXXXXXXXXXXXXXXXXXX",
"XXXXXXXXXXXXXXXXXXXXXXXXXXX          XXXXXXXXXXXXXXXXXXXXXXXXXXXXXXXXXXXXXXXXXXXXXXXXXXXXXX        XXXXXXXXXXXXXXXXXXXXXXXXXXXXX",
"XXXXXXXXXXXXXXXXXXXXXXXXXXX          XXXXXXXXXXXXXXXXXXXXXXXXXXXXXXXXXXXXXXXXXXXXXXXXXXXXXX        XXXXXXXXXXXXXXXXXXXXXXXXXXXXX",
"XXXXXXXXXXXXXXXXXXXXXXXXXXX          XXXXXXXXXXXXXXXXXXXXXXXXXXXXXXXXXXXXXXXXXXXXXXXXXXXXXX        XXXXXXXXXXXXXXXXXXXXXXXXXXXXX",
"XXXXXXXXXXXXXXXXXXXXXXXXXXX          XXXXXXXXXXXXXXXXXXXXXXXXXXXXXXXXXXXXXXXXXXXXXXXXXXXXXX        XXXXXXXXXXXXXXXXXXXXXXXXXXXXX",
"...........................          ......................................................        .............................",
"...........................          ......................................................        .............................",
"...........................          ......................................................        .............................",
"...........................          ......................................................        .............................",
"...........................          ......................................................        .............................",
"...........................          ......................................................        .............................",
"...........................          ......................................................        .............................",
"...........................          ......................................................        .............................",
"...........................          ......................................................        .............................",
"...........................          ......................................................        .............................",
"...........................          ......................................................        .............................",
"...........................          ......................................................        .............................",
"...........................          ......................................................        .............................",
"...........................          ......................................................        .............................",
"...........................          ......................................................        .............................",
"...........................          ......................................................        .............................",
"...........................          ......................................................        .............................",
"...........................          ......................................................        .............................",
"...........................          ......................................................        .............................",
"                                                                                                                                ",
"                                                                                                                                ",
"                                                                                                                                ",
"                                                                                                                                ",
"                                                                                                                                ",
"                                                                                                                                ",
"                                                                                                                                ",
"                                                                                                                                ",
"........................................................        ................................................................",
"........................................................        ................................................................",
"........................................................        ................................................................",
"........................................................        ................................................................",
"........................................................        ................................................................",
"........................................................        ................................................................",
"........................................................        ................................................................",
"........................................................        ................................................................",
"........................................................        ................................................................",
"........................................................        ................................................................",
"........................................................        ................................................................",
"........................................................        ................................................................",
"........................................................        ................................................................",
"........................................................        ................................................................",
"........................................................        ................................................................",
"........................................................        ................................................................",
"........................................................        ................................................................",
"........................................................        ................................................................",
"........................................................        ................................................................",
"                                                                                                                                ",
"                                                                                                                                ",
"                                                                                                                                ",
"                                                                                                                                ",
"                                                                                                                                ",
"                                                                                                                                ",
"                                                                                                                                ",
"                                                                                                                                ",
"                                                                                                                                ",
"                                                                                                                                ",
"...........................          ......................................................        .............................",
"...........................          ......................................................        .............................",
"...........................          ......................................................        .............................",
"...........................          ......................................................        .............................",
"...........................          ......................................................        .............................",
"...........................          ......................................................        .............................",
"...........................          ......................................................        .............................",
"...........................          ......................................................        .............................",
"...........................                  ..............................................        .............................",
"...........................                  ..............................................        .............................",
"...........................                  ..............................................        .............................",
"...........................                  ..............................................        .............................",
"...........................                  ..............................................        .............................",
"...........................                  ..............................................        .............................",
"...........................                  ..............................................        .............................",
"...........................                  ..............................................        .............................",
"...........................          ........           ...................................        ..................           ",
"...........................          ........           ...................................        ..................           ",
"...........................          ........           ...................................        ..................           ",
"...........................          ........           ...................................        ..................           ",
"...........................          ........           ...................................        ..................           ",
"...........................          ........           ...................................        ..................           ",
"...........................          ........           ...................................        ..................           ",
"...........................          ........           ...................................        ..................           ",
"...........................          ........           ...................................        ..................           ",
"...........................          ........           ...................................        ..................           ",
"...........................          ........           ...................................        ..................           "
};
